<svg width="512" height="512" viewBox="0 0 512 512" fill="none" xmlns="http://www.w3.org/2000/svg">
<path d="M298.482 154.71L367.264 175.678L298.482 196.645L229.701 175.678L298.482 154.71Z" fill="#A0AEBD"/>
<path fill-rule="evenodd" clip-rule="evenodd" d="M298.483 196.649L230.376 175.682V269.923L247.068 264.689V216.806L281.789 227.519V270.037L298.483 275.211V196.649Z" fill="#6E8091"/>
<path fill-rule="evenodd" clip-rule="evenodd" d="M298.482 196.645L367.264 175.678V296.645L356.475 293.285V232.129L321.41 242.842V282.362L298.482 275.22V196.645Z" fill="#4B5766"/>
<path d="M213.518 91L282.299 111.968L213.518 132.935L144.736 111.968L213.518 91Z" fill="#0F529B"/>
<path fill-rule="evenodd" clip-rule="evenodd" d="M213.518 132.936L144.736 111.968V296.645L162.269 291.168V153.096L197.334 163.809V280.214L213.518 275.158V132.936Z" fill="#0E4A8C"/>
<path fill-rule="evenodd" clip-rule="evenodd" d="M213.518 132.936L282.299 111.968V270.127L271.51 266.78V168.419L236.445 179.132V268.05L213.518 275.182V132.936Z" fill="#0C427C"/>
<path d="M256 272.318L367.264 306.659L256 341L144.736 306.659L256 272.318Z" fill="#A0AEBD"/>
<path d="M425.942 373.134V379.059H435.719V384.567H425.942V390.992H437V396.709H418.641V367.418H437V373.134H425.942Z" fill="#0E529B"/>
<path d="M385.734 382.021C385.734 379.128 386.375 376.555 387.656 374.302C388.937 372.021 390.716 370.255 392.993 369.003C395.298 367.724 397.903 367.084 400.806 367.084C404.364 367.084 407.41 368.002 409.943 369.838C412.476 371.674 414.17 374.177 415.024 377.348H406.997C406.399 376.124 405.545 375.192 404.435 374.553C403.354 373.913 402.115 373.593 400.721 373.593C398.472 373.593 396.65 374.358 395.256 375.888C393.861 377.418 393.163 379.462 393.163 382.021C393.163 384.581 393.861 386.625 395.256 388.155C396.65 389.685 398.472 390.45 400.721 390.45C402.115 390.45 403.354 390.13 404.435 389.49C405.545 388.85 406.399 387.918 406.997 386.695H415.024C414.17 389.866 412.476 392.369 409.943 394.205C407.41 396.013 404.364 396.917 400.806 396.917C397.903 396.917 395.298 396.291 392.993 395.039C390.716 393.76 388.937 391.994 387.656 389.74C386.375 387.487 385.734 384.914 385.734 382.021Z" fill="#0E529B"/>
<path d="M375.259 396.709L369.025 385.652H367.275V396.709H359.974V367.418H372.228C374.59 367.418 376.597 367.821 378.248 368.628C379.927 369.435 381.179 370.547 382.005 371.966C382.83 373.357 383.243 374.914 383.243 376.639C383.243 378.586 382.674 380.325 381.535 381.855C380.425 383.385 378.774 384.469 376.583 385.109L383.499 396.709H375.259ZM367.275 380.603H371.801C373.138 380.603 374.135 380.283 374.789 379.643C375.472 379.004 375.814 378.099 375.814 376.931C375.814 375.819 375.472 374.942 374.789 374.303C374.135 373.663 373.138 373.343 371.801 373.343H367.275V380.603Z" fill="#0E529B"/>
<path d="M345.03 373.134V379.059H354.807V384.567H345.03V390.992H356.088V396.709H337.729V367.418H356.088V373.134H345.03Z" fill="#0E529B"/>
<path d="M333.333 367.418V396.709H326.032V379.143L319.328 396.709H313.436L306.69 379.101V396.709H299.389V367.418H308.014L316.425 387.696L324.751 367.418H333.333Z" fill="#0E529B"/>
<path d="M294.993 367.418V396.709H287.692V379.143L280.989 396.709H275.097L268.351 379.101V396.709H261.05V367.418H269.675L278.086 387.696L286.411 367.418H294.993Z" fill="#0E529B"/>
<path d="M242.515 397C239.697 397 237.107 396.36 234.744 395.081C232.41 393.801 230.546 392.021 229.151 389.74C227.785 387.431 227.102 384.844 227.102 381.979C227.102 379.114 227.785 376.541 229.151 374.26C230.546 371.979 232.41 370.199 234.744 368.919C237.107 367.64 239.697 367 242.515 367C245.333 367 247.909 367.64 250.243 368.919C252.605 370.199 254.455 371.979 255.793 374.26C257.159 376.541 257.843 379.114 257.843 381.979C257.843 384.844 257.159 387.431 255.793 389.74C254.427 392.021 252.577 393.801 250.243 395.081C247.909 396.36 245.333 397 242.515 397ZM242.515 390.491C244.906 390.491 246.813 389.712 248.236 388.154C249.688 386.597 250.413 384.538 250.413 381.979C250.413 379.392 249.688 377.334 248.236 375.804C246.813 374.246 244.906 373.467 242.515 373.467C240.095 373.467 238.16 374.232 236.708 375.762C235.285 377.292 234.573 379.364 234.573 381.979C234.573 384.566 235.285 386.638 236.708 388.196C238.16 389.726 240.095 390.491 242.515 390.491Z" fill="#0E529B"/>
<path d="M195.433 382.021C195.433 379.128 196.074 376.555 197.354 374.302C198.635 372.021 200.414 370.255 202.691 369.003C204.997 367.724 207.601 367.084 210.505 367.084C214.063 367.084 217.108 368.002 219.642 369.838C222.175 371.674 223.868 374.177 224.722 377.348H216.696C216.098 376.124 215.244 375.192 214.134 374.553C213.052 373.913 211.814 373.593 210.419 373.593C208.171 373.593 206.349 374.358 204.954 375.888C203.56 377.418 202.862 379.462 202.862 382.021C202.862 384.581 203.56 386.625 204.954 388.155C206.349 389.685 208.171 390.45 210.419 390.45C211.814 390.45 213.052 390.13 214.134 389.49C215.244 388.85 216.098 387.918 216.696 386.695H224.722C223.868 389.866 222.175 392.369 219.642 394.205C217.108 396.013 214.063 396.917 210.505 396.917C207.601 396.917 204.997 396.291 202.691 395.039C200.414 393.76 198.635 391.994 197.354 389.74C196.074 387.487 195.433 384.914 195.433 382.021Z" fill="#0E529B"/>
<path d="M191.117 379.101V385.025H172.331V379.101H191.117Z" fill="#0E529B"/>
<path d="M157.814 373.134V379.059H167.591V384.567H157.814V390.992H168.872V396.709H150.513V367.418H168.872V373.134H157.814Z" fill="#0E529B"/>
<path d="M137.882 367.418V396.709H130.581V367.418H137.882Z" fill="#0E529B"/>
<path d="M116.012 397C113.82 397 111.856 396.652 110.12 395.957C108.384 395.261 106.989 394.232 105.936 392.869C104.911 391.506 104.37 389.865 104.313 387.946H112.084C112.198 389.031 112.582 389.865 113.237 390.449C113.892 391.006 114.745 391.284 115.799 391.284C116.88 391.284 117.734 391.047 118.36 390.574C118.987 390.074 119.3 389.392 119.3 388.53C119.3 387.807 119.044 387.209 118.531 386.736C118.047 386.263 117.435 385.873 116.695 385.567C115.984 385.261 114.959 384.914 113.621 384.524C111.686 383.94 110.106 383.356 108.882 382.772C107.658 382.188 106.605 381.325 105.722 380.185C104.84 379.045 104.399 377.556 104.399 375.72C104.399 372.994 105.409 370.866 107.43 369.337C109.451 367.779 112.084 367 115.329 367C118.631 367 121.292 367.779 123.313 369.337C125.334 370.866 126.416 373.008 126.558 375.762H118.659C118.602 374.816 118.247 374.079 117.592 373.551C116.937 372.994 116.098 372.716 115.073 372.716C114.19 372.716 113.479 372.953 112.938 373.426C112.397 373.871 112.127 374.524 112.127 375.387C112.127 376.332 112.582 377.07 113.493 377.598C114.404 378.127 115.827 378.697 117.763 379.309C119.698 379.949 121.264 380.561 122.459 381.145C123.683 381.729 124.736 382.577 125.619 383.69C126.501 384.803 126.942 386.235 126.942 387.987C126.942 389.656 126.501 391.172 125.619 392.535C124.765 393.898 123.512 394.983 121.861 395.79C120.211 396.597 118.261 397 116.012 397Z" fill="#0E529B"/>
<path d="M86.229 367.418C89.3885 367.418 92.1495 368.03 94.512 369.254C96.8745 370.478 98.6961 372.202 99.977 374.428C101.286 376.625 101.941 379.17 101.941 382.063C101.941 384.928 101.286 387.474 99.977 389.699C98.6961 391.924 96.8602 393.649 94.4693 394.873C92.1068 396.097 89.36 396.709 86.229 396.709H75V367.418H86.229ZM85.7593 390.533C88.5203 390.533 90.6693 389.796 92.2064 388.322C93.7434 386.848 94.512 384.762 94.512 382.063C94.512 379.365 93.7434 377.265 92.2064 375.763C90.6693 374.261 88.5203 373.51 85.7593 373.51H82.301V390.533H85.7593Z" fill="#0E529B"/>
<path d="M401.725 422.367L401.487 431.211H399.745L399.507 422.367H401.725ZM400.68 435.167C400.301 435.167 399.983 435.04 399.727 434.784C399.47 434.529 399.342 434.213 399.342 433.836C399.342 433.459 399.47 433.143 399.727 432.888C399.983 432.633 400.301 432.505 400.68 432.505C401.047 432.505 401.358 432.633 401.615 432.888C401.872 433.143 402 433.459 402 433.836C402 434.213 401.872 434.529 401.615 434.784C401.358 435.04 401.047 435.167 400.68 435.167Z" fill="black"/>
<path d="M397.413 429.77C397.413 430.147 397.389 430.488 397.34 430.792H389.622C389.683 431.594 389.982 432.238 390.52 432.724C391.058 433.211 391.718 433.454 392.5 433.454C393.624 433.454 394.419 432.986 394.883 432.05H397.138C396.833 432.974 396.277 433.733 395.47 434.329C394.676 434.912 393.686 435.204 392.5 435.204C391.534 435.204 390.667 434.991 389.897 434.566C389.139 434.128 388.54 433.521 388.1 432.743C387.672 431.952 387.458 431.041 387.458 430.008C387.458 428.974 387.666 428.069 388.082 427.291C388.509 426.501 389.102 425.893 389.86 425.467C390.63 425.042 391.51 424.829 392.5 424.829C393.453 424.829 394.303 425.036 395.048 425.449C395.794 425.862 396.374 426.446 396.79 427.2C397.206 427.941 397.413 428.798 397.413 429.77ZM395.232 429.114C395.219 428.348 394.944 427.734 394.407 427.272C393.869 426.811 393.203 426.58 392.408 426.58C391.687 426.58 391.07 426.811 390.557 427.272C390.043 427.722 389.738 428.336 389.64 429.114H395.232Z" fill="black"/>
<path d="M381.7 424.829C382.495 424.829 383.204 424.993 383.827 425.321C384.462 425.65 384.957 426.136 385.312 426.78C385.679 427.424 385.862 428.202 385.862 429.114V435.04H383.79V429.424C383.79 428.525 383.564 427.838 383.112 427.364C382.66 426.877 382.042 426.634 381.26 426.634C380.478 426.634 379.855 426.877 379.39 427.364C378.938 427.838 378.712 428.525 378.712 429.424V435.04H376.64V429.424C376.64 428.525 376.414 427.838 375.962 427.364C375.51 426.877 374.892 426.634 374.11 426.634C373.328 426.634 372.705 426.877 372.24 427.364C371.788 427.838 371.562 428.525 371.562 429.424V435.04H369.472V424.993H371.562V426.142C371.904 425.729 372.338 425.407 372.863 425.176C373.389 424.945 373.951 424.829 374.55 424.829C375.357 424.829 376.078 424.999 376.713 425.34C377.349 425.68 377.838 426.172 378.18 426.817C378.486 426.209 378.962 425.729 379.61 425.376C380.258 425.011 380.955 424.829 381.7 424.829Z" fill="black"/>
<path d="M366.068 423.662C365.689 423.662 365.371 423.535 365.114 423.279C364.858 423.024 364.729 422.708 364.729 422.331C364.729 421.954 364.858 421.638 365.114 421.383C365.371 421.128 365.689 421 366.068 421C366.435 421 366.746 421.128 367.003 421.383C367.26 421.638 367.388 421.954 367.388 422.331C367.388 422.708 367.26 423.024 367.003 423.279C366.746 423.535 366.435 423.662 366.068 423.662ZM367.095 424.993V435.04H365.005V424.993H367.095Z" fill="black"/>
<path d="M363.254 422.367V424.063H359.863V435.04H357.773V424.063H354.363V422.367H363.254Z" fill="black"/>
<path d="M337.872 429.971C337.872 428.962 338.079 428.069 338.495 427.291C338.923 426.513 339.497 425.911 340.218 425.486C340.952 425.048 341.758 424.829 342.638 424.829C343.433 424.829 344.123 424.987 344.71 425.303C345.309 425.607 345.786 425.99 346.14 426.452V424.993H348.248V435.04H346.14V433.545C345.786 434.019 345.303 434.414 344.692 434.73C344.081 435.046 343.384 435.204 342.602 435.204C341.734 435.204 340.939 434.985 340.218 434.548C339.497 434.098 338.923 433.478 338.495 432.688C338.079 431.886 337.872 430.98 337.872 429.971ZM346.14 430.008C346.14 429.315 345.993 428.713 345.7 428.202C345.419 427.692 345.046 427.303 344.582 427.035C344.117 426.768 343.616 426.634 343.078 426.634C342.541 426.634 342.039 426.768 341.575 427.035C341.111 427.291 340.732 427.674 340.438 428.184C340.157 428.683 340.017 429.278 340.017 429.971C340.017 430.664 340.157 431.272 340.438 431.794C340.732 432.317 341.111 432.718 341.575 432.998C342.052 433.265 342.553 433.399 343.078 433.399C343.616 433.399 344.117 433.265 344.582 432.998C345.046 432.73 345.419 432.341 345.7 431.831C345.993 431.308 346.14 430.7 346.14 430.008Z" fill="black"/>
<path d="M330.156 426.689V432.25C330.156 432.627 330.242 432.901 330.413 433.071C330.596 433.229 330.902 433.308 331.329 433.308H332.613V435.04H330.963C330.022 435.04 329.3 434.821 328.799 434.384C328.298 433.946 328.048 433.235 328.048 432.25V426.689H326.856V424.993H328.048V422.495H330.156V424.993H332.613V426.689H330.156Z" fill="black"/>
<path d="M314.962 429.971C314.962 428.962 315.17 428.069 315.586 427.291C316.014 426.513 316.588 425.911 317.309 425.486C318.042 425.048 318.849 424.829 319.729 424.829C320.524 424.829 321.214 424.987 321.801 425.303C322.4 425.607 322.876 425.99 323.231 426.452V424.993H325.339V435.04H323.231V433.545C322.876 434.019 322.394 434.414 321.782 434.73C321.171 435.046 320.475 435.204 319.692 435.204C318.825 435.204 318.03 434.985 317.309 434.548C316.588 434.098 316.014 433.478 315.586 432.688C315.17 431.886 314.962 430.98 314.962 429.971ZM323.231 430.008C323.231 429.315 323.084 428.713 322.791 428.202C322.51 427.692 322.137 427.303 321.672 427.035C321.208 426.768 320.707 426.634 320.169 426.634C319.631 426.634 319.13 426.768 318.666 427.035C318.201 427.291 317.822 427.674 317.529 428.184C317.248 428.683 317.107 429.278 317.107 429.971C317.107 430.664 317.248 431.272 317.529 431.794C317.822 432.317 318.201 432.718 318.666 432.998C319.142 433.265 319.644 433.399 320.169 433.399C320.707 433.399 321.208 433.265 321.672 432.998C322.137 432.73 322.51 432.341 322.791 431.831C323.084 431.308 323.231 430.7 323.231 430.008Z" fill="black"/>
<path d="M305.475 430.026L310.132 435.04H307.309L303.569 430.719V435.04H301.479V421.547H303.569V429.387L307.235 424.993H310.132L305.475 430.026Z" fill="black"/>
<path d="M290.156 430.008C290.156 428.974 290.364 428.069 290.779 427.291C291.207 426.501 291.794 425.893 292.539 425.467C293.285 425.042 294.14 424.829 295.106 424.829C296.328 424.829 297.336 425.121 298.131 425.704C298.938 426.276 299.481 427.096 299.763 428.166H297.508C297.324 427.668 297.031 427.279 296.628 426.999C296.224 426.719 295.717 426.58 295.106 426.58C294.25 426.58 293.566 426.883 293.052 427.491C292.551 428.087 292.301 428.926 292.301 430.008C292.301 431.089 292.551 431.934 293.052 432.542C293.566 433.15 294.25 433.454 295.106 433.454C296.316 433.454 297.116 432.925 297.508 431.867H299.763C299.469 432.888 298.919 433.703 298.113 434.311C297.306 434.906 296.304 435.204 295.106 435.204C294.14 435.204 293.285 434.991 292.539 434.566C291.794 434.128 291.207 433.521 290.779 432.743C290.364 431.952 290.156 431.041 290.156 430.008Z" fill="black"/>
<path d="M287.448 423.662C287.07 423.662 286.752 423.535 286.495 423.279C286.238 423.024 286.11 422.708 286.11 422.331C286.11 421.954 286.238 421.638 286.495 421.383C286.752 421.128 287.07 421 287.448 421C287.815 421 288.127 421.128 288.383 421.383C288.64 421.638 288.768 421.954 288.768 422.331C288.768 422.708 288.64 423.024 288.383 423.279C288.127 423.535 287.815 423.662 287.448 423.662ZM288.475 424.993V435.04H286.385V424.993H288.475Z" fill="black"/>
<path d="M284.007 421.547V435.04H281.917V421.547H284.007Z" fill="black"/>
<path d="M267.408 428.677C267.408 427.437 267.695 426.325 268.269 425.34C268.856 424.356 269.644 423.59 270.634 423.043C271.637 422.484 272.731 422.204 273.916 422.204C275.273 422.204 276.477 422.538 277.528 423.207C278.591 423.863 279.361 424.799 279.838 426.015H277.326C276.996 425.346 276.538 424.848 275.951 424.52C275.364 424.192 274.686 424.027 273.916 424.027C273.073 424.027 272.321 424.216 271.661 424.593C271.001 424.97 270.482 425.511 270.103 426.216C269.736 426.921 269.553 427.741 269.553 428.677C269.553 429.613 269.736 430.434 270.103 431.139C270.482 431.844 271.001 432.391 271.661 432.78C272.321 433.157 273.073 433.345 273.916 433.345C274.686 433.345 275.364 433.181 275.951 432.853C276.538 432.524 276.996 432.026 277.326 431.358H279.838C279.361 432.573 278.591 433.509 277.528 434.166C276.477 434.822 275.273 435.15 273.916 435.15C272.718 435.15 271.624 434.877 270.634 434.33C269.644 433.77 268.856 432.999 268.269 432.014C267.695 431.029 267.408 429.917 267.408 428.677Z" fill="black"/>
<path d="M262.018 429.77C262.018 430.147 261.994 430.488 261.945 430.792H254.227C254.288 431.594 254.587 432.238 255.125 432.724C255.663 433.211 256.323 433.454 257.105 433.454C258.229 433.454 259.024 432.986 259.488 432.05H261.743C261.438 432.974 260.882 433.733 260.075 434.329C259.281 434.912 258.291 435.204 257.105 435.204C256.139 435.204 255.272 434.991 254.502 434.566C253.744 434.128 253.145 433.521 252.705 432.743C252.277 431.952 252.063 431.041 252.063 430.008C252.063 428.974 252.271 428.069 252.687 427.291C253.114 426.501 253.707 425.893 254.465 425.467C255.235 425.042 256.115 424.829 257.105 424.829C258.058 424.829 258.908 425.036 259.653 425.449C260.399 425.862 260.979 426.446 261.395 427.2C261.811 427.941 262.018 428.798 262.018 429.77ZM259.837 429.114C259.824 428.348 259.549 427.734 259.012 427.272C258.474 426.811 257.808 426.58 257.013 426.58C256.292 426.58 255.675 426.811 255.162 427.272C254.648 427.722 254.343 428.336 254.245 429.114H259.837Z" fill="black"/>
<path d="M246.317 424.829C247.112 424.829 247.821 424.993 248.444 425.321C249.079 425.65 249.574 426.136 249.929 426.78C250.283 427.424 250.461 428.202 250.461 429.114V435.04H248.389V429.424C248.389 428.525 248.163 427.838 247.711 427.364C247.258 426.877 246.641 426.634 245.859 426.634C245.077 426.634 244.453 426.877 243.989 427.364C243.537 427.838 243.31 428.525 243.31 429.424V435.04H241.22V424.993H243.31V426.142C243.653 425.729 244.087 425.407 244.612 425.176C245.15 424.945 245.718 424.829 246.317 424.829Z" fill="black"/>
<path d="M233.022 435.168C231.837 435.168 230.743 434.895 229.74 434.348C228.75 433.789 227.962 433.017 227.375 432.032C226.801 431.035 226.514 429.917 226.514 428.677C226.514 427.437 226.801 426.325 227.375 425.34C227.962 424.356 228.75 423.59 229.74 423.043C230.743 422.484 231.837 422.204 233.022 422.204C234.22 422.204 235.314 422.484 236.304 423.043C237.306 423.59 238.094 424.356 238.669 425.34C239.243 426.325 239.531 427.437 239.531 428.677C239.531 429.917 239.243 431.035 238.669 432.032C238.094 433.017 237.306 433.789 236.304 434.348C235.314 434.895 234.22 435.168 233.022 435.168ZM233.022 433.363C233.865 433.363 234.617 433.175 235.277 432.798C235.937 432.409 236.45 431.862 236.817 431.157C237.196 430.44 237.385 429.613 237.385 428.677C237.385 427.741 237.196 426.921 236.817 426.216C236.45 425.511 235.937 424.97 235.277 424.593C234.617 424.216 233.865 424.027 233.022 424.027C232.179 424.027 231.427 424.216 230.767 424.593C230.107 424.97 229.588 425.511 229.209 426.216C228.842 426.921 228.659 427.741 228.659 428.677C228.659 429.613 228.842 430.44 229.209 431.157C229.588 431.862 230.107 432.409 230.767 432.798C231.427 433.175 232.179 433.363 233.022 433.363Z" fill="black"/>
<path d="M221.604 424.993L215.407 439.763H213.244L215.297 434.876L211.319 424.993H213.647L216.489 432.651L219.441 424.993H221.604Z" fill="black"/>
<path d="M202.542 426.488C202.896 426.002 203.379 425.607 203.99 425.303C204.614 424.987 205.304 424.829 206.062 424.829C206.954 424.829 207.761 425.042 208.482 425.467C209.203 425.893 209.771 426.5 210.187 427.291C210.603 428.069 210.81 428.962 210.81 429.971C210.81 430.98 210.603 431.885 210.187 432.688C209.771 433.478 209.197 434.098 208.464 434.548C207.743 434.985 206.942 435.204 206.062 435.204C205.28 435.204 204.583 435.052 203.972 434.748C203.373 434.444 202.896 434.055 202.542 433.581V435.04H200.452V421.547H202.542V426.488ZM208.684 429.971C208.684 429.278 208.537 428.682 208.244 428.184C207.963 427.673 207.584 427.291 207.107 427.035C206.643 426.768 206.141 426.634 205.604 426.634C205.078 426.634 204.577 426.768 204.1 427.035C203.636 427.303 203.257 427.692 202.964 428.202C202.682 428.713 202.542 429.315 202.542 430.007C202.542 430.7 202.682 431.308 202.964 431.831C203.257 432.341 203.636 432.73 204.1 432.998C204.577 433.265 205.078 433.399 205.604 433.399C206.141 433.399 206.643 433.265 207.107 432.998C207.584 432.718 207.963 432.317 208.244 431.794C208.537 431.272 208.684 430.664 208.684 429.971Z" fill="black"/>
<path d="M188.068 424.829C188.85 424.829 189.541 424.987 190.139 425.303C190.751 425.607 191.227 425.99 191.569 426.452V424.993H193.678V435.204C193.678 436.128 193.482 436.949 193.091 437.666C192.7 438.395 192.132 438.966 191.386 439.38C190.653 439.793 189.773 440 188.746 440C187.377 440 186.241 439.678 185.336 439.033C184.432 438.401 183.918 437.538 183.796 436.444H185.868C186.027 436.967 186.363 437.386 186.876 437.702C187.402 438.03 188.025 438.195 188.746 438.195C189.589 438.195 190.268 437.939 190.781 437.429C191.307 436.918 191.569 436.177 191.569 435.204V433.527C191.215 434.001 190.732 434.402 190.121 434.73C189.522 435.046 188.838 435.204 188.068 435.204C187.188 435.204 186.381 434.985 185.648 434.548C184.927 434.098 184.352 433.478 183.924 432.688C183.509 431.886 183.301 430.98 183.301 429.971C183.301 428.962 183.509 428.069 183.924 427.291C184.352 426.513 184.927 425.911 185.648 425.486C186.381 425.048 187.188 424.829 188.068 424.829ZM191.569 430.008C191.569 429.315 191.423 428.713 191.129 428.202C190.848 427.692 190.476 427.303 190.011 427.035C189.547 426.768 189.046 426.634 188.508 426.634C187.97 426.634 187.469 426.768 187.004 427.035C186.54 427.291 186.161 427.674 185.868 428.184C185.587 428.683 185.446 429.278 185.446 429.971C185.446 430.664 185.587 431.272 185.868 431.794C186.161 432.317 186.54 432.718 187.004 432.998C187.481 433.265 187.982 433.399 188.508 433.399C189.046 433.399 189.547 433.265 190.011 432.998C190.476 432.73 190.848 432.341 191.129 431.831C191.423 431.308 191.569 430.7 191.569 430.008Z" fill="black"/>
<path d="M177.555 424.829C178.349 424.829 179.058 424.993 179.681 425.321C180.317 425.65 180.812 426.136 181.166 426.78C181.521 427.424 181.698 428.202 181.698 429.114V435.04H179.626V429.424C179.626 428.525 179.4 427.838 178.948 427.364C178.496 426.877 177.879 426.634 177.096 426.634C176.314 426.634 175.691 426.877 175.226 427.364C174.774 427.838 174.548 428.525 174.548 429.424V435.04H172.458V424.993H174.548V426.142C174.89 425.729 175.324 425.407 175.85 425.176C176.388 424.945 176.956 424.829 177.555 424.829Z" fill="black"/>
<path d="M169.054 423.662C168.675 423.662 168.357 423.535 168.101 423.279C167.844 423.024 167.716 422.708 167.716 422.331C167.716 421.954 167.844 421.638 168.101 421.383C168.357 421.128 168.675 421 169.054 421C169.421 421 169.733 421.128 169.989 421.383C170.246 421.638 170.374 421.954 170.374 422.331C170.374 422.708 170.246 423.024 169.989 423.279C169.733 423.535 169.421 423.662 169.054 423.662ZM170.081 424.993V435.04H167.991V424.993H170.081Z" fill="black"/>
<path d="M158.022 426.47C158.377 426.008 158.86 425.619 159.471 425.303C160.082 424.987 160.772 424.829 161.542 424.829C162.422 424.829 163.223 425.048 163.944 425.486C164.677 425.911 165.252 426.513 165.668 427.291C166.083 428.069 166.291 428.962 166.291 429.971C166.291 430.98 166.083 431.886 165.668 432.688C165.252 433.478 164.677 434.098 163.944 434.548C163.223 434.985 162.422 435.204 161.542 435.204C160.772 435.204 160.088 435.052 159.489 434.748C158.89 434.432 158.401 434.043 158.022 433.581V439.817H155.932V424.993H158.022V426.47ZM164.164 429.971C164.164 429.278 164.017 428.683 163.724 428.184C163.443 427.674 163.064 427.291 162.587 427.035C162.123 426.768 161.622 426.634 161.084 426.634C160.559 426.634 160.057 426.768 159.581 427.035C159.116 427.303 158.737 427.692 158.444 428.202C158.163 428.713 158.022 429.315 158.022 430.008C158.022 430.7 158.163 431.308 158.444 431.831C158.737 432.341 159.116 432.73 159.581 432.998C160.057 433.265 160.559 433.399 161.084 433.399C161.622 433.399 162.123 433.265 162.587 432.998C163.064 432.718 163.443 432.317 163.724 431.794C164.017 431.272 164.164 430.664 164.164 429.971Z" fill="black"/>
<path d="M145.964 426.47C146.318 426.008 146.801 425.619 147.412 425.303C148.023 424.987 148.714 424.829 149.484 424.829C150.364 424.829 151.164 425.048 151.885 425.486C152.619 425.911 153.193 426.513 153.609 427.291C154.024 428.069 154.232 428.962 154.232 429.971C154.232 430.98 154.024 431.886 153.609 432.688C153.193 433.478 152.619 434.098 151.885 434.548C151.164 434.985 150.364 435.204 149.484 435.204C148.714 435.204 148.029 435.052 147.43 434.748C146.831 434.432 146.342 434.043 145.964 433.581V439.817H143.874V424.993H145.964V426.47ZM152.105 429.971C152.105 429.278 151.959 428.683 151.665 428.184C151.384 427.674 151.005 427.291 150.529 427.035C150.064 426.768 149.563 426.634 149.025 426.634C148.5 426.634 147.999 426.768 147.522 427.035C147.057 427.303 146.679 427.692 146.385 428.202C146.104 428.713 145.964 429.315 145.964 430.008C145.964 430.7 146.104 431.308 146.385 431.831C146.679 432.341 147.057 432.73 147.522 432.998C147.999 433.265 148.5 433.399 149.025 433.399C149.563 433.399 150.064 433.265 150.529 432.998C151.005 432.718 151.384 432.317 151.665 431.794C151.959 431.272 152.105 430.664 152.105 429.971Z" fill="black"/>
<path d="M136.931 435.204C135.977 435.204 135.116 434.991 134.346 434.566C133.576 434.128 132.971 433.521 132.531 432.743C132.091 431.952 131.871 431.041 131.871 430.008C131.871 428.986 132.097 428.081 132.549 427.291C133.001 426.501 133.618 425.893 134.401 425.467C135.183 425.042 136.057 424.829 137.022 424.829C137.988 424.829 138.862 425.042 139.644 425.467C140.426 425.893 141.044 426.501 141.496 427.291C141.948 428.081 142.174 428.986 142.174 430.008C142.174 431.029 141.942 431.934 141.477 432.724C141.013 433.515 140.377 434.128 139.571 434.566C138.776 434.991 137.896 435.204 136.931 435.204ZM136.931 433.399C137.468 433.399 137.97 433.271 138.434 433.016C138.911 432.761 139.296 432.378 139.589 431.867C139.882 431.357 140.029 430.737 140.029 430.008C140.029 429.278 139.888 428.664 139.607 428.166C139.326 427.655 138.953 427.272 138.489 427.017C138.025 426.762 137.523 426.634 136.986 426.634C136.448 426.634 135.947 426.762 135.482 427.017C135.03 427.272 134.67 427.655 134.401 428.166C134.132 428.664 133.997 429.278 133.997 430.008C133.997 431.089 134.272 431.928 134.822 432.524C135.385 433.107 136.087 433.399 136.931 433.399Z" fill="black"/>
<path d="M126.235 424.829C127.005 424.829 127.689 424.993 128.288 425.321C128.899 425.65 129.376 426.136 129.718 426.78C130.073 427.424 130.25 428.202 130.25 429.114V435.04H128.178V429.424C128.178 428.524 127.952 427.838 127.5 427.363C127.048 426.877 126.43 426.634 125.648 426.634C124.866 426.634 124.243 426.877 123.778 427.363C123.326 427.838 123.1 428.524 123.1 429.424V435.04H121.01V421.547H123.1V426.16C123.454 425.735 123.9 425.406 124.438 425.175C124.988 424.944 125.587 424.829 126.235 424.829Z" fill="black"/>
<path d="M114.51 435.168C113.654 435.168 112.884 435.023 112.2 434.731C111.516 434.427 110.978 434.001 110.587 433.454C110.196 432.907 110 432.269 110 431.54H112.237C112.286 432.087 112.499 432.537 112.878 432.889C113.269 433.242 113.813 433.418 114.51 433.418C115.231 433.418 115.793 433.248 116.197 432.907C116.6 432.555 116.802 432.105 116.802 431.558C116.802 431.133 116.673 430.786 116.417 430.519C116.172 430.251 115.861 430.045 115.482 429.899C115.115 429.753 114.602 429.595 113.942 429.425C113.111 429.206 112.432 428.987 111.907 428.768C111.393 428.537 110.953 428.185 110.587 427.711C110.22 427.237 110.037 426.605 110.037 425.814C110.037 425.085 110.22 424.447 110.587 423.9C110.953 423.353 111.467 422.933 112.127 422.642C112.787 422.35 113.551 422.204 114.418 422.204C115.653 422.204 116.661 422.514 117.443 423.134C118.238 423.742 118.678 424.581 118.763 425.65H116.453C116.417 425.188 116.197 424.793 115.793 424.465C115.39 424.137 114.858 423.973 114.198 423.973C113.599 423.973 113.111 424.125 112.732 424.429C112.353 424.733 112.163 425.17 112.163 425.741C112.163 426.13 112.279 426.453 112.512 426.708C112.756 426.951 113.062 427.145 113.428 427.291C113.795 427.437 114.296 427.595 114.932 427.765C115.775 427.996 116.46 428.227 116.985 428.458C117.523 428.689 117.975 429.048 118.342 429.534C118.721 430.008 118.91 430.646 118.91 431.449C118.91 432.093 118.733 432.701 118.378 433.272C118.036 433.843 117.529 434.305 116.857 434.658C116.197 434.998 115.415 435.168 114.51 435.168Z" fill="black"/>
</svg>
