<svg t="1739331515496" class="icon" viewBox="0 0 1675 1024" version="1.1" xmlns="http://www.w3.org/2000/svg" p-id="3517" width="256" height="256"><path d="M1412.055105 1007.642173h-1086.977635V535.71885c0-33.425585 27.098377-60.523962 60.523961-60.523962 33.42722 0 60.523962-27.096741 60.523962-60.523961v-51.118211c0-61.657559 49.984613-111.642173 111.642172-111.642173h504.230032c53.301981 0 96.511182 43.209201 96.511183 96.511182s43.210837 96.511182 96.511182 96.511182h30.26198c70.014773 0 126.773163 56.75839 126.773163 126.773163V1007.642173z" fill="#F3F6FF" p-id="3518" data-spm-anchor-id="a313x.search_index.0.i0.39c33a81V4dVix" class="selected"></path><path d="M1001.290428 244.606773l-1.650505 57.54193c-1.123783 39.234249 18.819681 76.011553 52.201099 96.265815l14.196959 0.392587c43.027629-17.830032 71.621112-59.470518 72.960818-106.25554l1.26446-44.097431-8.0137-0.22083c-24.520383-0.67885-47.198875-13.197495-60.931271-33.63333l-14.196959-0.394223c-5.844652 18.736256-23.344256 31.300703-42.844422 30.759259l-12.986479-0.358237z" fill="#FFBD32" p-id="3519"></path><path d="M986.48823 244.585508l-1.269367 44.651962c-1.315169 46.263208 24.54492 88.978403 66.062722 109.118159 43.021086-17.766236 71.599847-59.275859 72.926466-105.923476l1.251374-43.968204-8.0137-0.222467c-24.520383-0.685393-47.202147-13.174594-60.941086-33.554811-15.124447 19.595042-38.660089 30.773981-63.342415 30.08368l-6.673994-0.184843z" fill="#54B7FF" p-id="3520"></path><path d="M1090.358799 289.170403l-44.151412 46.148702-22.320256-24.026377 9.688741-9.317418 12.806543 13.786377 34.454492-36.015029 9.521892 9.423745z" fill="#FFFFFF" p-id="3521"></path><path d="M1257.473636 227.373802a8.178914 8.178914 0 1 0-0.001636-16.359463 8.178914 8.178914 0 0 0 0.001636 16.359463z" fill="#54B7FF" p-id="3522"></path><path d="M495.616 177.22561c14.478313 2.759565 28.454441-6.741061 31.212371-21.221009 2.759565-14.479949-6.741061-28.454441-21.22101-31.214007-14.479949-2.75793-28.454441 6.742696-31.212371 21.222646-2.759565 14.478313 6.741061 28.452805 21.22101 31.21237z" fill="#54B7FF" p-id="3523"></path><path d="M490.875502 1023.126492a5.623821 5.623821 0 0 1-5.594377-6.207796l41.157929-394.614594 16.264588 1.747016-46.240307 394.105866a5.627093 5.627093 0 0 1-5.587833 4.969508zM673.867246 1023.126492a5.623821 5.623821 0 0 0 5.594377-6.207796l-41.15793-394.614594-16.264588 1.747016 46.240307 394.105866a5.627093 5.627093 0 0 0 5.587834 4.969508zM935.808409 1023.126492a5.623821 5.623821 0 0 1-5.594377-6.207796l41.15793-394.614594 16.264588 1.747016-46.240307 394.105866a5.627093 5.627093 0 0 1-5.587834 4.969508zM1118.800153 1023.126492a5.623821 5.623821 0 0 0 5.594377-6.207796l-41.157929-394.614594-16.264588 1.747016 46.240306 394.105866a5.627093 5.627093 0 0 0 5.587834 4.969508z" fill="#627AC1" p-id="3524"></path><path d="M651.483195 605.239617h-148.85623v24.536741h148.85623v-24.536741z" fill="#A3BAFF" p-id="3525"></path><path d="M1112.77393 605.239617h-461.290735v24.536741h461.290735v-24.536741z" fill="#CCD9FF" p-id="3526"></path><path d="M708.688153 405.324064a4.907348 4.907348 0 0 1 4.917163-4.907348l24.839361 0.047437-12.955399 176.358646h-16.801125V405.324064z" fill="#706AC7" p-id="3527"></path><path d="M725.489278 408.585815a8.178914 8.178914 0 0 1 8.178914-8.178914H952.532652a8.178914 8.178914 0 0 1 8.178913 8.178914v168.236984H725.489278V408.585815z" fill="#CFCCFF" p-id="3528"></path><path d="M941.332447 408.808281H744.870032a8.178914 8.178914 0 0 0-8.178914 8.178914v143.256946a8.178914 8.178914 0 0 0 8.178914 8.178913h196.462415a8.178914 8.178914 0 0 0 8.178914-8.178913v-143.256946a8.178914 8.178914 0 0 0-8.178914-8.178914z" fill="#282F48" p-id="3529"></path><path d="M924.707987 408.808281c4.987502 17.975617 9.433559 56.915425-10.202377 70.006594-10.161482 6.773776-25.783208 5.581291-41.179195 4.406799-22.791361-1.737201-45.085444-3.438415-48.428984 20.79407-0.389316 2.829904-0.75246 5.576383-1.104153 8.239438-4.699604 35.565188-7.421546 56.167872-46.500396 56.167872h164.03793a8.178914 8.178914 0 0 0 8.178913-8.178913v-143.256946a8.178914 8.178914 0 0 0-8.178913-8.178914H924.707987z" fill="#2F3B67" p-id="3530"></path><path d="M819.75453 439.61007h-48.518952a6.543131 6.543131 0 0 0-6.543131 6.543131v3.716499a6.543131 6.543131 0 0 0 6.543131 6.543131h48.518952a6.543131 6.543131 0 0 0 6.543131-6.543131v-3.716499a6.543131 6.543131 0 0 0-6.543131-6.543131zM920.566185 439.61007h-20.517623a6.543131 6.543131 0 0 0-6.543131 6.543131v3.716499a6.543131 6.543131 0 0 0 6.543131 6.543131h20.517623a6.543131 6.543131 0 0 0 6.543131-6.543131v-3.716499a6.543131 6.543131 0 0 0-6.543131-6.543131zM924.30722 484.41416H767.492907a2.80046 2.80046 0 0 0 0 5.60092h156.814313a2.80046 2.80046 0 0 0 0-5.60092zM924.30722 504.01738H767.492907a2.798824 2.798824 0 1 0 0 5.599285h156.814313a2.80046 2.80046 0 0 0 0-5.599285zM859.901546 523.618965H767.492907a2.798824 2.798824 0 1 0 0 5.599284h92.408639a2.80046 2.80046 0 1 0 0-5.599284z" fill="#5FFFD8" p-id="3531"></path><path d="M708.688153 576.822799h75.605879v28.002965h-67.426965a8.178914 8.178914 0 0 1-8.178914-8.178914v-19.824051z" fill="#706AC7" p-id="3532"></path><path d="M784.294032 576.822799h243.623668v19.824051a8.178914 8.178914 0 0 1-8.178914 8.178914H784.294032v-28.002965z" fill="#2C2770" p-id="3533"></path><path d="M748.117061 521.814696h-122.055566l16.985968 83.424921h122.055566l-16.985968-83.424921z" fill="#BE7430" p-id="3534"></path><path d="M626.635655 521.814696h120.473764l-16.931988 83.424921h-120.473763l16.931987-83.424921z" fill="#FF9330" p-id="3535"></path><path d="M633.741495 534.891144a4.112358 4.112358 0 0 1 4.02239-3.261751h92.143642c2.617252 0 4.568741 2.414415 4.024026 4.976051l-12.495745 58.827655a4.113994 4.113994 0 0 1-4.022389 3.263387h-92.145278a4.117265 4.117265 0 0 1-4.02239-4.977687l12.495744-58.827655z" fill="#FFB36C" p-id="3536"></path><path d="M730.751591 556.166134l-8.931374 41.346045a1.511463 1.511463 0 0 1-1.483655 1.184307h-110.210862a1.495105 1.495105 0 0 1-0.422032-0.058889v-0.058888c15.831105 0.399131 50.529329-3.407335 60.239335-15.242223 6.438441-7.84685 14.147885-6.875195 21.647949-6.673994 6.641278 0.179936 12.642965 0.341879 16.135361-5.133086 3.243757-5.084013 7.351208-5.476601 11.29508-5.854467 4.756856-0.454748 9.271617-0.886594 11.730198-9.508805z" fill="#F2A864" p-id="3537"></path><path d="M633.463412 517.638543c0.505457 0.976562 0.776997 2.15269 0.776997 3.358262h-1.8697c0-1.715936-0.99292-3.107987-2.216485-3.107987s-2.216486 1.392051-2.216486 3.107987 0.99292 3.107987 2.216486 3.107987c0.22901 0 0.448204-0.049073 0.655949-0.139041l0.55453 2.49784a2.993482 2.993482 0 0 1-2.520741-0.040895c-0.816256-0.386045-1.52455-1.122147-2.023464-2.105252a7.390466 7.390466 0 0 1-0.759003-3.366441 7.352843 7.352843 0 0 1 0.796626-3.348447c0.510364-0.971655 1.226837-1.691399 2.048-2.059451a2.991847 2.991847 0 0 1 2.520742 0.014722c0.817891 0.37623 1.531093 1.104153 2.036549 2.080716zM728.337176 517.638543c0.507093 0.976562 0.778633 2.15269 0.778632 3.358262h-1.869699c0-1.715936-0.99292-3.107987-2.216486-3.107987s-2.216486 1.392051-2.216486 3.107987 0.99292 3.107987 2.216486 3.107987c0.227374 0 0.448204-0.049073 0.655949-0.139041l0.55453 2.49784a2.993482 2.993482 0 0 1-2.520741-0.040895c-0.816256-0.386045-1.52455-1.122147-2.023463-2.105252a7.411732 7.411732 0 0 1-0.759003-3.366441c0.008179-1.205572 0.286262-2.376792 0.796626-3.348447 0.510364-0.971655 1.226837-1.691399 2.048-2.059451a2.991847 2.991847 0 0 1 2.520741 0.014722c0.817891 0.37623 1.531093 1.104153 2.034914 2.080716zM697.258939 517.638543c0.505457 0.976562 0.776997 2.15269 0.776997 3.358262h-1.8697c0-1.715936-0.99292-3.107987-2.216485-3.107987-1.225201 0-2.216486 1.392051-2.216486 3.107987s0.991284 3.107987 2.216486 3.107987c0.22901 0 0.448204-0.049073 0.655949-0.139041l0.55453 2.49784a2.993482 2.993482 0 0 1-2.520741-0.040895c-0.816256-0.386045-1.52455-1.122147-2.023463-2.105252a7.390466 7.390466 0 0 1-0.759004-3.366441 7.352843 7.352843 0 0 1 0.796627-3.348447c0.510364-0.971655 1.226837-1.691399 2.048-2.059451a2.991847 2.991847 0 0 1 2.520741 0.014722c0.817891 0.37623 1.531093 1.104153 2.036549 2.080716zM666.179067 517.638543c0.505457 0.976562 0.776997 2.15269 0.776997 3.358262h-1.8697c0-1.715936-0.991284-3.107987-2.216485-3.107987-1.223565 0-2.216486 1.392051-2.216486 3.107987s0.99292 3.107987 2.216486 3.107987c0.22901 0 0.448204-0.049073 0.655948-0.139041l0.554531 2.49784a2.993482 2.993482 0 0 1-2.520741-0.040895c-0.816256-0.386045-1.52455-1.122147-2.023464-2.105252a7.390466 7.390466 0 0 1-0.759003-3.366441 7.352843 7.352843 0 0 1 0.796626-3.348447c0.510364-0.971655 1.226837-1.691399 2.048-2.059451a2.991847 2.991847 0 0 1 2.520742 0.014722c0.817891 0.37623 1.531093 1.104153 2.036549 2.080716z" fill="#C4C4C4" p-id="3538"></path><path d="M641.432946 544.236371a3.480946 3.480946 0 0 1 3.407335-2.792282h5.550211a3.49076 3.49076 0 0 1 3.407335 4.195783l-0.577431 2.826633a3.480946 3.480946 0 0 1-3.407335 2.792281h-5.550211a3.49076 3.49076 0 0 1-3.407336-4.195783l0.577432-2.826632zM665.969687 544.236371a3.480946 3.480946 0 0 1 3.407335-2.792282h5.550211a3.49076 3.49076 0 0 1 3.407336 4.195783l-0.577432 2.826633a3.480946 3.480946 0 0 1-3.407335 2.792281h-5.550211a3.49076 3.49076 0 0 1-3.407335-4.195783l0.577431-2.826632zM688.870645 544.236371a3.480946 3.480946 0 0 1 3.407336-2.792282h5.550211a3.49076 3.49076 0 0 1 3.407335 4.195783l-0.577431 2.826633a3.480946 3.480946 0 0 1-3.407336 2.792281h-5.55021a3.49076 3.49076 0 0 1-3.407336-4.195783l0.577431-2.826632zM713.407387 544.236371a3.480946 3.480946 0 0 1 3.407335-2.792282h5.550211a3.49076 3.49076 0 0 1 3.407335 4.195783l-0.577431 2.826633a3.480946 3.480946 0 0 1-3.407335 2.792281h-5.550211a3.49076 3.49076 0 0 1-3.407336-4.195783l0.577432-2.826632zM636.525597 562.229981a3.480946 3.480946 0 0 1 3.407336-2.792281h5.550211a3.49076 3.49076 0 0 1 3.407335 4.195782l-0.577431 2.826633a3.480946 3.480946 0 0 1-3.407336 2.792281h-5.55021a3.49076 3.49076 0 0 1-3.407336-4.195783l0.577431-2.826632zM661.062339 562.229981a3.480946 3.480946 0 0 1 3.407335-2.792281h5.550211a3.49076 3.49076 0 0 1 3.407335 4.195782l-0.577431 2.826633a3.480946 3.480946 0 0 1-3.407335 2.792281h-5.550211a3.49076 3.49076 0 0 1-3.407336-4.195783l0.577432-2.826632zM683.963297 562.229981a3.480946 3.480946 0 0 1 3.407336-2.792281h5.55021a3.49076 3.49076 0 0 1 3.407336 4.195782l-0.577431 2.826633a3.480946 3.480946 0 0 1-3.407336 2.792281h-5.550211a3.49076 3.49076 0 0 1-3.407335-4.195783l0.577431-2.826632zM708.500038 562.229981a3.480946 3.480946 0 0 1 3.407336-2.792281h5.550211a3.49076 3.49076 0 0 1 3.407335 4.195782l-0.577431 2.826633a3.480946 3.480946 0 0 1-3.407336 2.792281h-5.550211a3.49076 3.49076 0 0 1-3.407335-4.195783l0.577431-2.826632zM631.618249 580.223591a3.480946 3.480946 0 0 1 3.407336-2.792281h5.550211a3.49076 3.49076 0 0 1 3.407335 4.195783l-0.577431 2.826632a3.480946 3.480946 0 0 1-3.407336 2.792281h-5.550211a3.49076 3.49076 0 0 1-3.407335-4.195782l0.577431-2.826633zM656.15499 580.223591a3.480946 3.480946 0 0 1 3.407336-2.792281h5.550211a3.49076 3.49076 0 0 1 3.407335 4.195783l-0.577431 2.826632a3.480946 3.480946 0 0 1-3.407336 2.792281h-5.55021a3.49076 3.49076 0 0 1-3.407336-4.195782l0.577431-2.826633zM679.055949 580.223591a3.480946 3.480946 0 0 1 3.407335-2.792281h5.550211a3.49076 3.49076 0 0 1 3.407336 4.195783l-0.577432 2.826632a3.480946 3.480946 0 0 1-3.407335 2.792281h-5.550211a3.49076 3.49076 0 0 1-3.407335-4.195782l0.577431-2.826633zM703.59269 580.223591a3.480946 3.480946 0 0 1 3.407336-2.792281h5.55021a3.49076 3.49076 0 0 1 3.407336 4.195783l-0.577431 2.826632a3.480946 3.480946 0 0 1-3.407336 2.792281h-5.550211a3.49076 3.49076 0 0 1-3.407335-4.195782l0.577431-2.826633z" fill="#FFDAB8" p-id="3539"></path><path d="M983.592895 29.555323H606.432102c-13.550824 0-24.536741 10.985917-24.536741 24.536741v94.008434c0 13.55246 10.985917 24.538377 24.536741 24.538377h377.160793c13.550824 0 24.536741-10.985917 24.536741-24.536741v-94.008434c0-13.55246-10.985917-24.536741-24.536741-24.536742z" fill="#0B86DF" p-id="3540"></path><path d="M990.841048 29.555323H613.680256c-13.550824 0-24.536741 10.985917-24.536742 24.536741v94.008434c0 13.55246 10.985917 24.538377 24.536742 24.538377h377.160792c13.550824 0 24.536741-10.985917 24.536741-24.536741v-94.008434c0-13.55246-10.985917-24.536741-24.536741-24.536742z" fill="#54B7FF" p-id="3541"></path><path d="M768.212652 60.440537l5.859374 11.86106 13.102619 1.904052-9.480996 9.232357 2.23775 13.037189-11.718747-6.153815-11.720384 6.155451 2.237751-13.038825-9.479361-9.232357 13.10262-1.904052 5.859374-11.86106zM816.404447 60.440537l5.859374 11.86106 13.10262 1.902416-9.482633 9.233993 2.239387 13.037189-11.718748-6.155451-11.720383 6.157087 2.237751-13.038825-9.480997-9.233993 13.104255-1.902416 5.859374-11.862696zM864.596243 60.440537l5.859374 11.86106 13.102619 1.902416-9.480996 9.233993 2.23775 13.037189-11.718747-6.155451-11.718748 6.157087 2.237751-13.038825-9.480997-9.233993 13.10262-1.902416 5.859374-11.862696zM912.788038 60.440537l5.859374 11.86106 13.10262 1.902416-9.480997 9.233993 2.237751 13.037189-11.718748-6.155451-11.718747 6.157087 2.237751-13.038825-9.480997-9.233993 13.10262-1.902416 5.859373-11.862696zM960.98147 60.440537l5.859373 11.86106 13.10262 1.902416-9.482632 9.233993 2.239386 13.037189-11.718747-6.155451-11.718748 6.157087 2.237751-13.038825-9.482633-9.233993 13.104256-1.902416 5.859374-11.862696z" fill="#FFE071" p-id="3542"></path><path d="M957.54469 114.544051H757.283987c-1.774824 0-3.214313 1.439489-3.214313 3.215949v0.024537c0 1.774824 1.439489 3.214313 3.214313 3.214313h200.260703c1.77646 0 3.215949-1.439489 3.215949-3.214313v-0.024537c0-1.77646-1.439489-3.215949-3.215949-3.215949zM898.643425 136.059502h-141.359438c-1.774824 0-3.214313 1.439489-3.214313 3.215948v0.024537c0 1.774824 1.439489 3.215949 3.214313 3.215949h141.359438c1.774824 0 3.214313-1.439489 3.214313-3.215949v-0.024537c0-1.774824-1.439489-3.215949-3.214313-3.215948z" fill="#FFFFFF" p-id="3543"></path><path d="M664.644703 152.198134c27.207974 0 49.263233-22.156677 49.263233-49.487335s-22.055259-49.487335-49.263233-49.487336c-27.206339 0-49.263233 22.156677-49.263233 49.487336s22.056895 49.487335 49.263233 49.487335z" fill="#71DCFF" p-id="3544"></path><path d="M650.545891 96.548805c-12.552997-1.182671-28.114198 13.627706-34.325265 21.181751 0.327157 5.746505 1.568716 18.027962 3.922607 21.181751 2.353891 3.152153 26.480051 12.806543 38.249508 17.24115 25.335003-2.792281 71.887744-14.385073 55.410505-38.424537-20.594505-30.047693-47.565291-19.703003-63.257355-21.180115z" fill="#FFFFFF" p-id="3545"></path><path d="M690.329764 40.712997c-1.100882-8.849585-9.636396-10.141853-13.765112-9.680562-2.295003-1.382236-6.883374-6.912818-16.51977-5.530582-9.636396 1.382236-20.648486 6.914454-17.895463 19.359489 0 0-2.309725 23.964217 15.307654 23.964217 0 5.556754 13.766748 33.770735 13.766748 16.886185 0-16.886185-2.358799-4.166339 8.826684-16.886185 6.863744-2.461853 11.654952-17.049764 10.279259-28.112562z" fill="#2C2770" p-id="3546"></path><path d="M679.069035 32.511182c8.936281 0 16.182799-7.279233 16.182799-16.256409S688.005316 0 679.069035 0c-8.937917 0-16.182799 7.279233-16.182799 16.256409s7.244882 16.254773 16.182799 16.254773z" fill="#2C2770" p-id="3547"></path><path d="M683.44639 50.391923v4.148345c1.835348-0.459655 5.506045-0.552895 5.506045 2.766109 0 4.148345-2.753022 6.914454-5.506045 5.532217-0.356601 4.310288-2.66469 12.817994-9.528435 16.364371 0.247003 3.2503 0.965112 7.915553 2.645061 11.291808 2.203399 4.424792 6.425355 6.453163 8.260703 6.914454-2.753022 3.225764-10.462466 9.678927-19.272792 9.678926s-15.60046-6.453163-17.895464-9.678926c1.377329-0.461291 4.956422-2.213214 8.259067-5.532217 2.600895-2.612345 3.098173-8.823412 2.96731-13.372524-5.720332-3.865355-7.465712-11.617329-8.473354-15.665892-1.835348 0.459655-5.506045 0.276447-5.506045-4.148345 0-4.426428 4.130351-4.609636 5.506045-4.149981v-4.148345c2.753022 0.461291 9.911208 0.278083 16.51977-4.148345 6.606927-4.424792 8.259067-6.453163 8.259067-6.912818 0 2.303182 1.010914 6.546403 2.753022 8.29669 2.753022 2.764473 4.588371 2.304818 5.506045 2.764473z" fill="#FFAE64" p-id="3548"></path><path d="M671.919029 69.322837l-6.261777 3.14561c0.446569 0.899681 1.877879 2.067629 4.025662 1.347885 2.147783-0.719744 2.386607-2.995118 2.236115-4.493495z" fill="#FFFFFF" p-id="3549"></path><path d="M658.497431 50.44754h-4.470594a1.341342 1.341342 0 0 0-1.342978 1.342978v0.009814a1.341342 1.341342 0 0 0 1.342978 1.344614h4.470594a1.341342 1.341342 0 0 0 1.342978-1.342978v-0.01145a1.341342 1.341342 0 0 0-1.342978-1.341342zM676.392895 50.44754h-4.47223a1.341342 1.341342 0 0 0-1.342978 1.342978v0.009814a1.341342 1.341342 0 0 0 1.342978 1.344614h4.47223a1.342978 1.342978 0 0 0 1.342977-1.342978v-0.01145a1.342978 1.342978 0 0 0-1.342977-1.341342z" fill="#2C2770" p-id="3550"></path><path d="M673.708575 57.926339a1.635783 1.635783 0 1 0 0-3.271566 1.635783 1.635783 0 0 0 0 3.271566z" fill="#000000" p-id="3551"></path><path d="M656.709521 57.926339a1.635783 1.635783 0 1 0 0-3.271566 1.635783 1.635783 0 0 0 0 3.271566z" fill="#000000" p-id="3552"></path><path d="M657.604294 77.861623c1.192486 0.749188 5.010403 2.69577 8.947732 2.69577 3.736128 0 7.231796-1.215387 8.342492-1.722479l0.157035-0.075246c-0.045802 0.022901-0.098147 0.049073-0.157035 0.075246l-17.736793 8.46354 0.446569-9.438467z" fill="#FF8282" p-id="3553"></path><path d="M500.719642 1004.828626l-19.303872-16.545942c-10.269444-8.802147-8.304869-35.684601-8.304869-35.684601l-27.608741-1.49347v29.846492l-4.475502 15.670799 57.455233 11.192026 2.237751-2.985304z" fill="#FFAE64" p-id="3554"></path><path d="M491.083246 1022.737176h18.446722a6.74924 6.74924 0 0 0 5.828294-3.346812c1.825534-3.130888 0.862058-7.153278-2.154326-9.162019a689.534773 689.534773 0 0 1-15.467962-10.622773c-12.685495-8.954275-17.90855-14.923246-17.908549-14.923246s-7.462441 4.477137-18.654467 4.477137-17.162633-8.208358-17.162632-8.208358a52.168383 52.168383 0 0 0-0.482556 37.495413l0.482556 1.305354 21.63977 1.49347 3.73122-2.985304 9.868678 2.82009a43.084882 43.084882 0 0 0 11.833252 1.657048z" fill="#2C2770" p-id="3555"></path><path d="M300.745201 1004.828626l19.305508-16.545942c10.267808-8.802147 8.303233-35.684601 8.303233-35.684601l27.608742-1.49347v29.846492l4.477137 15.670799-57.455233 11.192026-2.239387-2.985304z" fill="#FFAE64" p-id="3556"></path><path d="M310.383233 1022.737176h-18.446722a6.74924 6.74924 0 0 1-5.828294-3.346812c-1.825534-3.130888-0.862058-7.153278 2.154326-9.162019 3.647796-2.427502 8.970633-6.036038 15.467962-10.622773 12.685495-8.954275 17.90855-14.923246 17.908549-14.923246s7.462441 4.477137 18.654467 4.477137 17.160997-8.208358 17.160997-8.208358a52.168383 52.168383 0 0 1 0.484191 37.495413l-0.484191 1.305354-21.638135 1.49347-3.73122-2.985304-9.868677 2.82009a43.084882 43.084882 0 0 1-11.833253 1.657048zM364.751744 538.246134l6.134186-30.365035 124.610658-3.73122 7.696358 58.497226a301.008562 301.008562 0 0 1 2.244294 53.331425L488.7817 971.998466h-44.025457l-8.954275-356.669341-64.916038 356.669341h-47.009125l36.563016-342.492012-0.3337-3.564371a300.933316 300.933316 0 0 1 4.645623-87.695949z" fill="#2C2770" p-id="3557"></path><path d="M588.291272 310.021725l-36.090275 18.332217 3.966773 39.770786 37.843834-16.702977a65.428038 65.428038 0 0 0 38.310032-50.31177l12.960306-87.857892 10.431387-11.88069 8.09876-10.500089a15.242224 15.242224 0 0 0 2.797189-12.674045 10.666939 10.666939 0 0 0-5.882275-7.308677l-15.063923-7.053495 9.924294-23.934774a4.100907 4.100907 0 0 0-7.357751-3.590543l-15.214415 26.872639-4.257943-0.709929a4.907348 4.907348 0 0 0-5.188703 2.630338l-4.938428 9.791796a13.096077 13.096077 0 0 0-1.079616 8.779246l3.886619 17.17899-33.145865 109.168869z" fill="#FF9330" p-id="3558"></path><path d="M369.006415 344.505661l33.778914-8.864306h87.424409c10.536077 0 21.021444-1.454211 31.160026-4.321738l51.126389-14.458684 8.954275 45.867348-75.360511 45.711949-6.773776 27.934262 5.928076 42.052703c2.396422 16.992511-11.020268 32.079335-28.176358 31.683476l-101.148626-2.332626a13.086262 13.086262 0 0 1-12.762377-13.841994l3.302646-56.809099-11.937943 22.948396-43.184664-9.310875 15.400894-63.234454a58.883272 58.883272 0 0 1 42.268626-43.024358z" fill="#54B7FF" p-id="3559"></path><path d="M402.785329 335.641355l-33.778914 8.864306a58.883272 58.883272 0 0 0-42.268626 43.024358l-15.400894 63.234454 43.184664 9.310875 11.937943-22.948396-53.617687 329.796703a8.178914 8.178914 0 0 0 7.868115 9.489176l39.625201 0.988012L410.138173 592.971246V346.785942h43.348242l9.814697 246.185304 27.718338 187.686441 40.524882 1.010914a8.178914 8.178914 0 0 0 8.324499-9.155476l-40.55269-336.138633 6.773776-27.934262 75.360511-45.711949-8.954275-45.867348-51.126389 14.458684a114.491706 114.491706 0 0 1-31.160026 4.321738h-87.424409z" fill="#FFE071" p-id="3560"></path><path d="M403.019246 328.165827c3.072-7.675093 2.56-32.622415 1.920409-44.13669 14.085725 2.56 41.679744 12.09007 39.374926 29.745074-2.304818 17.653367 4.161431 22.068345 7.683272 22.068345 3.840818 8.314684 6.337022 25.905891-14.406339 29.743438-20.743361 3.837546-38.094109-14.393252-44.175949-23.987119 1.920409-1.279182 6.530045-5.756319 9.603681-13.433048z" fill="#FF9330" p-id="3561"></path><path d="M447.188652 329.317419c-31.073329-3.377891-41.094134-29.555323-42.221189-42.221189l42.221189 23.643604c12.94722 7.599847 31.074965 21.955476 0 18.577585z" fill="#D76767" p-id="3562"></path><path d="M405.783719 286.649661c-0.624869 10.518083 12.199668 29.640383 35.6617 28.685087 13.696409-0.557802 17.156089-16.21715 20.645214-33.46648 2.488026-12.297815 7.192537-25.40207 5.630364-34.423412l-20.645214-6.691987c2.815182 3.82446 1.890965 2.97876-7.493521 2.97876-9.286339 0-12.916141-5.309751-16.357827-8.178913-1.876243 11.475016-16.357827-0.538173-16.357828 5.200153 0 4.588371 3.271565 34.642607 3.271566 38.148089-3.271565 0-1.573623-10.632588-4.354454-12.332166-3.127617-1.91223-9.38285-3.2503-9.38285 6.693623s6.255233 13.068268 9.38285 13.387246z" fill="#FF9330" p-id="3563"></path><path d="M406.866607 278.900958s1.635783-13.086262-3.271565-13.086262c-10.34469 0-6.543131 12.268371-6.543131 12.268371-9.541521-17.99361-6.543131-51.527157 21.265175-59.70607 41.970914-12.343617 61.341853 26.646901 49.073483 28.626198-25.354633 4.089457-44.166134-8.178914-47.4377-5.72524s-6.543131 25.354633-8.178914 33.533547c-1.308626 6.543131-3.544741 5.998415-4.907348 4.089456z" fill="#2C2770" p-id="3564"></path><path d="M434.387016 291.424511l10.446109 5.223054c-0.745917 1.491834-3.13416 3.431872-6.714889 2.237751-3.582364-1.194121-3.979859-4.974415-3.73122-7.460805z" fill="#FFFFFF" p-id="3565"></path><path d="M456.772703 260.08455h7.462441a2.239387 2.239387 0 0 1 0 4.477137h-7.462441a2.241022 2.241022 0 0 1 0-4.477137zM426.926211 260.08455h7.460805a2.239387 2.239387 0 1 1 0 4.477137h-7.460805a2.241022 2.241022 0 0 1 0-4.477137z" fill="#2C2770" p-id="3566"></path><path d="M431.401712 273.658275a2.236115 2.236115 0 1 1-0.001635-4.473866 2.236115 2.236115 0 0 1 0.001635 4.473866z" fill="#000000" p-id="3567"></path><path d="M456.484805 273.658275a2.237751 2.237751 0 1 1-0.003271-4.475502 2.237751 2.237751 0 0 1 0.003271 4.475502z" fill="#000000" p-id="3568"></path><path d="M570.819476 424.421827l-83.478901 11.669675a3.271565 3.271565 0 0 0-2.607438 2.082351l-22.792996 60.281866c-0.87678 2.316268 1.040358 4.729048 3.495667 4.39862l82.531783-11.087336a3.273201 3.273201 0 0 0 2.576358-1.964575l25.356268-59.786224a3.271565 3.271565 0 0 0-1.197393-3.999488l-1.616153-1.076345a3.268294 3.268294 0 0 0-2.267195-0.518544z" fill="#2C2770" p-id="3569"></path><path d="M572.579578 427.888051l-79.086824 11.070978a8.178914 8.178914 0 0 0-6.516958 5.206696l-18.855668 49.866837c-2.190313 5.792307 2.60253 11.823438 8.739987 10.999003l71.54423-9.611859a8.18055 8.18055 0 0 0 6.4777-4.998952l22.917316-55.808c1.439489-3.505482-1.467297-7.249789-5.219783-6.724703z" fill="#6B8CFF" p-id="3570"></path><path d="M527.73623 472.827911c3.608537-2.720307 4.549112-7.555681 2.101981-10.80271-2.447131-3.245393-7.354479-3.673968-10.963016-0.955297-3.606901 2.718671-4.547476 7.555681-2.100345 10.801074 2.447131 3.247029 7.354479 3.675604 10.96138 0.956933z" fill="#2C2770" p-id="3571"></path><path d="M440.212038 473.474045L352.067885 459.654952l-40.076677-8.996805-4.15816 21.324064c-2.950952 15.122812 8.604217 29.188907 24.011655 29.233073l101.809482 0.29117 10.060064 5.780856c0.297712 0.170121 0.608511 0.317342 0.929125 0.440025l13.766747 5.249227c0.161942 0.060524 0.327157 0.109597 0.494007 0.145585l22.837163 4.866454a3.081815 3.081815 0 0 0 1.36915-6.00823l-15.672435-3.804831h24.368256a2.535463 2.535463 0 0 0 0.242096-5.062748l-19.542697-1.876242 28.820857-2.545278a3.026198 3.026198 0 0 0-0.086697-6.034403l-26.031847-1.545815 24.25048-3.822824a3.770479 3.770479 0 0 0-0.48092-7.491885l-31.539528-0.894773 2.376793-1.490198 4.907348-13.086262-14.748217 2.465124a13.11407 13.11407 0 0 0-2.146147 0.549623l-17.615745 6.134186z" fill="#FF9330" p-id="3572"></path><path d="M327.765061 556.058173c12.104792-14.308192 42.669393-9.054058 53.750185-3.484218-29.270696 53.264358-55.093163 15.649534-64.06216 70.428626-3.837546 23.445674-32.452294 1.148319-30.252166 42.293163 1.908958 35.699323-22.557444 38.794224-25.411885 58.035937-2.854441 19.240077-10.580243 35.578275-27.206339 41.179194-24.296281 8.182185-42.963834-21.39931-24.615258-35.310006 18.348575-13.909061-17.391642-34.511744 10.740549-50.962811 28.133827-16.451067-2.021827-54.545176 33.423949-64.394224 35.445776-9.850684 22.410224-30.844319 33.863975-41.894032 11.453751-11.048077 24.636524 1.994019 39.76915-15.891629z" fill="#6B8CFF" p-id="3573"></path><path d="M201.525163 444.803681c6.158722-20.319693 34.748933-17.99361 47.017303-8.996806-17.175719 15.539936-42.993278 14.944511-27.891731 76.173496 6.462978 26.20524-29.42446 15.279847-8.834863 57.306377 17.864383 36.466505-10.596601 50.437725-4.985866 71.810862 5.609099 21.374773 9.407387 41.578326-5.304843 54.798722-21.500728 19.32023-46.876626-5.137994-34.079898-27.808306 12.796728-22.668677-28.897738-26.772856-7.107476-56.434505 21.790262-29.661649-25.187783-50.059859 7.107476-76.063898 32.296895-26.002403-1.902415-38.992153 5.033304-55.616613 6.934083-16.622824 21.346965-9.768895 29.046594-35.169329z" fill="#1BE3B3" p-id="3574"></path><path d="M46.00639 557.42078c-11.070978-11.528997-36.850914-5.440613-46.00639-0.117777 27.744511 43.752281 47.787757 10.392128 58.304204 56.509751 4.500038 19.737355 27.726518-0.742645 28.006237 34.367796 0.245367 30.464818 21.26354 31.801252 24.705227 48.015131 3.440051 16.212243 10.882863 29.700907 25.351361 33.582619 21.140856 5.672895 35.504665-20.476728 19.133751-31.335054-16.370914-10.858326 13.017559-30.275067-11.82671-42.777355-24.84754-12.502288-1.135233-46.49876-31.868319-52.997725-30.734722-6.500601-20.722096-25.047105-31.06515-33.837802-10.343054-8.790696-20.897125 3.000026-34.735847-11.409584z" fill="#54B7FF" p-id="3575"></path><path d="M134.85393 777.68547h98.1486l25.307195 189.808051c3.922607 29.419553-18.963629 55.559361-48.643271 55.559361H158.190006c-29.678006 0-52.564243-26.139808-48.641635-55.559361l25.305559-189.808051z" fill="#A3BAFF" p-id="3576"></path><path d="M246.088792 777.68547h-125.955271v17.99361h125.955271v-17.99361z" fill="#CCD9FF" p-id="3577"></path><path d="M1454.866812 1015.114428a5.64345 5.64345 0 0 0 5.618913-6.168537L1433.977866 724.651757l-16.264588 1.747016 31.544434 283.695438a5.64345 5.64345 0 0 0 5.6091 5.020217zM1407.429112 1015.114428a5.64345 5.64345 0 0 0 5.618914-6.168537L1386.540166 724.651757l-16.264588 1.747016 31.544435 283.695438a5.64345 5.64345 0 0 0 5.609099 5.020217zM1265.237061 1015.114428a5.64345 5.64345 0 0 1-5.618914-6.168537L1286.126006 724.651757l16.264588 1.747016-31.544434 283.695438a5.64345 5.64345 0 0 1-5.609099 5.020217z" fill="#627AC1" p-id="3578"></path><path d="M1261.496026 705.022364h178.300319a13.086262 13.086262 0 0 1 0 26.172524h-178.300319a13.086262 13.086262 0 0 1 0-26.172524z" fill="#A3BAFF" p-id="3579"></path><path d="M1209.659706 1004.455668l19.303872-16.545943c10.269444-8.802147 8.304869-35.684601 8.304869-35.6846l27.608741-1.49347v29.846492l4.477138 15.670799-57.455233 11.192025-2.239387-2.985303z" fill="#FFAE64" p-id="3580"></path><path d="M1215.47655 1005.603987l50.892472-13.086262a14.787476 14.787476 0 0 1 3.974952 16.128818l-3.974952 10.732371-21.638134 1.493469-1.493469-5.223054-11.025176 4.133623a40.506888 40.506888 0 0 1-14.232946 2.581265h-17.201891a6.618377 6.618377 0 0 1-3.382799-12.309265l21.965291-13.060089-5.913355 4.300472a2.425866 2.425866 0 0 0 2.030007 4.308652z" fill="#2C2770" p-id="3581"></path><path d="M1296.356192 1005.082173L1315.660064 988.53623c10.269444-8.802147 8.304869-35.684601 8.304869-35.684601l27.607105-1.493469v29.846492l4.477138 15.670798-57.455234 11.192026-2.23775-2.985303z" fill="#FFAE64" p-id="3582"></path><path d="M1302.173035 1006.230492l50.890837-13.086262a14.787476 14.787476 0 0 1 3.974952 16.128818l-3.974952 10.734006-21.638134 1.491834-1.491834-5.223054-11.026811 4.133623a40.503617 40.503617 0 0 1-14.23131 2.581265h-17.203527a6.618377 6.618377 0 0 1-3.382799-12.309265l21.966926-13.06009-5.913354 4.300473a2.422594 2.422594 0 0 0 2.030006 4.308652zM1315.571732 973.14515h40.865124V754.095847l52.763809-27.27177c29.974083-15.492498 44.339527-50.396831 33.955578-82.500703l-122.706607-2.278646-102.028678 65.110697a40.894569 40.894569 0 0 0-18.464715 40.389112l32.980652 225.600613h36.805111l2.453675-215.777738 12.273277-6.428626a32.833431 32.833431 0 0 0 0.294441 6.11292l30.808333 216.093444z" fill="#2C2770" p-id="3583"></path><path d="M1507.696051 552.227169l-34.058632-16.190977-27.078748 25.555834 31.685112 17.231335a65.426403 65.426403 0 0 0 63.234453-0.395859l70.02786-39.224435 14.699144 0.934032h12.358338c4.220319 0 8.244345-1.887693 10.943387-5.147808a10.019169 10.019169 0 0 0 2.044728-8.499527l-3.369712-15.124448 23.293546-6.297763a3.831003 3.831003 0 0 0 2.502748-5.241048 3.831003 3.831003 0 0 0-4.040384-2.229572l-28.478977 4.068192-1.783003-3.328818a4.904077 4.904077 0 0 0-5.250863-2.501112l-9.474454 1.822262a13.079719 13.079719 0 0 0-7.611297 4.508217l-10.254722 12.39269-99.388524 37.668805z" fill="#FFAE64" p-id="3584"></path><path d="M1240.796831 476.418454l36.12299 10.830517 2.947681 37.119182-35.059732-8.468447a65.436217 65.436217 0 0 1-46.641074-42.702109L1172.529073 397.135335l-11.528996-9.163654-9.163655-8.28524a14.203502 14.203502 0 0 1-4.663617-11.156038 9.939016 9.939016 0 0 1 4.182697-7.675093l12.642964-8.960818-13.061725-20.298428a3.821188 3.821188 0 0 1 6.150543-4.511489l18.397649 22.119054 3.55292-1.274274a4.907348 4.907348 0 0 1 5.574748 1.666862l5.807028 7.706173a13.094441 13.094441 0 0 1 2.62216 8.448818l-0.705022 16.071565 48.460064 94.595681z" fill="#FFAE64" p-id="3585"></path><path d="M1438.49099 497.132371l-30.693827-10.941751c-9.12276 0-32.843246-0.461291-54.738198-2.303182-21.894952-1.843527-61.579042 0-93.509521-4.608l-6.842479 41.467092c13.683323 6.911182 34.21076 13.822364 61.579041 18.430365-9.12276 27.644728-3.04092 32.251093 4.562198 41.465456l6.84248 29.949547L1309.11039 649.405751h135.177814l-13.994121-42.530352 8.208358-47.009124 28.593482 18.472894 27.369917-34.55591-41.565239-37.984511a42.556524 42.556524 0 0 0-14.409611-8.666377z" fill="#6B8CFF" p-id="3586"></path><path d="M1337.656435 391.483706c1.836984-14.694236 16.071565-16.837112 22.959846-16.071565 3.826096-2.296639 11.479923-11.479923 27.551489-9.184921 16.073201 2.296639 34.441406 11.479923 29.849764 32.144767 0 0 10.714377 26.022032 13.774926 36.736409 9.18492 22.959847-4.104179 39.613751-22.959847 41.328051-25.256486 2.295003-13.776562 0-52.807974 4.591642-39.033048 4.591642-41.328051-27.551489-32.144767-48.216332 9.18492-20.663208 11.479923-22.959847 13.776563-41.328051z" fill="#2C2770" p-id="3587"></path><path d="M1349.136358 407.555272v6.888281c-3.062185-0.765546-9.18492-0.917674-9.18492 4.591642 0 6.888281 4.593278 11.481559 9.18492 9.18492 0.595425 7.15655 4.446058 21.283169 15.893265 27.171987-0.410581 5.396447-1.60961 13.141879-4.413342 18.747706-3.673968 7.347936-10.714377 10.714377-13.776562 11.479924 4.591642 5.357188 17.45053 16.073201 32.144767 16.073201s26.022032-10.716013 29.848127-16.073201c-2.296639-0.765546-8.26561-3.672332-13.776562-9.183285-4.338096-4.338096-5.165802-14.651706-4.948243-22.204115 9.541521-6.418812 12.451578-19.290786 14.133163-26.012217 3.06055 0.765546 9.183284 0.459655 9.183285-6.888281s-6.888281-7.653827-9.183285-6.888281v-6.888281c-4.593278 0.765546-16.53122 0.459655-27.553124-6.888282-11.020268-7.3463-13.774927-10.714377-13.774927-11.479923 0 3.827732-1.688128 10.873048-4.593278 13.776562-4.591642 4.591642-7.652192 3.826096-9.183284 4.591643z" fill="#FFAE64" p-id="3588"></path><path d="M1368.361712 438.986837l10.447745 5.223054c-0.747553 1.491834-3.13416 3.431872-6.716524 2.237751-3.580728-1.192486-3.979859-4.974415-3.731221-7.460805z" fill="#FFFFFF" p-id="3589"></path><path d="M1390.747399 407.646875h7.460805a2.241022 2.241022 0 0 1 0 4.477138h-7.460805a2.237751 2.237751 0 1 1 0-4.477138zM1360.900907 407.646875h7.460805a2.241022 2.241022 0 0 1 0 4.477138h-7.460805a2.237751 2.237751 0 1 1 0-4.477138z" fill="#2C2770" p-id="3590"></path><path d="M1365.378045 419.586454a2.237751 2.237751 0 1 1 0-4.475502 2.237751 2.237751 0 0 1 0 4.475502z" fill="#000000" p-id="3591"></path><path d="M1393.732703 419.586454a2.237751 2.237751 0 1 1 0-4.475502 2.237751 2.237751 0 0 1 0 4.475502z" fill="#000000" p-id="3592"></path><path d="M1392.239233 453.164166c-1.989112 1.243195-8.357214 4.477137-14.923246 4.477138-6.232332 0-12.062262-2.01692-13.913968-2.860985l-0.263361-0.124319c0.076882 0.037623 0.163578 0.080153 0.263361 0.124319l29.584767 14.05301-0.747553-15.669163z" fill="#FF8282" p-id="3593"></path></svg>