<svg width="264" height="231" viewBox="0 0 264 231" fill="none" xmlns="http://www.w3.org/2000/svg">
<path fill-rule="evenodd" clip-rule="evenodd" d="M238.712 126.39C238.712 183.611 192.208 230 134.843 230C77.4785 230 30.9751 183.611 30.9751 126.39C30.9751 69.1686 77.4785 22.7803 134.843 22.7803C192.208 22.7803 238.712 69.1686 238.712 126.39Z" stroke="#E9EAEC" stroke-dasharray="5.02 5.02"/>
<path fill-rule="evenodd" clip-rule="evenodd" d="M211.977 126.39C211.977 168.883 177.443 203.331 134.843 203.331C92.243 203.331 57.7107 168.883 57.7107 126.39C57.7107 83.8968 92.243 49.4487 134.843 49.4487C177.443 49.4487 211.977 83.8968 211.977 126.39Z" stroke="#E9EAEC" stroke-dasharray="5.05 5.05"/>
<path d="M11.3528 140.34L9.42432 140.281" stroke="#D2D8DF" stroke-linecap="round"/>
<path d="M9.96923 136.693L8.58618 137.982" stroke="#D2D8DF" stroke-linecap="round"/>
<path d="M6.36447 135.027L6.33545 136.908" stroke="#D2D8DF" stroke-linecap="round"/>
<path d="M2.64917 136.318L3.99219 137.69" stroke="#D2D8DF" stroke-linecap="round"/>
<path d="M1 139.811L2.92747 139.87" stroke="#D2D8DF" stroke-linecap="round"/>
<path d="M2.38306 143.458L3.76711 142.169" stroke="#D2D8DF" stroke-linecap="round"/>
<path d="M5.98828 145.124L6.0173 143.244" stroke="#D2D8DF" stroke-linecap="round"/>
<path d="M9.70337 143.833L8.36035 142.461" stroke="#D2D8DF" stroke-linecap="round"/>
<path d="M262.847 113.527L261.999 114.442" stroke="#D2D8DF" stroke-linecap="round"/>
<path d="M258.867 114.322L259.507 114.91" stroke="#D2D8DF" stroke-linecap="round"/>
<path d="M258.222 118.379L259.07 117.463" stroke="#D2D8DF" stroke-linecap="round"/>
<path d="M262.201 117.584L261.562 116.996" stroke="#D2D8DF" stroke-linecap="round"/>
<path d="M185.211 5.93821L183.16 5.8833" stroke="#D2D8DF" stroke-linecap="round"/>
<path d="M179.905 1L179.874 2.74796" stroke="#D2D8DF" stroke-linecap="round"/>
<path d="M174.198 5.44629L176.249 5.5002" stroke="#D2D8DF" stroke-linecap="round"/>
<path d="M179.504 10.3842L179.535 8.63623" stroke="#D2D8DF" stroke-linecap="round"/>
<path fill-rule="evenodd" clip-rule="evenodd" d="M33.3616 194.669C31.8865 195.11 29.4296 197.272 28.589 199.835C28.4479 197.454 26.9317 194.46 25.2634 194.029C27.299 193.311 29.5037 190.672 30.0901 188.449C29.984 190.779 32.1046 194.162 33.3616 194.669Z" fill="#EBECEF"/>
<path fill-rule="evenodd" clip-rule="evenodd" d="M67.9104 15.3007C66.7725 15.5014 64.756 16.8989 63.9073 18.7357C64.0084 16.9499 63.1388 14.589 61.9338 14.1238C63.512 13.7644 65.3835 11.9895 66.0129 10.3843C65.7317 12.1113 67.0177 14.8146 67.9104 15.3007Z" fill="#EBECEF"/>
<path fill-rule="evenodd" clip-rule="evenodd" d="M218.725 28.2694C217.205 28.2364 216 26.9816 216.034 25.4662C216.067 23.9509 217.325 22.749 218.844 22.7819C220.364 22.8149 221.569 24.0697 221.536 25.585C221.502 27.1004 220.245 28.3023 218.725 28.2694Z" fill="#D1D9E0"/>
<path fill-rule="evenodd" clip-rule="evenodd" d="M218.732 208.109C217.41 208.081 216.361 206.988 216.389 205.669C216.417 204.349 217.513 203.303 218.836 203.331C220.159 203.36 221.208 204.452 221.179 205.772C221.15 207.091 220.055 208.138 218.732 208.109Z" fill="#EBECEF"/>
<path fill-rule="evenodd" clip-rule="evenodd" d="M19.8367 64.6926C19.0181 64.6746 18.3686 63.9988 18.3866 63.1812C18.4036 62.3646 19.0821 61.7177 19.9007 61.7347C20.7194 61.7527 21.3689 62.4285 21.3519 63.2451C21.3338 64.0627 20.6553 64.7105 19.8367 64.6926Z" stroke="#D2D8DF" stroke-linecap="round"/>
<path fill-rule="evenodd" clip-rule="evenodd" d="M121.662 64.0454L60.1792 84.9945V161.536L120.966 140.587L121.662 64.0454Z" fill="url(#paint0_linear_844_11295)"/>
<path fill-rule="evenodd" clip-rule="evenodd" d="M121.413 64.0454L202.948 82.907V159.449L121.413 140.587V64.0454Z" fill="url(#paint1_linear_844_11295)"/>
<g filter="url(#filter0_d_844_11295)">
<path fill-rule="evenodd" clip-rule="evenodd" d="M118.888 67.7272C118.888 67.7272 136.837 75.2288 136.909 81.161C136.974 86.4669 123.417 93.3747 119.163 90.2034C114.406 86.6578 118.888 67.7272 118.888 67.7272Z" fill="#FEBC34"/>
<path fill-rule="evenodd" clip-rule="evenodd" d="M121.492 72.8388C121.492 72.8388 130.759 76.7115 130.796 79.774C130.83 82.5133 123.831 86.0795 121.634 84.4423C119.179 82.6118 121.492 72.8388 121.492 72.8388Z" fill="#E5A92F"/>
<path fill-rule="evenodd" clip-rule="evenodd" d="M163.432 67.7272C163.432 67.7272 145.482 75.2288 145.41 81.161C145.345 86.4669 158.902 93.3747 163.156 90.2034C167.913 86.6578 163.432 67.7272 163.432 67.7272Z" fill="#FEBC34"/>
<path fill-rule="evenodd" clip-rule="evenodd" d="M160.993 72.8388C160.993 72.8388 151.727 76.7115 151.689 79.774C151.656 82.5133 158.655 86.0795 160.851 84.4423C163.307 82.6118 160.993 72.8388 160.993 72.8388Z" fill="#E5A92F"/>
<ellipse cx="141.432" cy="98.5466" rx="29.6889" ry="21.1448" fill="#FFEAC0"/>
<path d="M132.876 84.6697C132.952 83.9418 133.163 81.9379 133.163 81.9379" stroke="white" stroke-width="1.46625" stroke-linecap="round"/>
<path d="M129.732 84.9028C129.653 84.4016 129.295 82.1396 129.295 82.1396" stroke="white" stroke-width="1.46625" stroke-linecap="round"/>
<path d="M149.536 84.6834C149.46 83.9555 149.249 81.9516 149.249 81.9516" stroke="white" stroke-width="1.46625" stroke-linecap="round"/>
<path d="M152.68 84.916C152.759 84.4148 153.117 82.1528 153.117 82.1528" stroke="white" stroke-width="1.46625" stroke-linecap="round"/>
<path fill-rule="evenodd" clip-rule="evenodd" d="M133.806 78.7612C133.806 78.7612 136.946 76.0941 141.738 74.4123C140.412 75.7022 139.12 76.4972 139.022 79.1564C138.924 81.8156 133.806 78.7612 133.806 78.7612Z" fill="#FFEAC0"/>
<path fill-rule="evenodd" clip-rule="evenodd" d="M137.981 77.3826C137.981 77.3826 141.818 75.883 146.896 75.8529C145.223 76.6409 143.743 76.9721 142.784 79.4544C141.825 81.9367 137.981 77.3826 137.981 77.3826Z" fill="#FFEAC0"/>
<path fill-rule="evenodd" clip-rule="evenodd" d="M118.648 88.6968C118.648 88.6968 115.104 90.7971 111.954 94.7804C113.605 93.9469 114.777 92.9844 117.324 93.7572C119.87 94.53 118.648 88.6968 118.648 88.6968Z" fill="#FFF5E1"/>
<path fill-rule="evenodd" clip-rule="evenodd" d="M117.014 92.4775C117.014 92.4775 113.47 94.5779 110.32 98.5611C111.971 97.7277 113.143 96.7652 115.689 97.538C118.236 98.3108 117.014 92.4775 117.014 92.4775Z" fill="#FFF5E1"/>
<path fill-rule="evenodd" clip-rule="evenodd" d="M117.769 94.9445C117.769 94.9445 111.007 97.5317 110.055 104.055C111.881 101.543 113.169 100.561 117.174 100.763C121.179 100.964 117.769 94.9445 117.769 94.9445Z" fill="#FFF5E1"/>
<path fill-rule="evenodd" clip-rule="evenodd" d="M112.76 100.829C112.76 100.829 110.496 104.27 109.411 109.232C110.529 107.759 111.161 106.38 113.788 105.958C116.416 105.536 112.76 100.829 112.76 100.829Z" fill="#FFF5E1"/>
<path fill-rule="evenodd" clip-rule="evenodd" d="M112.949 104.943C112.949 104.943 110.685 108.385 109.599 113.346C110.718 111.873 111.35 110.494 113.977 110.072C116.604 109.651 112.949 104.943 112.949 104.943Z" fill="#FFF5E1"/>
<path fill-rule="evenodd" clip-rule="evenodd" d="M114.71 106.83C114.71 106.83 109.766 112.12 111.77 118.4C112.31 115.342 113.037 113.894 116.725 112.32C120.413 110.746 114.71 106.83 114.71 106.83Z" fill="#FFF5E1"/>
<path fill-rule="evenodd" clip-rule="evenodd" d="M121.64 102.746C121.64 102.746 121.185 106.841 122.47 111.754C122.798 109.934 122.735 108.418 124.885 106.85C127.034 105.281 121.64 102.746 121.64 102.746Z" fill="#FFF5E1"/>
<path fill-rule="evenodd" clip-rule="evenodd" d="M123.676 106.327C123.676 106.327 123.221 110.421 124.506 115.334C124.834 113.514 124.771 111.998 126.921 110.43C129.07 108.861 123.676 106.327 123.676 106.327Z" fill="#FFF5E1"/>
<path fill-rule="evenodd" clip-rule="evenodd" d="M126.101 107.208C126.101 107.208 124.098 114.165 128.735 118.851C127.827 115.881 127.818 114.261 130.39 111.184C132.961 108.107 126.101 107.208 126.101 107.208Z" fill="#FFF5E1"/>
<path fill-rule="evenodd" clip-rule="evenodd" d="M127.347 113.324C127.347 113.324 128.933 117.126 132.439 120.8C131.844 119.049 131.054 117.754 132.174 115.34C133.293 112.926 127.347 113.324 127.347 113.324Z" fill="#FFF5E1"/>
<path fill-rule="evenodd" clip-rule="evenodd" d="M130.863 115.469C130.863 115.469 132.45 119.271 135.956 122.945C135.36 121.194 134.571 119.899 135.69 117.485C136.81 115.071 130.863 115.469 130.863 115.469Z" fill="#FFF5E1"/>
<path fill-rule="evenodd" clip-rule="evenodd" d="M133.412 115.065C133.412 115.065 135.033 122.121 141.36 123.972C139.126 121.814 138.333 120.401 139.09 116.464C139.847 112.526 133.412 115.065 133.412 115.065Z" fill="#FFF5E1"/>
<path fill-rule="evenodd" clip-rule="evenodd" d="M163.84 88.6968C163.84 88.6968 167.384 90.7971 170.534 94.7804C168.883 93.9469 167.71 92.9844 165.164 93.7572C162.618 94.53 163.84 88.6968 163.84 88.6968Z" fill="#FFF5E1"/>
<path fill-rule="evenodd" clip-rule="evenodd" d="M165.474 92.4775C165.474 92.4775 169.018 94.5779 172.168 98.5611C170.517 97.7277 169.345 96.7652 166.798 97.538C164.252 98.3108 165.474 92.4775 165.474 92.4775Z" fill="#FFF5E1"/>
<path fill-rule="evenodd" clip-rule="evenodd" d="M164.718 94.9445C164.718 94.9445 171.481 97.5317 172.433 104.055C170.607 101.543 169.318 100.561 165.314 100.763C161.309 100.964 164.718 94.9445 164.718 94.9445Z" fill="#FFF5E1"/>
<path fill-rule="evenodd" clip-rule="evenodd" d="M169.727 100.829C169.727 100.829 171.992 104.27 173.077 109.232C171.959 107.759 171.327 106.38 168.699 105.958C166.072 105.536 169.727 100.829 169.727 100.829Z" fill="#FFF5E1"/>
<path fill-rule="evenodd" clip-rule="evenodd" d="M169.539 104.943C169.539 104.943 171.803 108.385 172.889 113.346C171.77 111.873 171.138 110.494 168.511 110.072C165.883 109.651 169.539 104.943 169.539 104.943Z" fill="#FFF5E1"/>
<path fill-rule="evenodd" clip-rule="evenodd" d="M167.778 106.83C167.778 106.83 172.722 112.12 170.718 118.4C170.178 115.342 169.45 113.894 165.763 112.32C162.075 110.746 167.778 106.83 167.778 106.83Z" fill="#FFF5E1"/>
<path fill-rule="evenodd" clip-rule="evenodd" d="M163.347 102.746C163.347 102.746 163.803 106.841 162.517 111.754C162.189 109.934 162.252 108.418 160.103 106.85C157.953 105.281 163.347 102.746 163.347 102.746Z" fill="#FFF5E1"/>
<path fill-rule="evenodd" clip-rule="evenodd" d="M161.311 106.327C161.311 106.327 161.767 110.421 160.482 115.334C160.153 113.514 160.217 111.998 158.067 110.43C155.917 108.861 161.311 106.327 161.311 106.327Z" fill="#FFF5E1"/>
<path fill-rule="evenodd" clip-rule="evenodd" d="M158.886 107.208C158.886 107.208 160.89 114.165 156.253 118.851C157.16 115.881 157.169 114.261 154.598 111.184C152.027 108.107 158.886 107.208 158.886 107.208Z" fill="#FFF5E1"/>
<path fill-rule="evenodd" clip-rule="evenodd" d="M157.642 113.322C157.642 113.322 156.055 117.124 152.549 120.798C153.144 119.047 153.934 117.752 152.815 115.338C151.695 112.924 157.642 113.322 157.642 113.322Z" fill="#FFF5E1"/>
<path fill-rule="evenodd" clip-rule="evenodd" d="M154.125 115.467C154.125 115.467 152.538 119.269 149.032 122.943C149.628 121.192 150.418 119.897 149.298 117.483C148.178 115.069 154.125 115.467 154.125 115.467Z" fill="#FFF5E1"/>
<path fill-rule="evenodd" clip-rule="evenodd" d="M151.577 115.063C151.577 115.063 149.956 122.119 143.628 123.97C145.862 121.812 146.655 120.399 145.898 116.462C145.141 112.524 151.577 115.063 151.577 115.063Z" fill="#FFF5E1"/>
<path d="M137.536 92.7099C137.536 95.636 135.142 98.0213 132.172 98.0213C129.202 98.0213 126.807 95.636 126.807 92.7099C126.807 89.7837 129.202 87.3985 132.172 87.3985C135.142 87.3985 137.536 89.7837 137.536 92.7099Z" fill="white" stroke="#E5A92F" stroke-width="1.8"/>
<path d="M130.265 94.0276C130.718 91.9275 133.953 91.8927 134.541 94.0276" stroke="#767676" stroke-width="1.56" stroke-linecap="round"/>
<path d="M156.058 92.7099C156.058 95.636 153.663 98.0213 150.693 98.0213C147.723 98.0213 145.329 95.636 145.329 92.7099C145.329 89.7837 147.723 87.3985 150.693 87.3985C153.663 87.3985 156.058 89.7837 156.058 92.7099Z" fill="white" stroke="#E5A92F" stroke-width="1.8"/>
<path d="M148.787 94.0276C149.24 91.9275 152.475 91.8927 153.063 94.0276" stroke="#767676" stroke-width="1.56" stroke-linecap="round"/>
<ellipse cx="139.383" cy="100.742" rx="1.73501" ry="1.50907" fill="white"/>
<ellipse cx="1.73501" cy="1.50907" rx="1.73501" ry="1.50907" transform="matrix(-1 0 0 1 145.342 99.2334)" fill="white"/>
<path d="M145.365 101.274C144.4 102.639 141.457 102.216 141.587 99.4165" stroke="#E08063" stroke-width="1.404" stroke-linecap="round"/>
<path d="M137.661 101.274C138.626 102.639 141.569 102.216 141.439 99.4165" stroke="#E08063" stroke-width="1.404" stroke-linecap="round"/>
<path d="M139.962 99.2445H142.916" stroke="#78625B" stroke-width="1.404" stroke-linecap="round"/>
<path d="M132.682 101.737C130.932 101.737 123.034 101.737 123.034 101.737" stroke="white" stroke-width="1.38" stroke-linecap="round"/>
<path d="M132.562 103.837C131.527 104.057 126.855 105.05 126.855 105.05" stroke="white" stroke-width="1.38" stroke-linecap="round"/>
<path d="M150.728 101.737C152.478 101.737 160.375 101.737 160.375 101.737" stroke="white" stroke-width="1.38" stroke-linecap="round"/>
<path d="M150.848 103.837C151.883 104.057 156.555 105.05 156.555 105.05" stroke="white" stroke-width="1.38" stroke-linecap="round"/>
</g>
<path fill-rule="evenodd" clip-rule="evenodd" d="M60.1792 84.9204L141.714 103.782V183.803L60.1792 161.462V84.9204Z" fill="#DEEAF4"/>
<g style="mix-blend-mode:multiply" opacity="0.133718" filter="url(#filter1_d_844_11295)">
<path fill-rule="evenodd" clip-rule="evenodd" d="M60.1792 84.9204L141.714 103.782V183.803L60.1792 161.462V84.9204Z" fill="url(#paint2_linear_844_11295)"/>
</g>
<path opacity="0.2" fill-rule="evenodd" clip-rule="evenodd" d="M80.8359 150.277L73.0669 148.182V145.87L78.6927 131.537L82.826 130.029L76.9705 146.531L80.8359 147.185V140.645L84.7395 140.476V147.845L86.6148 148.162V151.836L84.7395 151.33V155.178L80.8359 153.692V150.277Z" fill="url(#paint3_linear_844_11295)"/>
<path opacity="0.2" fill-rule="evenodd" clip-rule="evenodd" d="M119.107 160.873L111.338 158.989V156.54L116.963 141.681L121.097 140.327L115.241 157.133L119.107 157.721V151.057L123.01 150.905V158.315L124.886 158.6V162.273L123.01 161.819V165.688L119.107 164.352V160.873Z" fill="url(#paint4_linear_844_11295)"/>
<path opacity="0.2" fill-rule="evenodd" clip-rule="evenodd" d="M93.9337 140.398C93.9818 139.571 94.1837 138.829 94.5396 138.17C94.8955 137.506 95.3543 136.926 95.9161 136.429C96.4778 135.927 97.1161 135.528 97.8308 135.233C98.5455 134.935 99.285 134.759 100.049 134.708C100.814 134.657 101.539 134.738 102.226 134.954C102.913 135.173 103.51 135.519 104.018 135.993C104.527 136.472 104.921 137.061 105.203 137.76C105.484 138.462 105.6 139.273 105.552 140.189L104.715 156.033C104.667 156.935 104.465 157.716 104.109 158.371C103.753 159.022 103.294 159.554 102.732 159.965C102.171 160.372 101.533 160.645 100.818 160.786C100.103 160.924 99.3636 160.929 98.5992 160.803C97.8348 160.677 97.1093 160.434 96.4227 160.076C95.736 159.722 95.1385 159.275 94.6302 158.736C94.1218 158.201 93.7271 157.595 93.446 156.917C93.1649 156.242 93.0484 155.5 93.0965 154.686L93.9337 140.398ZM96.9948 155.125C96.9654 155.641 97.1194 156.09 97.4567 156.475C97.7941 156.862 98.243 157.094 98.8036 157.168C99.3641 157.242 99.8324 157.129 100.208 156.826C100.585 156.521 100.787 156.101 100.817 155.568L101.654 140.246C101.683 139.705 101.529 139.26 101.192 138.913C100.855 138.568 100.406 138.406 99.8451 138.425C99.2845 138.445 98.8162 138.635 98.4402 138.994C98.0641 139.352 97.8614 139.791 97.832 140.315L96.9948 155.125Z" fill="url(#paint5_linear_844_11295)"/>
<path fill-rule="evenodd" clip-rule="evenodd" d="M203.77 82.8325L141.592 103.782V183.803L203.074 159.374L203.77 82.8325Z" fill="#D2DEE9"/>
<g style="mix-blend-mode:multiply" opacity="0.133718" filter="url(#filter2_d_844_11295)">
<path fill-rule="evenodd" clip-rule="evenodd" d="M203.77 82.8325L141.592 103.782V183.803L203.074 159.374L203.77 82.8325Z" fill="url(#paint6_linear_844_11295)"/>
</g>
<path fill-rule="evenodd" clip-rule="evenodd" d="M203.512 82.7764L225.25 113.08L162.325 137.919L141.425 103.248L203.512 82.7764Z" fill="url(#paint7_linear_844_11295)"/>
<g opacity="0.6">
<path fill-rule="evenodd" clip-rule="evenodd" d="M147.869 133.735L147.588 137.21L147.087 139.675L147.268 141.795L147.721 144.983L147.187 173.816L147.814 164.848L148.983 164.073L148.142 160.148L148.295 145.023L148.146 141.216L148.661 139.786L148.261 137.257L148.316 126.806L147.869 133.735Z" fill="#ACBBCB"/>
<path fill-rule="evenodd" clip-rule="evenodd" d="M152.512 159.07L152.311 155.172L152.586 140.802L152.042 145.231L151.613 143.786L151.757 147.552L151.741 155.102L151.423 157.688L151.843 158.987L151.882 164.208L152.512 159.07Z" fill="#ACBBCB"/>
<path fill-rule="evenodd" clip-rule="evenodd" d="M154.855 167.618L155.163 164.463L154.875 162.198L155.016 160.277L155.345 157.395L155.367 131.137L155.653 139.324L155.687 141.965L155.803 143.613L155.709 157.382L155.778 160.74L155.876 162.163L155.591 164.448L155.494 173.96L154.855 167.618Z" fill="#ACBBCB"/>
</g>
<path fill-rule="evenodd" clip-rule="evenodd" d="M60.512 84.2246L40 115.878L119.281 137.108L142.288 103.087L60.512 84.2246Z" fill="url(#paint8_linear_844_11295)"/>
<mask id="mask0_844_11295" style="mask-type:luminance" maskUnits="userSpaceOnUse" x="40" y="84" width="103" height="54">
<path fill-rule="evenodd" clip-rule="evenodd" d="M60.512 84.2246L40 115.878L119.281 137.108L142.288 103.087L60.512 84.2246Z" fill="white"/>
</mask>
<g mask="url(#mask0_844_11295)">
<g opacity="0.4">
<path fill-rule="evenodd" clip-rule="evenodd" d="M80.7657 108.483L82.8453 105.685L84.5773 103.86L85.547 101.966L86.8517 99.0226L102.584 74.8542L97.2997 82.1274L95.8976 82.1644L94.5307 85.9386L86.3866 98.6847L84.4949 101.992L83.3006 102.932L82.2993 105.288L76.7153 114.122L80.7657 108.483Z" fill="#ACBBCB"/>
<path fill-rule="evenodd" clip-rule="evenodd" d="M90.2533 84.5368L88.3584 87.9494L80.5103 99.9896L83.3187 96.5215L82.917 97.9746L84.7904 94.7042L88.8051 88.3111L90.4453 86.2857L90.7778 84.9616L93.5112 80.5137L90.2533 84.5368Z" fill="#ACBBCB"/>
<path fill-rule="evenodd" clip-rule="evenodd" d="M92.7964 76.0453L90.8639 78.5584L89.9079 80.6313L88.7698 82.1855L86.9642 84.4557L73.0306 106.712L77.1264 99.618L78.497 97.3594L79.2726 95.9006L86.648 84.2731L88.3689 81.3895L89.04 80.1302L90.4927 78.3441L95.6151 70.329L92.7964 76.0453Z" fill="#ACBBCB"/>
</g>
</g>
<defs>
<filter id="filter0_d_844_11295" x="87.4106" y="65.7271" width="107.667" height="100.245" filterUnits="userSpaceOnUse" color-interpolation-filters="sRGB">
<feFlood flood-opacity="0" result="BackgroundImageFix"/>
<feColorMatrix in="SourceAlpha" type="matrix" values="0 0 0 0 0 0 0 0 0 0 0 0 0 0 0 0 0 0 127 0" result="hardAlpha"/>
<feOffset dy="20"/>
<feGaussianBlur stdDeviation="11"/>
<feColorMatrix type="matrix" values="0 0 0 0 0.0469255 0 0 0 0 0.264214 0 0 0 0 0.449378 0 0 0 0.5 0"/>
<feBlend mode="normal" in2="BackgroundImageFix" result="effect1_dropShadow_844_11295"/>
<feBlend mode="normal" in="SourceGraphic" in2="effect1_dropShadow_844_11295" result="shape"/>
</filter>
<filter id="filter1_d_844_11295" x="60.1792" y="84.9204" width="81.5352" height="100.882" filterUnits="userSpaceOnUse" color-interpolation-filters="sRGB">
<feFlood flood-opacity="0" result="BackgroundImageFix"/>
<feColorMatrix in="SourceAlpha" type="matrix" values="0 0 0 0 0 0 0 0 0 0 0 0 0 0 0 0 0 0 127 0" result="hardAlpha"/>
<feOffset dy="2"/>
<feColorMatrix type="matrix" values="0 0 0 0 0.234731 0 0 0 0 0.347049 0 0 0 0 0.474516 0 0 0 1 0"/>
<feBlend mode="normal" in2="BackgroundImageFix" result="effect1_dropShadow_844_11295"/>
<feBlend mode="normal" in="SourceGraphic" in2="effect1_dropShadow_844_11295" result="shape"/>
</filter>
<filter id="filter2_d_844_11295" x="141.592" y="82.8325" width="62.1782" height="102.97" filterUnits="userSpaceOnUse" color-interpolation-filters="sRGB">
<feFlood flood-opacity="0" result="BackgroundImageFix"/>
<feColorMatrix in="SourceAlpha" type="matrix" values="0 0 0 0 0 0 0 0 0 0 0 0 0 0 0 0 0 0 127 0" result="hardAlpha"/>
<feOffset dy="2"/>
<feColorMatrix type="matrix" values="0 0 0 0 0.234731 0 0 0 0 0.347049 0 0 0 0 0.474516 0 0 0 1 0"/>
<feBlend mode="normal" in2="BackgroundImageFix" result="effect1_dropShadow_844_11295"/>
<feBlend mode="normal" in="SourceGraphic" in2="effect1_dropShadow_844_11295" result="shape"/>
</filter>
<linearGradient id="paint0_linear_844_11295" x1="102.544" y1="46.5724" x2="134.821" y2="68.0434" gradientUnits="userSpaceOnUse">
<stop stop-color="#CDD6DE"/>
<stop offset="1" stop-color="#9FACBA"/>
</linearGradient>
<linearGradient id="paint1_linear_844_11295" x1="150.568" y1="61.4684" x2="144.613" y2="88.3003" gradientUnits="userSpaceOnUse">
<stop stop-color="#D8E2EA"/>
<stop offset="1" stop-color="#B0C1D0"/>
</linearGradient>
<linearGradient id="paint2_linear_844_11295" x1="97.6" y1="163.886" x2="116.431" y2="126.873" gradientUnits="userSpaceOnUse">
<stop stop-color="white" stop-opacity="0.01"/>
<stop offset="1" stop-color="#132E3C"/>
</linearGradient>
<linearGradient id="paint3_linear_844_11295" x1="73.5541" y1="130.413" x2="69.6415" y2="151.736" gradientUnits="userSpaceOnUse">
<stop stop-color="#7B86A4"/>
<stop offset="1" stop-color="#454E6B"/>
</linearGradient>
<linearGradient id="paint4_linear_844_11295" x1="111.825" y1="140.713" x2="107.848" y2="162.205" gradientUnits="userSpaceOnUse">
<stop stop-color="#7B86A4"/>
<stop offset="1" stop-color="#454E6B"/>
</linearGradient>
<linearGradient id="paint5_linear_844_11295" x1="93.8591" y1="134.474" x2="87.1618" y2="155.45" gradientUnits="userSpaceOnUse">
<stop stop-color="#7B86A4"/>
<stop offset="1" stop-color="#454E6B"/>
</linearGradient>
<linearGradient id="paint6_linear_844_11295" x1="175.233" y1="163.465" x2="153.095" y2="130.969" gradientUnits="userSpaceOnUse">
<stop stop-color="white" stop-opacity="0.01"/>
<stop offset="1" stop-color="#132E3C"/>
</linearGradient>
<linearGradient id="paint7_linear_844_11295" x1="184.864" y1="93.729" x2="194.486" y2="125.218" gradientUnits="userSpaceOnUse">
<stop stop-color="#F1F6FA"/>
<stop offset="1" stop-color="#DEEAF4"/>
</linearGradient>
<linearGradient id="paint8_linear_844_11295" x1="61.7417" y1="89.2117" x2="59.9562" y2="126.71" gradientUnits="userSpaceOnUse">
<stop stop-color="#F1F6FA"/>
<stop offset="1" stop-color="#DEEAF4"/>
</linearGradient>
</defs>
</svg>
