<svg width="244" height="200" viewBox="0 0 244 200" fill="none" xmlns="http://www.w3.org/2000/svg">
<path d="M8.5918 91.9004V93.9592" stroke="#D2D8DF" stroke-width="2.921" stroke-linecap="round"/>
<path d="M3.96753 93.0151L5.64983 94.7469" stroke="#D2D8DF" stroke-width="2.921" stroke-linecap="round"/>
<path d="M2 97.626H4.37876" stroke="#D2D8DF" stroke-width="2.921" stroke-linecap="round"/>
<path d="M3.77417 102.317L5.45648 100.585" stroke="#D2D8DF" stroke-width="2.921" stroke-linecap="round"/>
<path d="M8.5918 102.88V100.821" stroke="#D2D8DF" stroke-width="2.921" stroke-linecap="round"/>
<path d="M12.0229 101.507L10.6504 100.135" stroke="#D2D8DF" stroke-width="2.921" stroke-linecap="round"/>
<path d="M14.768 98.0757H12.7092" stroke="#D2D8DF" stroke-width="2.921" stroke-linecap="round"/>
<path d="M13.3957 93.272L12.0232 94.6445" stroke="#D2D8DF" stroke-width="2.921" stroke-linecap="round"/>
<path d="M119.079 2V3.37251" stroke="#D2D8DF" stroke-width="2.921" stroke-linecap="round"/>
<path d="M114.962 6.1167H116.334" stroke="#D2D8DF" stroke-width="2.921" stroke-linecap="round"/>
<path d="M119.079 10.2343V8.86182" stroke="#D2D8DF" stroke-width="2.921" stroke-linecap="round"/>
<path d="M122.51 6.1167H121.138" stroke="#D2D8DF" stroke-width="2.921" stroke-linecap="round"/>
<path d="M39.4736 59.645V61.7038" stroke="#D2D8DF" stroke-width="2.921" stroke-linecap="round"/>
<path d="M33.2971 65.8213H35.3559" stroke="#D2D8DF" stroke-width="2.921" stroke-linecap="round"/>
<path d="M39.4736 71.3117V69.2529" stroke="#D2D8DF" stroke-width="2.921" stroke-linecap="round"/>
<path d="M44.9636 65.8213H42.9048" stroke="#D2D8DF" stroke-width="2.921" stroke-linecap="round"/>
<path d="M187.192 134.475C188.832 134.475 190.162 135.805 190.162 137.445C190.162 139.087 188.832 140.416 187.192 140.416C185.552 140.416 184.222 139.087 184.222 137.445" stroke="#D2D8DF" stroke-width="2.921" stroke-linecap="round"/>
<path d="M200.749 173.528C201.116 176.09 199.338 178.464 196.777 178.831C194.216 179.197 191.843 177.419 191.475 174.858C191.108 172.296 192.887 169.922 195.447 169.555" stroke="#D2D8DF" stroke-width="2.921" stroke-linecap="round"/>
<path fill-rule="evenodd" clip-rule="evenodd" d="M200.784 107.521C202.548 106.97 205.251 104.814 205.877 102.493C206.444 104.544 208.823 106.97 210.969 107.154C208.553 108.01 206.243 110.551 205.877 112.547C205.627 110.512 202.432 107.817 200.784 107.521Z" fill="#EBECEE"/>
<path fill-rule="evenodd" clip-rule="evenodd" d="M19.7576 133.558C20.6396 133.283 21.9907 132.205 22.3035 131.045C22.5873 132.07 23.7764 133.283 24.8495 133.375C23.6418 133.803 22.4871 135.074 22.3035 136.072C22.1789 135.054 20.5814 133.706 19.7576 133.558Z" fill="#EBECEE"/>
<path fill-rule="evenodd" clip-rule="evenodd" d="M36.1263 38.0951C36.1263 39.3679 35.0951 40.3988 33.8233 40.3988C32.5509 40.3988 31.5203 39.3679 31.5203 38.0951C31.5203 36.823 32.5509 35.7915 33.8233 35.7915C35.0951 35.7915 36.1263 36.823 36.1263 38.0951Z" fill="#D1D8DF"/>
<path fill-rule="evenodd" clip-rule="evenodd" d="M172.129 182.73C172.129 184.857 170.405 186.58 168.28 186.58C166.153 186.58 164.43 184.857 164.43 182.73C164.43 180.604 166.153 178.88 168.28 178.88C170.405 178.88 172.129 180.604 172.129 182.73Z" fill="#EBECEE"/>
<path fill-rule="evenodd" clip-rule="evenodd" d="M243.231 33.8482C243.231 35.5352 241.864 36.9024 240.178 36.9024C238.491 36.9024 237.125 35.5352 237.125 33.8482C237.125 32.1611 238.491 30.7939 240.178 30.7939C241.864 30.7939 243.231 32.1611 243.231 33.8482Z" fill="#EBECEE"/>
<path fill-rule="evenodd" clip-rule="evenodd" d="M79.1679 176.492C79.1679 177.556 78.3062 178.418 77.2429 178.418C76.1803 178.418 75.3186 177.556 75.3186 176.492C75.3186 175.429 76.1803 174.567 77.2429 174.567C78.3062 174.567 79.1679 175.429 79.1679 176.492Z" stroke="#D2D8DF" stroke-width="2.921" stroke-linecap="round"/>
<path fill-rule="evenodd" clip-rule="evenodd" d="M78.023 23.2953C78.023 24.5681 76.9918 25.599 75.72 25.599C74.4482 25.599 73.417 24.5681 73.417 23.2953C73.417 22.0232 74.4482 20.9917 75.72 20.9917C76.9918 20.9917 78.023 22.0232 78.023 23.2953Z" stroke="#D2D8DF" stroke-width="2.921" stroke-linecap="round"/>
<path fill-rule="evenodd" clip-rule="evenodd" d="M136.768 197.813C135.297 198.373 133.65 197.633 133.09 196.162C132.53 194.69 133.269 193.042 134.741 192.482C136.212 191.922 137.859 192.661 138.419 194.133C138.979 195.605 138.24 197.253 136.768 197.813Z" stroke="#D2D8DF" stroke-width="2.921" stroke-linecap="round"/>
<path fill-rule="evenodd" clip-rule="evenodd" d="M96.4299 150.2H109.592L102.697 172.138L133.411 141.112H114.92L125.262 95.6689L96.4299 150.2Z" fill="#0F529B"/>
<path fill-rule="evenodd" clip-rule="evenodd" d="M175.168 81.8786C171.922 79.5728 168.134 77.9835 164.028 77.3494C161.782 57.7273 145.124 42.4883 124.901 42.4883C112.298 42.4883 101.081 48.4093 93.8697 57.6209C91.3395 56.7734 88.6384 56.3108 85.822 56.3108C72.8916 56.3108 62.2286 66.0035 60.6893 78.5187C49.9885 81.8361 42.2188 91.8122 42.2188 103.601C42.2188 118.06 53.9057 129.786 68.3513 129.854C69.0952 129.954 69.8515 130.013 70.6228 130.013H156.485C158.07 130.31 159.697 130.472 161.368 130.472C175.871 130.472 187.624 118.717 187.624 104.216C187.624 94.7768 182.642 86.5054 175.168 81.8786Z" fill="#F1F2F7"/>
<path fill-rule="evenodd" clip-rule="evenodd" d="M102.177 67.0072C99.1387 65.7743 95.7574 65.082 92.1931 65.082C78.9934 65.082 68.2969 74.5039 68.2969 86.1242C68.2969 87.2996 68.4089 88.4503 68.6202 89.5712C78.8829 75.0737 85.9547 69.3161 102.177 67.0072Z" fill="#E0E2EE"/>
</svg>
