<?xml version="1.0" encoding="UTF-8" standalone="no" ?>
<!DOCTYPE svg PUBLIC "-//W3C//DTD SVG 1.1//EN" "http://www.w3.org/Graphics/SVG/1.1/DTD/svg11.dtd">
<svg xmlns="http://www.w3.org/2000/svg" xmlns:xlink="http://www.w3.org/1999/xlink" version="1.1" width="468" height="249" viewBox="0 0 468 249" xml:space="preserve">
<desc>Created with Fabric.js 3.6.6</desc>
<defs>
</defs>
<g transform="matrix(1 0 0 1 319 125)"  >
<g style=""   >
		<g transform="matrix(2.8 0 0 2.8 -84.39 8.9)"  >
<path style="stroke: none; stroke-width: 1; stroke-dasharray: none; stroke-linecap: butt; stroke-dashoffset: 0; stroke-linejoin: miter; stroke-miterlimit: 4; fill: rgb(255,215,181); fill-rule: evenodd; opacity: 1;"  transform=" translate(-130.5, -100)" d="M 93 135 H 176 C 179.866 135 183 131.866 183 128 C 183 124.134 179.866 121 176 121 C 176 121 170 117.866 170 114 C 170 110.134 173.952 107 178.826 107 H 189 C 192.866 107 196 103.866 196 100 C 196 96.134 192.866 93 189 93 H 167 C 170.866 93 174 89.866 174 86 C 174 82.134 170.866 79 167 79 H 207 C 210.866 79 214 75.866 214 72 C 214 68.134 210.866 65 207 65 H 109 C 105.134 65 102 68.134 102 72 C 102 75.866 105.134 79 109 79 H 69 C 65.134 79 62 82.134 62 86 C 62 89.866 65.134 93 69 93 H 94 C 97.866 93 101 96.134 101 100 C 101 103.866 97.866 107 94 107 H 54 C 50.134 107 47 110.134 47 114 C 47 117.866 50.134 121 54 121 H 93 C 89.134 121 86 124.134 86 128 C 86 131.866 89.134 135 93 135 Z M 200 100 C 200 103.866 203.134 107 207 107 C 210.866 107 214 103.866 214 100 C 214 96.134 210.866 93 207 93 C 203.134 93 200 96.134 200 100 Z" stroke-linecap="round" />
</g>
		<g transform="matrix(2.8 0 0 2.8 -85.79 87.82)"  >
<path style="stroke: none; stroke-width: 1; stroke-dasharray: none; stroke-linecap: butt; stroke-dashoffset: 0; stroke-linejoin: miter; stroke-miterlimit: 4; fill: rgb(255,255,255); fill-rule: evenodd; opacity: 1;"  transform=" translate(-130, -128.15)" d="M 118.119 113.307 C 118.04 113.86 118 114.425 118 115 C 118 121.627 123.373 127 130 127 C 136.627 127 142 121.627 142 115 C 142 114.425 141.96 113.86 141.881 113.307 H 171 V 140 C 171 141.657 169.657 143 168 143 H 92 C 90.3431 143 89 141.657 89 140 V 113.307 H 118.119 Z" stroke-linecap="round" />
</g>
		<g transform="matrix(2.8 0 0 2.8 -85.79 20.12)"  >
<path style="stroke: none; stroke-width: 1; stroke-dasharray: none; stroke-linecap: butt; stroke-dashoffset: 0; stroke-linejoin: miter; stroke-miterlimit: 4; fill: rgb(255,255,255); fill-rule: evenodd; opacity: 1;"  transform=" translate(-130, -104)" d="M 143 113 C 143 120.18 137.18 126 130 126 C 122.82 126 117 120.18 117 113 C 117 112.767 117.006 112.536 117.018 112.307 H 89 L 98.5604 84.0389 C 98.9726 82.8202 100.116 82 101.402 82 L 158.598 82 C 159.884 82 161.027 82.8202 161.44 84.0389 L 171 112.307 H 142.982 C 142.994 112.536 143 112.767 143 113 Z" stroke-linecap="round" />
</g>
		<g transform="matrix(2.8 0 0 2.8 -85.79 31.33)"  >
<path style="stroke: none; stroke-width: 1; stroke-dasharray: none; stroke-linecap: butt; stroke-dashoffset: 0; stroke-linejoin: miter; stroke-miterlimit: 4; fill: rgb(252,242,233); fill-rule: evenodd; opacity: 1;"  transform=" translate(-130, -108)" d="M 141.098 113.955 C 141.098 119.502 136.129 125 130 125 C 123.871 125 118.902 119.502 118.902 113.955 C 118.902 113.775 118.908 112.596 118.918 112.419 H 98 L 106.161 92.5755 C 106.513 91.6338 107.489 91 108.587 91 H 151.413 C 152.511 91 153.487 91.6338 153.839 92.5755 L 162 112.419 H 141.082 C 141.092 112.596 141.098 113.775 141.098 113.955 Z" stroke-linecap="round" />
</g>
		<g transform="matrix(2.8 0 0 2.8 -85.79 42.54)"  >
<path style="stroke: rgb(245,130,32); stroke-width: 2.5; stroke-dasharray: none; stroke-linecap: butt; stroke-dashoffset: 0; stroke-linejoin: round; stroke-miterlimit: 4; fill: none; fill-rule: nonzero; opacity: 1;"  transform=" translate(-130, -112)" d="M 99.7446 84.4393 C 99.985 83.7285 100.652 83.25 101.402 83.25 H 158.598 C 159.348 83.25 160.015 83.7285 160.255 84.4393 L 169.75 112.512 V 139 C 169.75 139.966 168.966 140.75 168 140.75 H 92 C 91.0335 140.75 90.25 139.966 90.25 139 V 112.512 L 99.7446 84.4393 Z" stroke-linecap="round" />
</g>
		<g transform="matrix(2.8 0 0 2.8 -79.39 62.16)"  >
<path style="stroke: none; stroke-width: 1; stroke-dasharray: none; stroke-linecap: butt; stroke-dashoffset: 0; stroke-linejoin: miter; stroke-miterlimit: 4; fill: rgb(245,130,32); fill-rule: nonzero; opacity: 1;"  transform=" translate(-132.29, -119)" d="M 103 110.75 H 104.25 C 104.25 110.06 103.69 109.5 103 109.5 V 110.75 Z M 103 113.25 V 114.5 C 103.69 114.5 104.25 113.94 104.25 113.25 H 103 Z M 103 113.25 L 101.75 113.25 C 101.75 113.94 102.31 114.5 103 114.5 V 113.25 Z M 116.263 113.331 L 116.83 112.217 L 116.83 112.217 L 116.263 113.331 Z M 116.297 113.358 L 115.189 113.935 L 115.189 113.935 L 116.297 113.358 Z M 116.299 113.36 L 115.21 113.975 L 115.21 113.975 L 116.299 113.36 Z M 116.353 113.566 L 115.114 113.731 V 113.731 L 116.353 113.566 Z M 143.442 113.566 L 144.681 113.731 L 144.681 113.731 L 143.442 113.566 Z M 143.496 113.36 L 144.584 113.975 L 144.585 113.973 L 143.496 113.36 Z M 143.497 113.358 L 142.389 112.779 L 142.388 112.782 L 143.497 113.358 Z M 143.532 113.331 L 144.099 114.445 L 144.099 114.445 L 143.532 113.331 Z M 141.32 112.129 L 140.232 111.514 L 140.232 111.514 L 141.32 112.129 Z M 140.923 113.954 L 142.173 113.949 V 113.949 L 140.923 113.954 Z M 118.871 113.954 L 120.121 113.959 V 113.959 L 118.871 113.954 Z M 118.475 112.129 L 119.563 111.514 V 111.514 L 118.475 112.129 Z M 103 110.75 V 109.5 C 102.31 109.5 101.75 110.06 101.75 110.75 L 103 110.75 Z M 95.5737 109.5 C 94.193 109.5 93.0737 110.619 93.0737 112 H 95.5737 V 109.5 Z M 98 109.5 H 95.5737 V 112 H 98 V 109.5 Z M 100.5 112 C 100.5 110.619 99.3807 109.5 98 109.5 V 112 H 100.5 Z M 98 114.5 C 99.3807 114.5 100.5 113.381 100.5 112 H 98 V 114.5 Z M 95.5737 114.5 H 98 V 112 H 95.5737 V 114.5 Z M 93.0737 112 C 93.0737 113.381 94.193 114.5 95.5737 114.5 V 112 H 93.0737 Z M 103 109.5 C 101.619 109.5 100.5 110.619 100.5 112 H 103 V 109.5 Z M 104.25 112 V 110.75 H 101.75 V 112 H 104.25 Z M 104.25 113.25 V 112 H 101.75 V 113.25 H 104.25 Z M 100.5 112 C 100.5 113.381 101.619 114.5 103 114.5 V 112 H 100.5 Z M 101.75 112 L 101.75 113.25 L 104.25 113.25 L 104.25 112 L 101.75 112 Z M 103 114.5 H 103 V 112 H 103 V 114.5 Z M 103 114.5 H 103.001 V 112 H 103 V 114.5 Z M 103.001 114.5 H 103.001 V 112 H 103.001 V 114.5 Z M 103.001 114.5 H 103.002 V 112 H 103.001 V 114.5 Z M 103.002 114.5 H 103.002 V 112 H 103.002 V 114.5 Z M 103.002 114.5 H 103.003 V 112 H 103.002 V 114.5 Z M 103.003 114.5 H 103.004 V 112 H 103.003 V 114.5 Z M 103.004 114.5 H 103.005 V 112 H 103.004 V 114.5 Z M 103.005 114.5 H 103.007 V 112 H 103.005 V 114.5 Z M 103.007 114.5 H 103.008 V 112 H 103.007 V 114.5 Z M 103.008 114.5 H 103.01 V 112 H 103.008 V 114.5 Z M 103.01 114.5 H 103.011 V 112 H 103.01 V 114.5 Z M 103.011 114.5 H 103.013 V 112 H 103.011 V 114.5 Z M 103.013 114.5 H 103.015 V 112 H 103.013 V 114.5 Z M 103.015 114.5 H 103.017 V 112 H 103.015 V 114.5 Z M 103.017 114.5 H 103.019 V 112 H 103.017 V 114.5 Z M 103.019 114.5 H 103.022 V 112 H 103.019 V 114.5 Z M 103.022 114.5 H 103.024 V 112 H 103.022 V 114.5 Z M 103.024 114.5 H 103.027 V 112 H 103.024 V 114.5 Z M 103.027 114.5 H 103.029 V 112 H 103.027 V 114.5 Z M 103.029 114.5 H 103.032 V 112 H 103.029 V 114.5 Z M 103.032 114.5 H 103.035 V 112 H 103.032 V 114.5 Z M 103.035 114.5 H 103.038 V 112 H 103.035 V 114.5 Z M 103.038 114.5 H 103.042 V 112 H 103.038 V 114.5 Z M 103.042 114.5 H 103.045 V 112 H 103.042 V 114.5 Z M 103.045 114.5 H 103.049 V 112 H 103.045 V 114.5 Z M 103.049 114.5 H 103.052 V 112 H 103.049 V 114.5 Z M 103.052 114.5 H 103.056 V 112 H 103.052 V 114.5 Z M 103.056 114.5 H 103.06 V 112 H 103.056 V 114.5 Z M 103.06 114.5 H 103.064 V 112 H 103.06 V 114.5 Z M 103.064 114.5 H 103.068 V 112 H 103.064 V 114.5 Z M 103.068 114.5 H 103.072 V 112 H 103.068 V 114.5 Z M 103.072 114.5 H 103.077 V 112 H 103.072 V 114.5 Z M 103.077 114.5 H 103.081 V 112 H 103.077 V 114.5 Z M 103.081 114.5 H 103.086 V 112 H 103.081 V 114.5 Z M 103.086 114.5 H 103.091 V 112 H 103.086 V 114.5 Z M 103.091 114.5 H 103.096 V 112 H 103.091 V 114.5 Z M 103.096 114.5 H 103.101 V 112 H 103.096 V 114.5 Z M 103.101 114.5 H 103.106 V 112 H 103.101 V 114.5 Z M 103.106 114.5 H 103.111 V 112 H 103.106 V 114.5 Z M 103.111 114.5 H 103.116 V 112 H 103.111 V 114.5 Z M 103.116 114.5 H 103.122 V 112 H 103.116 V 114.5 Z M 103.122 114.5 H 103.128 V 112 H 103.122 V 114.5 Z M 103.128 114.5 H 103.133 V 112 H 103.128 V 114.5 Z M 103.133 114.5 H 103.139 V 112 H 103.133 V 114.5 Z M 103.139 114.5 H 103.145 V 112 H 103.139 V 114.5 Z M 103.145 114.5 H 103.152 V 112 H 103.145 V 114.5 Z M 103.152 114.5 H 103.158 V 112 H 103.152 V 114.5 Z M 103.158 114.5 H 103.164 V 112 H 103.158 V 114.5 Z M 103.164 114.5 H 103.171 V 112 H 103.164 V 114.5 Z M 103.171 114.5 H 103.178 V 112 H 103.171 V 114.5 Z M 103.178 114.5 H 103.184 V 112 H 103.178 V 114.5 Z M 103.184 114.5 H 103.191 V 112 H 103.184 V 114.5 Z M 103.191 114.5 H 103.198 V 112 H 103.191 V 114.5 Z M 103.198 114.5 H 103.205 V 112 H 103.198 V 114.5 Z M 103.205 114.5 H 103.213 V 112 H 103.205 V 114.5 Z M 103.213 114.5 H 103.22 V 112 H 103.213 V 114.5 Z M 103.22 114.5 H 103.228 V 112 H 103.22 V 114.5 Z M 103.228 114.5 H 103.235 V 112 H 103.228 V 114.5 Z M 103.235 114.5 H 103.243 V 112 H 103.235 V 114.5 Z M 103.243 114.5 H 103.251 V 112 H 103.243 V 114.5 Z M 103.251 114.5 H 103.259 V 112 H 103.251 V 114.5 Z M 103.259 114.5 H 103.267 V 112 H 103.259 V 114.5 Z M 103.267 114.5 H 103.275 V 112 H 103.267 V 114.5 Z M 103.275 114.5 H 103.284 V 112 H 103.275 V 114.5 Z M 103.284 114.5 H 103.292 V 112 H 103.284 V 114.5 Z M 103.292 114.5 H 103.301 V 112 H 103.292 V 114.5 Z M 103.301 114.5 H 103.31 V 112 H 103.301 V 114.5 Z M 103.31 114.5 H 103.318 V 112 H 103.31 V 114.5 Z M 103.318 114.5 H 103.327 V 112 H 103.318 V 114.5 Z M 103.327 114.5 H 103.336 V 112 H 103.327 V 114.5 Z M 103.336 114.5 H 103.346 V 112 H 103.336 V 114.5 Z M 103.346 114.5 H 103.355 V 112 H 103.346 V 114.5 Z M 103.355 114.5 H 103.364 V 112 H 103.355 V 114.5 Z M 103.364 114.5 H 103.374 V 112 H 103.364 V 114.5 Z M 103.374 114.5 H 103.384 V 112 H 103.374 V 114.5 Z M 103.384 114.5 H 103.394 V 112 H 103.384 V 114.5 Z M 103.394 114.5 H 103.403 V 112 H 103.394 V 114.5 Z M 103.403 114.5 H 103.414 V 112 H 103.403 V 114.5 Z M 103.414 114.5 H 103.424 V 112 H 103.414 V 114.5 Z M 103.424 114.5 H 103.434 V 112 H 103.424 V 114.5 Z M 103.434 114.5 H 103.444 V 112 H 103.434 V 114.5 Z M 103.444 114.5 H 103.455 V 112 H 103.444 V 114.5 Z M 103.455 114.5 H 103.465 V 112 H 103.455 V 114.5 Z M 103.465 114.5 H 103.476 V 112 H 103.465 V 114.5 Z M 103.476 114.5 H 103.487 V 112 H 103.476 V 114.5 Z M 103.487 114.5 H 103.498 V 112 H 103.487 V 114.5 Z M 103.498 114.5 H 103.509 V 112 H 103.498 V 114.5 Z M 103.509 114.5 H 103.52 V 112 H 103.509 V 114.5 Z M 103.52 114.5 H 103.532 V 112 H 103.52 V 114.5 Z M 103.532 114.5 H 103.543 V 112 H 103.532 V 114.5 Z M 103.543 114.5 H 103.555 V 112 H 103.543 V 114.5 Z M 103.555 114.5 H 103.566 V 112 H 103.555 V 114.5 Z M 103.566 114.5 H 103.578 V 112 H 103.566 V 114.5 Z M 103.578 114.5 H 103.59 V 112 H 103.578 V 114.5 Z M 103.59 114.5 H 103.602 V 112 H 103.59 V 114.5 Z M 103.602 114.5 H 103.614 V 112 H 103.602 V 114.5 Z M 103.614 114.5 H 103.626 V 112 H 103.614 V 114.5 Z M 103.626 114.5 H 103.639 V 112 H 103.626 V 114.5 Z M 103.639 114.5 H 103.651 V 112 H 103.639 V 114.5 Z M 103.651 114.5 H 103.664 V 112 H 103.651 V 114.5 Z M 103.664 114.5 H 103.676 V 112 H 103.664 V 114.5 Z M 103.676 114.5 H 103.689 V 112 H 103.676 V 114.5 Z M 103.689 114.5 H 103.702 V 112 H 103.689 V 114.5 Z M 103.702 114.5 H 103.715 V 112 H 103.702 V 114.5 Z M 103.715 114.5 H 103.728 V 112 H 103.715 V 114.5 Z M 103.728 114.5 H 103.742 V 112 H 103.728 V 114.5 Z M 103.742 114.5 H 103.755 V 112 H 103.742 V 114.5 Z M 103.755 114.5 H 103.768 V 112 H 103.755 V 114.5 Z M 103.768 114.5 H 103.782 V 112 H 103.768 V 114.5 Z M 103.782 114.5 H 103.796 V 112 H 103.782 V 114.5 Z M 103.796 114.5 H 103.809 V 112 H 103.796 V 114.5 Z M 103.809 114.5 H 103.823 V 112 H 103.809 V 114.5 Z M 103.823 114.5 H 103.837 V 112 H 103.823 V 114.5 Z M 103.837 114.5 H 103.852 V 112 H 103.837 V 114.5 Z M 103.852 114.5 H 103.866 V 112 H 103.852 V 114.5 Z M 103.866 114.5 H 103.88 V 112 H 103.866 V 114.5 Z M 103.88 114.5 H 103.895 V 112 H 103.88 V 114.5 Z M 103.895 114.5 H 103.909 V 112 H 103.895 V 114.5 Z M 103.909 114.5 H 103.924 V 112 H 103.909 V 114.5 Z M 103.924 114.5 H 103.939 V 112 H 103.924 V 114.5 Z M 103.939 114.5 H 103.953 V 112 H 103.939 V 114.5 Z M 103.953 114.5 H 103.968 V 112 H 103.953 V 114.5 Z M 103.968 114.5 H 103.984 V 112 H 103.968 V 114.5 Z M 103.984 114.5 H 103.999 V 112 H 103.984 V 114.5 Z M 103.999 114.5 H 104.014 V 112 H 103.999 V 114.5 Z M 104.014 114.5 H 104.03 V 112 H 104.014 V 114.5 Z M 104.03 114.5 H 104.045 V 112 H 104.03 V 114.5 Z M 104.045 114.5 H 104.061 V 112 H 104.045 V 114.5 Z M 104.061 114.5 H 104.076 V 112 H 104.061 V 114.5 Z M 104.076 114.5 H 104.092 V 112 H 104.076 V 114.5 Z M 104.092 114.5 H 104.108 V 112 H 104.092 V 114.5 Z M 104.108 114.5 H 104.124 V 112 H 104.108 V 114.5 Z M 104.124 114.5 H 104.14 V 112 H 104.124 V 114.5 Z M 104.14 114.5 H 104.157 V 112 H 104.14 V 114.5 Z M 104.157 114.5 H 104.173 V 112 H 104.157 V 114.5 Z M 104.173 114.5 H 104.19 V 112 H 104.173 V 114.5 Z M 104.19 114.5 H 104.206 V 112 H 104.19 V 114.5 Z M 104.206 114.5 H 104.223 V 112 H 104.206 V 114.5 Z M 104.223 114.5 H 104.24 V 112 H 104.223 V 114.5 Z M 104.24 114.5 H 104.257 V 112 H 104.24 V 114.5 Z M 104.257 114.5 H 104.274 V 112 H 104.257 V 114.5 Z M 104.274 114.5 H 104.291 V 112 H 104.274 V 114.5 Z M 104.291 114.5 H 104.308 V 112 H 104.291 V 114.5 Z M 104.308 114.5 H 104.325 V 112 H 104.308 V 114.5 Z M 104.325 114.5 H 104.343 V 112 H 104.325 V 114.5 Z M 104.343 114.5 H 104.36 V 112 H 104.343 V 114.5 Z M 104.36 114.5 H 104.378 V 112 H 104.36 V 114.5 Z M 104.378 114.5 H 104.395 V 112 H 104.378 V 114.5 Z M 104.395 114.5 H 104.413 V 112 H 104.395 V 114.5 Z M 104.413 114.5 H 104.431 V 112 H 104.413 V 114.5 Z M 104.431 114.5 H 104.449 V 112 H 104.431 V 114.5 Z M 104.449 114.5 H 104.467 V 112 H 104.449 V 114.5 Z M 104.467 114.5 H 104.486 V 112 H 104.467 V 114.5 Z M 104.486 114.5 H 104.504 V 112 H 104.486 V 114.5 Z M 104.504 114.5 H 104.522 V 112 H 104.504 V 114.5 Z M 104.522 114.5 H 104.541 V 112 H 104.522 V 114.5 Z M 104.541 114.5 H 104.56 V 112 H 104.541 V 114.5 Z M 104.56 114.5 H 104.578 V 112 H 104.56 V 114.5 Z M 104.578 114.5 H 104.597 V 112 H 104.578 V 114.5 Z M 104.597 114.5 H 104.616 V 112 H 104.597 V 114.5 Z M 104.616 114.5 H 104.635 V 112 H 104.616 V 114.5 Z M 104.635 114.5 H 104.654 V 112 H 104.635 V 114.5 Z M 104.654 114.5 H 104.673 V 112 H 104.654 V 114.5 Z M 104.673 114.5 H 104.693 V 112 H 104.673 V 114.5 Z M 104.693 114.5 H 104.712 V 112 H 104.693 V 114.5 Z M 104.712 114.5 H 104.732 V 112 H 104.712 V 114.5 Z M 104.732 114.5 H 104.751 V 112 H 104.732 V 114.5 Z M 104.751 114.5 H 104.771 V 112 H 104.751 V 114.5 Z M 104.771 114.5 H 104.791 V 112 H 104.771 V 114.5 Z M 104.791 114.5 H 104.811 V 112 H 104.791 V 114.5 Z M 104.811 114.5 H 104.831 V 112 H 104.811 V 114.5 Z M 104.831 114.5 H 104.851 V 112 H 104.831 V 114.5 Z M 104.851 114.5 H 104.871 V 112 H 104.851 V 114.5 Z M 104.871 114.5 H 104.891 V 112 H 104.871 V 114.5 Z M 104.891 114.5 H 104.912 V 112 H 104.891 V 114.5 Z M 104.912 114.5 H 104.932 V 112 H 104.912 V 114.5 Z M 104.932 114.5 H 104.953 V 112 H 104.932 V 114.5 Z M 104.953 114.5 H 104.974 V 112 H 104.953 V 114.5 Z M 104.974 114.5 H 104.994 V 112 H 104.974 V 114.5 Z M 104.994 114.5 H 105.015 V 112 H 104.994 V 114.5 Z M 105.015 114.5 H 105.036 V 112 H 105.015 V 114.5 Z M 105.036 114.5 H 105.057 V 112 H 105.036 V 114.5 Z M 105.057 114.5 H 105.078 V 112 H 105.057 V 114.5 Z M 105.078 114.5 H 105.1 V 112 H 105.078 V 114.5 Z M 105.1 114.5 H 105.121 V 112 H 105.1 V 114.5 Z M 105.121 114.5 H 105.142 V 112 H 105.121 V 114.5 Z M 105.142 114.5 H 105.164 V 112 H 105.142 V 114.5 Z M 105.164 114.5 H 105.186 V 112 H 105.164 V 114.5 Z M 105.186 114.5 H 105.207 V 112 H 105.186 V 114.5 Z M 105.207 114.5 H 105.229 V 112 H 105.207 V 114.5 Z M 105.229 114.5 H 105.251 V 112 H 105.229 V 114.5 Z M 105.251 114.5 H 105.273 V 112 H 105.251 V 114.5 Z M 105.273 114.5 H 105.295 V 112 H 105.273 V 114.5 Z M 105.295 114.5 H 105.317 V 112 H 105.295 V 114.5 Z M 105.317 114.5 H 105.339 V 112 H 105.317 V 114.5 Z M 105.339 114.5 H 105.362 V 112 H 105.339 V 114.5 Z M 105.362 114.5 H 105.384 V 112 H 105.362 V 114.5 Z M 105.384 114.5 H 105.407 V 112 H 105.384 V 114.5 Z M 105.407 114.5 H 105.429 V 112 H 105.407 V 114.5 Z M 105.429 114.5 H 105.452 V 112 H 105.429 V 114.5 Z M 105.452 114.5 H 105.475 V 112 H 105.452 V 114.5 Z M 105.475 114.5 H 105.498 V 112 H 105.475 V 114.5 Z M 105.498 114.5 H 105.521 V 112 H 105.498 V 114.5 Z M 105.521 114.5 H 105.544 V 112 H 105.521 V 114.5 Z M 105.544 114.5 H 105.567 V 112 H 105.544 V 114.5 Z M 105.567 114.5 H 105.59 V 112 H 105.567 V 114.5 Z M 105.59 114.5 H 105.614 V 112 H 105.59 V 114.5 Z M 105.614 114.5 H 105.637 V 112 H 105.614 V 114.5 Z M 105.637 114.5 H 105.661 V 112 H 105.637 V 114.5 Z M 105.661 114.5 H 105.684 V 112 H 105.661 V 114.5 Z M 105.684 114.5 H 105.708 V 112 H 105.684 V 114.5 Z M 105.708 114.5 H 105.732 V 112 H 105.708 V 114.5 Z M 105.732 114.5 H 105.756 V 112 H 105.732 V 114.5 Z M 105.756 114.5 H 105.78 V 112 H 105.756 V 114.5 Z M 105.78 114.5 H 105.804 V 112 H 105.78 V 114.5 Z M 105.804 114.5 H 105.828 V 112 H 105.804 V 114.5 Z M 105.828 114.5 H 105.852 V 112 H 105.828 V 114.5 Z M 105.852 114.5 H 105.876 V 112 H 105.852 V 114.5 Z M 105.876 114.5 H 105.901 V 112 H 105.876 V 114.5 Z M 105.901 114.5 H 105.925 V 112 H 105.901 V 114.5 Z M 105.925 114.5 H 105.95 V 112 H 105.925 V 114.5 Z M 105.95 114.5 H 105.975 V 112 H 105.95 V 114.5 Z M 105.975 114.5 H 105.999 V 112 H 105.975 V 114.5 Z M 105.999 114.5 H 106.024 V 112 H 105.999 V 114.5 Z M 106.024 114.5 H 106.049 V 112 H 106.024 V 114.5 Z M 106.049 114.5 H 106.074 V 112 H 106.049 V 114.5 Z M 106.074 114.5 H 106.099 V 112 H 106.074 V 114.5 Z M 106.099 114.5 H 106.124 V 112 H 106.099 V 114.5 Z M 106.124 114.5 H 106.149 V 112 H 106.124 V 114.5 Z M 106.149 114.5 H 106.175 V 112 H 106.149 V 114.5 Z M 106.175 114.5 H 106.2 V 112 H 106.175 V 114.5 Z M 106.2 114.5 H 106.226 V 112 H 106.2 V 114.5 Z M 106.226 114.5 H 106.251 V 112 H 106.226 V 114.5 Z M 106.251 114.5 H 106.277 V 112 H 106.251 V 114.5 Z M 106.277 114.5 H 106.303 V 112 H 106.277 V 114.5 Z M 106.303 114.5 H 106.329 V 112 H 106.303 V 114.5 Z M 106.329 114.5 H 106.355 V 112 H 106.329 V 114.5 Z M 106.355 114.5 H 106.381 V 112 H 106.355 V 114.5 Z M 106.381 114.5 H 106.407 V 112 H 106.381 V 114.5 Z M 106.407 114.5 H 106.433 V 112 H 106.407 V 114.5 Z M 106.433 114.5 H 106.459 V 112 H 106.433 V 114.5 Z M 106.459 114.5 H 106.485 V 112 H 106.459 V 114.5 Z M 106.485 114.5 H 106.512 V 112 H 106.485 V 114.5 Z M 106.512 114.5 H 106.538 V 112 H 106.512 V 114.5 Z M 106.538 114.5 H 106.565 V 112 H 106.538 V 114.5 Z M 106.565 114.5 H 106.591 V 112 H 106.565 V 114.5 Z M 106.591 114.5 H 106.618 V 112 H 106.591 V 114.5 Z M 106.618 114.5 H 106.645 V 112 H 106.618 V 114.5 Z M 106.645 114.5 H 106.672 V 112 H 106.645 V 114.5 Z M 106.672 114.5 H 106.699 V 112 H 106.672 V 114.5 Z M 106.699 114.5 H 106.726 V 112 H 106.699 V 114.5 Z M 106.726 114.5 H 106.753 V 112 H 106.726 V 114.5 Z M 106.753 114.5 H 106.78 V 112 H 106.753 V 114.5 Z M 106.78 114.5 H 106.807 V 112 H 106.78 V 114.5 Z M 106.807 114.5 H 106.835 V 112 H 106.807 V 114.5 Z M 106.835 114.5 H 106.862 V 112 H 106.835 V 114.5 Z M 106.862 114.5 H 106.89 V 112 H 106.862 V 114.5 Z M 106.89 114.5 H 106.917 V 112 H 106.89 V 114.5 Z M 106.917 114.5 H 106.945 V 112 H 106.917 V 114.5 Z M 106.945 114.5 H 106.973 V 112 H 106.945 V 114.5 Z M 106.973 114.5 H 107.001 V 112 H 106.973 V 114.5 Z M 107.001 114.5 H 107.028 V 112 H 107.001 V 114.5 Z M 107.028 114.5 H 107.056 V 112 H 107.028 V 114.5 Z M 107.056 114.5 H 107.085 V 112 H 107.056 V 114.5 Z M 107.085 114.5 H 107.113 V 112 H 107.085 V 114.5 Z M 107.113 114.5 H 107.141 V 112 H 107.113 V 114.5 Z M 107.141 114.5 H 107.169 V 112 H 107.141 V 114.5 Z M 107.169 114.5 H 107.197 V 112 H 107.169 V 114.5 Z M 107.197 114.5 H 107.226 V 112 H 107.197 V 114.5 Z M 107.226 114.5 H 107.254 V 112 H 107.226 V 114.5 Z M 107.254 114.5 H 107.283 V 112 H 107.254 V 114.5 Z M 107.283 114.5 H 107.312 V 112 H 107.283 V 114.5 Z M 107.312 114.5 H 107.34 V 112 H 107.312 V 114.5 Z M 107.34 114.5 H 107.369 V 112 H 107.34 V 114.5 Z M 107.369 114.5 H 107.398 V 112 H 107.369 V 114.5 Z M 107.398 114.5 H 107.427 V 112 H 107.398 V 114.5 Z M 107.427 114.5 H 107.456 V 112 H 107.427 V 114.5 Z M 107.456 114.5 H 107.485 V 112 H 107.456 V 114.5 Z M 107.485 114.5 H 107.514 V 112 H 107.485 V 114.5 Z M 107.514 114.5 H 107.544 V 112 H 107.514 V 114.5 Z M 107.544 114.5 H 107.573 V 112 H 107.544 V 114.5 Z M 107.573 114.5 H 107.602 V 112 H 107.573 V 114.5 Z M 107.602 114.5 H 107.632 V 112 H 107.602 V 114.5 Z M 107.632 114.5 H 107.661 V 112 H 107.632 V 114.5 Z M 107.661 114.5 H 107.691 V 112 H 107.661 V 114.5 Z M 107.691 114.5 H 107.721 V 112 H 107.691 V 114.5 Z M 107.721 114.5 H 107.75 V 112 H 107.721 V 114.5 Z M 107.75 114.5 H 107.78 V 112 H 107.75 V 114.5 Z M 107.78 114.5 H 107.81 V 112 H 107.78 V 114.5 Z M 107.81 114.5 H 107.84 V 112 H 107.81 V 114.5 Z M 107.84 114.5 H 107.87 V 112 H 107.84 V 114.5 Z M 107.87 114.5 H 107.9 V 112 H 107.87 V 114.5 Z M 107.9 114.5 H 107.93 V 112 H 107.9 V 114.5 Z M 107.93 114.5 H 107.96 V 112 H 107.93 V 114.5 Z M 107.96 114.5 H 107.991 V 112 H 107.96 V 114.5 Z M 107.991 114.5 H 108.021 V 112 H 107.991 V 114.5 Z M 108.021 114.5 H 108.052 V 112 H 108.021 V 114.5 Z M 108.052 114.5 H 108.082 V 112 H 108.052 V 114.5 Z M 108.082 114.5 H 108.113 V 112 H 108.082 V 114.5 Z M 108.113 114.5 H 108.143 V 112 H 108.113 V 114.5 Z M 108.143 114.5 H 108.174 V 112 H 108.143 V 114.5 Z M 108.174 114.5 H 108.205 V 112 H 108.174 V 114.5 Z M 108.205 114.5 H 108.236 V 112 H 108.205 V 114.5 Z M 108.236 114.5 H 108.267 V 112 H 108.236 V 114.5 Z M 108.267 114.5 H 108.298 V 112 H 108.267 V 114.5 Z M 108.298 114.5 H 108.329 V 112 H 108.298 V 114.5 Z M 108.329 114.5 H 108.36 V 112 H 108.329 V 114.5 Z M 108.36 114.5 H 108.391 V 112 H 108.36 V 114.5 Z M 108.391 114.5 H 108.422 V 112 H 108.391 V 114.5 Z M 108.422 114.5 H 108.454 V 112 H 108.422 V 114.5 Z M 108.454 114.5 H 108.485 V 112 H 108.454 V 114.5 Z M 108.485 114.5 H 108.516 V 112 H 108.485 V 114.5 Z M 108.516 114.5 H 108.548 V 112 H 108.516 V 114.5 Z M 108.548 114.5 H 108.579 V 112 H 108.548 V 114.5 Z M 108.579 114.5 H 108.611 V 112 H 108.579 V 114.5 Z M 108.611 114.5 H 108.643 V 112 H 108.611 V 114.5 Z M 108.643 114.5 H 108.675 V 112 H 108.643 V 114.5 Z M 108.675 114.5 H 108.706 V 112 H 108.675 V 114.5 Z M 108.706 114.5 H 108.738 V 112 H 108.706 V 114.5 Z M 108.738 114.5 H 108.77 V 112 H 108.738 V 114.5 Z M 108.77 114.5 H 108.802 V 112 H 108.77 V 114.5 Z M 108.802 114.5 H 108.834 V 112 H 108.802 V 114.5 Z M 108.834 114.5 H 108.867 V 112 H 108.834 V 114.5 Z M 108.867 114.5 H 108.899 V 112 H 108.867 V 114.5 Z M 108.899 114.5 H 108.931 V 112 H 108.899 V 114.5 Z M 108.931 114.5 H 108.963 V 112 H 108.931 V 114.5 Z M 108.963 114.5 H 108.996 V 112 H 108.963 V 114.5 Z M 108.996 114.5 H 109.028 V 112 H 108.996 V 114.5 Z M 109.028 114.5 H 109.061 V 112 H 109.028 V 114.5 Z M 109.061 114.5 H 109.093 V 112 H 109.061 V 114.5 Z M 109.093 114.5 H 109.126 V 112 H 109.093 V 114.5 Z M 109.126 114.5 H 109.159 V 112 H 109.126 V 114.5 Z M 109.159 114.5 H 109.192 V 112 H 109.159 V 114.5 Z M 109.192 114.5 H 109.224 V 112 H 109.192 V 114.5 Z M 109.224 114.5 H 109.257 V 112 H 109.224 V 114.5 Z M 109.257 114.5 H 109.29 V 112 H 109.257 V 114.5 Z M 109.29 114.5 H 109.323 V 112 H 109.29 V 114.5 Z M 109.323 114.5 H 109.356 V 112 H 109.323 V 114.5 Z M 109.356 114.5 H 109.39 V 112 H 109.356 V 114.5 Z M 109.39 114.5 H 109.423 V 112 H 109.39 V 114.5 Z M 109.423 114.5 H 109.456 V 112 H 109.423 V 114.5 Z M 109.456 114.5 H 109.489 V 112 H 109.456 V 114.5 Z M 109.489 114.5 H 109.523 V 112 H 109.489 V 114.5 Z M 109.523 114.5 H 109.556 V 112 H 109.523 V 114.5 Z M 109.556 114.5 H 109.59 V 112 H 109.556 V 114.5 Z M 109.59 114.5 H 109.623 V 112 H 109.59 V 114.5 Z M 109.623 114.5 H 109.657 V 112 H 109.623 V 114.5 Z M 109.657 114.5 H 109.69 V 112 H 109.657 V 114.5 Z M 109.69 114.5 H 109.724 V 112 H 109.69 V 114.5 Z M 109.724 114.5 H 109.758 V 112 H 109.724 V 114.5 Z M 109.758 114.5 H 109.792 V 112 H 109.758 V 114.5 Z M 109.792 114.5 H 109.826 V 112 H 109.792 V 114.5 Z M 109.826 114.5 H 109.86 V 112 H 109.826 V 114.5 Z M 109.86 114.5 H 109.894 V 112 H 109.86 V 114.5 Z M 109.894 114.5 H 109.928 V 112 H 109.894 V 114.5 Z M 109.928 114.5 H 109.962 V 112 H 109.928 V 114.5 Z M 109.962 114.5 H 109.996 V 112 H 109.962 V 114.5 Z M 109.996 114.5 H 110.03 V 112 H 109.996 V 114.5 Z M 110.03 114.5 H 110.065 V 112 H 110.03 V 114.5 Z M 110.065 114.5 H 110.099 V 112 H 110.065 V 114.5 Z M 110.099 114.5 H 110.133 V 112 H 110.099 V 114.5 Z M 110.133 114.5 H 110.168 V 112 H 110.133 V 114.5 Z M 110.168 114.5 H 110.202 V 112 H 110.168 V 114.5 Z M 110.202 114.5 H 110.237 V 112 H 110.202 V 114.5 Z M 110.237 114.5 H 110.271 V 112 H 110.237 V 114.5 Z M 110.271 114.5 H 110.306 V 112 H 110.271 V 114.5 Z M 110.306 114.5 H 110.341 V 112 H 110.306 V 114.5 Z M 110.341 114.5 H 110.376 V 112 H 110.341 V 114.5 Z M 110.376 114.5 H 110.41 V 112 H 110.376 V 114.5 Z M 110.41 114.5 H 110.445 V 112 H 110.41 V 114.5 Z M 110.445 114.5 H 110.48 V 112 H 110.445 V 114.5 Z M 110.48 114.5 H 110.515 V 112 H 110.48 V 114.5 Z M 110.515 114.5 H 110.55 V 112 H 110.515 V 114.5 Z M 110.55 114.5 H 110.585 V 112 H 110.55 V 114.5 Z M 110.585 114.5 H 110.62 V 112 H 110.585 V 114.5 Z M 110.62 114.5 H 110.656 V 112 H 110.62 V 114.5 Z M 110.656 114.5 H 110.691 V 112 H 110.656 V 114.5 Z M 110.691 114.5 H 110.726 V 112 H 110.691 V 114.5 Z M 110.726 114.5 H 110.762 V 112 H 110.726 V 114.5 Z M 110.762 114.5 H 110.797 V 112 H 110.762 V 114.5 Z M 110.797 114.5 H 110.832 V 112 H 110.797 V 114.5 Z M 110.832 114.5 H 110.868 V 112 H 110.832 V 114.5 Z M 110.868 114.5 H 110.903 V 112 H 110.868 V 114.5 Z M 110.903 114.5 H 110.939 V 112 H 110.903 V 114.5 Z M 110.939 114.5 H 110.975 V 112 H 110.939 V 114.5 Z M 110.975 114.5 H 111.01 V 112 H 110.975 V 114.5 Z M 111.01 114.5 H 111.046 V 112 H 111.01 V 114.5 Z M 111.046 114.5 H 111.082 V 112 H 111.046 V 114.5 Z M 111.082 114.5 H 111.118 V 112 H 111.082 V 114.5 Z M 111.118 114.5 H 111.154 V 112 H 111.118 V 114.5 Z M 111.154 114.5 H 111.19 V 112 H 111.154 V 114.5 Z M 111.19 114.5 H 111.226 V 112 H 111.19 V 114.5 Z M 111.226 114.5 H 111.262 V 112 H 111.226 V 114.5 Z M 111.262 114.5 H 111.298 V 112 H 111.262 V 114.5 Z M 111.298 114.5 H 111.334 V 112 H 111.298 V 114.5 Z M 111.334 114.5 H 111.37 V 112 H 111.334 V 114.5 Z M 111.37 114.5 H 111.406 V 112 H 111.37 V 114.5 Z M 111.406 114.5 H 111.442 V 112 H 111.406 V 114.5 Z M 111.442 114.5 H 111.479 V 112 H 111.442 V 114.5 Z M 111.479 114.5 H 111.515 V 112 H 111.479 V 114.5 Z M 111.515 114.5 H 111.551 V 112 H 111.515 V 114.5 Z M 111.551 114.5 H 111.588 V 112 H 111.551 V 114.5 Z M 111.588 114.5 H 111.624 V 112 H 111.588 V 114.5 Z M 111.624 114.5 H 111.661 V 112 H 111.624 V 114.5 Z M 111.661 114.5 H 111.698 V 112 H 111.661 V 114.5 Z M 111.698 114.5 H 111.734 V 112 H 111.698 V 114.5 Z M 111.734 114.5 H 111.771 V 112 H 111.734 V 114.5 Z M 111.771 114.5 H 111.808 V 112 H 111.771 V 114.5 Z M 111.808 114.5 H 111.844 V 112 H 111.808 V 114.5 Z M 111.844 114.5 H 111.881 V 112 H 111.844 V 114.5 Z M 111.881 114.5 H 111.918 V 112 H 111.881 V 114.5 Z M 111.918 114.5 H 111.955 V 112 H 111.918 V 114.5 Z M 111.955 114.5 H 111.992 V 112 H 111.955 V 114.5 Z M 111.992 114.5 H 112.029 V 112 H 111.992 V 114.5 Z M 112.029 114.5 H 112.066 V 112 H 112.029 V 114.5 Z M 112.066 114.5 H 112.103 V 112 H 112.066 V 114.5 Z M 112.103 114.5 H 112.14 V 112 H 112.103 V 114.5 Z M 112.14 114.5 H 112.177 V 112 H 112.14 V 114.5 Z M 112.177 114.5 H 112.214 V 112 H 112.177 V 114.5 Z M 112.214 114.5 H 112.252 V 112 H 112.214 V 114.5 Z M 112.252 114.5 H 112.289 V 112 H 112.252 V 114.5 Z M 112.289 114.5 H 112.326 V 112 H 112.289 V 114.5 Z M 112.326 114.5 H 112.363 V 112 H 112.326 V 114.5 Z M 112.363 114.5 H 112.401 V 112 H 112.363 V 114.5 Z M 112.401 114.5 H 112.438 V 112 H 112.401 V 114.5 Z M 112.438 114.5 H 112.476 V 112 H 112.438 V 114.5 Z M 112.476 114.5 H 112.513 V 112 H 112.476 V 114.5 Z M 112.513 114.5 H 112.551 V 112 H 112.513 V 114.5 Z M 112.551 114.5 H 112.588 V 112 H 112.551 V 114.5 Z M 112.588 114.5 H 112.626 V 112 H 112.588 V 114.5 Z M 112.626 114.5 H 112.664 V 112 H 112.626 V 114.5 Z M 112.664 114.5 H 112.701 V 112 H 112.664 V 114.5 Z M 112.701 114.5 H 112.739 V 112 H 112.701 V 114.5 Z M 112.739 114.5 H 112.777 V 112 H 112.739 V 114.5 Z M 112.777 114.5 H 112.815 V 112 H 112.777 V 114.5 Z M 112.815 114.5 H 112.853 V 112 H 112.815 V 114.5 Z M 112.853 114.5 H 112.891 V 112 H 112.853 V 114.5 Z M 112.891 114.5 H 112.929 V 112 H 112.891 V 114.5 Z M 112.929 114.5 H 112.967 V 112 H 112.929 V 114.5 Z M 112.967 114.5 H 113.005 V 112 H 112.967 V 114.5 Z M 113.005 114.5 H 113.043 V 112 H 113.005 V 114.5 Z M 113.043 114.5 H 113.081 V 112 H 113.043 V 114.5 Z M 113.081 114.5 H 113.119 V 112 H 113.081 V 114.5 Z M 113.119 114.5 H 113.157 V 112 H 113.119 V 114.5 Z M 113.157 114.5 H 113.195 V 112 H 113.157 V 114.5 Z M 113.195 114.5 H 113.233 V 112 H 113.195 V 114.5 Z M 113.233 114.5 H 113.272 V 112 H 113.233 V 114.5 Z M 113.272 114.5 H 113.31 V 112 H 113.272 V 114.5 Z M 113.31 114.5 H 113.348 V 112 H 113.31 V 114.5 Z M 113.348 114.5 H 113.387 V 112 H 113.348 V 114.5 Z M 113.387 114.5 H 113.425 V 112 H 113.387 V 114.5 Z M 113.425 114.5 H 113.464 V 112 H 113.425 V 114.5 Z M 113.464 114.5 H 113.502 V 112 H 113.464 V 114.5 Z M 113.502 114.5 H 113.541 V 112 H 113.502 V 114.5 Z M 113.541 114.5 H 113.579 V 112 H 113.541 V 114.5 Z M 113.579 114.5 H 113.618 V 112 H 113.579 V 114.5 Z M 113.618 114.5 H 113.656 V 112 H 113.618 V 114.5 Z M 113.656 114.5 H 113.695 V 112 H 113.656 V 114.5 Z M 113.695 114.5 H 113.734 V 112 H 113.695 V 114.5 Z M 113.734 114.5 H 113.772 V 112 H 113.734 V 114.5 Z M 113.772 114.5 H 113.811 V 112 H 113.772 V 114.5 Z M 113.811 114.5 H 113.85 V 112 H 113.811 V 114.5 Z M 113.85 114.5 H 113.889 V 112 H 113.85 V 114.5 Z M 113.889 114.5 H 113.928 V 112 H 113.889 V 114.5 Z M 113.928 114.5 H 113.966 V 112 H 113.928 V 114.5 Z M 113.966 114.5 H 114.005 V 112 H 113.966 V 114.5 Z M 114.005 114.5 H 114.044 V 112 H 114.005 V 114.5 Z M 114.044 114.5 H 114.083 V 112 H 114.044 V 114.5 Z M 114.083 114.5 H 114.122 V 112 H 114.083 V 114.5 Z M 114.122 114.5 H 114.161 V 112 H 114.122 V 114.5 Z M 114.161 114.5 H 114.2 V 112 H 114.161 V 114.5 Z M 114.2 114.5 H 114.239 V 112 H 114.2 V 114.5 Z M 114.239 114.5 H 114.279 V 112 H 114.239 V 114.5 Z M 114.279 114.5 H 114.318 V 112 H 114.279 V 114.5 Z M 114.318 114.5 H 114.357 V 112 H 114.318 V 114.5 Z M 114.357 114.5 H 114.396 V 112 H 114.357 V 114.5 Z M 114.396 114.5 H 114.435 V 112 H 114.396 V 114.5 Z M 114.435 114.5 H 114.475 V 112 H 114.435 V 114.5 Z M 114.475 114.5 H 114.514 V 112 H 114.475 V 114.5 Z M 114.514 114.5 H 114.553 V 112 H 114.514 V 114.5 Z M 114.553 114.5 H 114.593 V 112 H 114.553 V 114.5 Z M 114.593 114.5 H 114.632 V 112 H 114.593 V 114.5 Z M 114.632 114.5 H 114.671 V 112 H 114.632 V 114.5 Z M 114.671 114.5 H 114.711 V 112 H 114.671 V 114.5 Z M 114.711 114.5 H 114.75 V 112 H 114.711 V 114.5 Z M 114.75 114.5 H 114.79 V 112 H 114.75 V 114.5 Z M 114.79 114.5 H 114.829 V 112 H 114.79 V 114.5 Z M 114.829 114.5 H 114.869 V 112 H 114.829 V 114.5 Z M 114.869 114.5 H 114.908 V 112 H 114.869 V 114.5 Z M 114.908 114.5 H 114.948 V 112 H 114.908 V 114.5 Z M 114.948 114.5 H 114.988 V 112 H 114.948 V 114.5 Z M 114.988 114.5 H 115.027 V 112 H 114.988 V 114.5 Z M 115.027 114.5 H 115.067 V 112 H 115.027 V 114.5 Z M 115.067 114.5 H 115.107 V 112 H 115.067 V 114.5 Z M 115.107 114.5 H 115.146 V 112 H 115.107 V 114.5 Z M 115.146 114.5 H 115.186 V 112 H 115.146 V 114.5 Z M 115.186 114.5 H 115.226 V 112 H 115.186 V 114.5 Z M 115.226 114.5 H 115.266 V 112 H 115.226 V 114.5 Z M 115.266 114.5 H 115.305 V 112 H 115.266 V 114.5 Z M 115.305 114.5 H 115.345 V 112 H 115.305 V 114.5 Z M 115.345 114.5 H 115.385 V 112 H 115.345 V 114.5 Z M 115.385 114.5 H 115.425 V 112 H 115.385 V 114.5 Z M 115.425 114.5 H 115.465 V 112 H 115.425 V 114.5 Z M 115.465 114.5 H 115.505 V 112 H 115.465 V 114.5 Z M 115.505 114.5 H 115.545 V 112 H 115.505 V 114.5 Z M 115.545 114.5 H 115.585 V 112 H 115.545 V 114.5 Z M 115.585 114.5 H 115.625 V 112 H 115.585 V 114.5 Z M 115.625 114.5 H 115.665 V 112 H 115.625 V 114.5 Z M 115.665 114.5 H 115.705 V 112 H 115.665 V 114.5 Z M 115.705 114.5 H 115.745 V 112 H 115.705 V 114.5 Z M 115.745 114.5 C 115.929 114.5 115.869 114.533 115.696 114.445 L 116.83 112.217 C 116.566 112.083 116.215 112 115.745 112 V 114.5 Z M 115.696 114.445 C 115.678 114.436 115.579 114.386 115.468 114.289 C 115.403 114.233 115.337 114.163 115.277 114.079 C 115.221 114.001 115.186 113.93 115.189 113.935 L 117.406 112.78 C 117.374 112.719 117.286 112.558 117.111 112.405 C 116.99 112.3 116.875 112.24 116.83 112.217 L 115.696 114.445 Z M 115.189 113.935 C 115.189 113.935 115.189 113.935 115.189 113.935 C 115.189 113.935 115.189 113.936 115.189 113.936 C 115.189 113.936 115.189 113.936 115.189 113.936 C 115.19 113.936 115.19 113.937 115.19 113.938 C 115.191 113.94 115.193 113.942 115.194 113.946 C 115.198 113.952 115.203 113.963 115.21 113.975 L 117.387 112.744 C 117.393 112.756 117.398 112.766 117.401 112.771 C 117.404 112.777 117.407 112.781 117.406 112.78 L 115.189 113.935 Z M 115.21 113.975 C 115.161 113.887 115.137 113.817 115.127 113.782 C 115.115 113.744 115.113 113.724 115.114 113.731 L 117.592 113.4 C 117.563 113.181 117.504 112.952 117.387 112.744 L 115.21 113.975 Z M 115.114 113.731 C 115.118 113.762 115.121 113.813 115.121 114 H 117.621 C 117.621 113.833 117.621 113.621 117.592 113.4 L 115.114 113.731 Z M 115.121 114 C 115.121 122.062 121.791 128.5 129.897 128.5 V 126 C 123.117 126 117.621 120.627 117.621 114 H 115.121 Z M 129.897 128.5 C 138.003 128.5 144.673 122.062 144.673 114 H 142.173 C 142.173 120.627 136.678 126 129.897 126 V 128.5 Z M 144.673 114 C 144.673 113.813 144.676 113.762 144.681 113.731 L 142.203 113.4 C 142.173 113.621 142.173 113.833 142.173 114 H 144.673 Z M 144.681 113.731 C 144.682 113.724 144.68 113.744 144.668 113.782 C 144.658 113.817 144.634 113.887 144.584 113.975 L 142.408 112.744 C 142.291 112.952 142.232 113.181 142.203 113.4 L 144.681 113.731 Z M 144.585 113.973 C 144.592 113.961 144.597 113.951 144.601 113.944 C 144.603 113.941 144.604 113.938 144.605 113.937 C 144.606 113.935 144.607 113.934 144.607 113.933 L 142.388 112.782 C 142.387 112.783 142.39 112.778 142.392 112.773 C 142.396 112.767 142.401 112.758 142.407 112.746 L 144.585 113.973 Z M 144.606 113.936 C 144.608 113.931 144.573 114.001 144.518 114.079 C 144.457 114.163 144.391 114.233 144.326 114.29 C 144.216 114.386 144.116 114.436 144.099 114.445 L 142.965 112.217 C 142.919 112.24 142.804 112.3 142.684 112.405 C 142.508 112.558 142.421 112.719 142.389 112.779 L 144.606 113.936 Z M 144.099 114.445 C 143.926 114.533 143.866 114.5 144.05 114.5 V 112 C 143.58 112 143.228 112.083 142.965 112.217 L 144.099 114.445 Z M 144.05 114.5 H 169 V 112 H 144.05 V 114.5 Z M 169 114.5 C 170.381 114.5 171.5 113.381 171.5 112 H 169 V 114.5 Z M 171.5 112 C 171.5 110.619 170.381 109.5 169 109.5 V 112 H 171.5 Z M 169 109.5 H 144.05 V 112 H 169 V 109.5 Z M 144.05 109.5 C 142.448 109.5 141.016 110.127 140.232 111.514 L 142.408 112.744 C 142.64 112.334 143.106 112 144.05 112 V 109.5 Z M 140.232 111.514 C 139.652 112.539 139.672 113.635 139.673 113.959 L 142.173 113.949 C 142.172 113.622 142.186 113.137 142.408 112.744 L 140.232 111.514 Z M 139.673 113.959 C 139.673 113.976 139.673 113.989 139.673 114 H 142.173 C 142.173 113.983 142.173 113.965 142.173 113.949 L 139.673 113.959 Z M 139.673 114 C 139.673 119.194 135.349 123.5 129.897 123.5 V 126 C 136.678 126 142.173 120.626 142.173 114 H 139.673 Z M 129.897 123.5 C 124.445 123.5 120.121 119.194 120.121 114 H 117.621 C 117.621 120.626 123.116 126 129.897 126 V 123.5 Z M 120.121 114 C 120.121 113.989 120.121 113.976 120.121 113.959 L 117.621 113.949 C 117.621 113.965 117.621 113.983 117.621 114 H 120.121 Z M 120.121 113.959 C 120.123 113.635 120.142 112.539 119.563 111.514 L 117.387 112.744 C 117.609 113.137 117.623 113.622 117.621 113.949 L 120.121 113.959 Z M 119.563 111.514 C 118.779 110.127 117.346 109.5 115.745 109.5 V 112 C 116.689 112 117.154 112.334 117.387 112.744 L 119.563 111.514 Z M 115.745 109.5 H 115.705 V 112 H 115.745 V 109.5 Z M 115.705 109.5 H 115.665 V 112 H 115.705 V 109.5 Z M 115.665 109.5 H 115.625 V 112 H 115.665 V 109.5 Z M 115.625 109.5 H 115.585 V 112 H 115.625 V 109.5 Z M 115.585 109.5 H 115.545 V 112 H 115.585 V 109.5 Z M 115.545 109.5 H 115.505 V 112 H 115.545 V 109.5 Z M 115.505 109.5 H 115.465 V 112 H 115.505 V 109.5 Z M 115.465 109.5 H 115.425 V 112 H 115.465 V 109.5 Z M 115.425 109.5 H 115.385 V 112 H 115.425 V 109.5 Z M 115.385 109.5 H 115.345 V 112 H 115.385 V 109.5 Z M 115.345 109.5 H 115.305 V 112 H 115.345 V 109.5 Z M 115.305 109.5 H 115.266 V 112 H 115.305 V 109.5 Z M 115.266 109.5 H 115.226 V 112 H 115.266 V 109.5 Z M 115.226 109.5 H 115.186 V 112 H 115.226 V 109.5 Z M 115.186 109.5 H 115.146 V 112 H 115.186 V 109.5 Z M 115.146 109.5 H 115.107 V 112 H 115.146 V 109.5 Z M 115.107 109.5 H 115.067 V 112 H 115.107 V 109.5 Z M 115.067 109.5 H 115.027 V 112 H 115.067 V 109.5 Z M 115.027 109.5 H 114.988 V 112 H 115.027 V 109.5 Z M 114.988 109.5 H 114.948 V 112 H 114.988 V 109.5 Z M 114.948 109.5 H 114.908 V 112 H 114.948 V 109.5 Z M 114.908 109.5 H 114.869 V 112 H 114.908 V 109.5 Z M 114.869 109.5 H 114.829 V 112 H 114.869 V 109.5 Z M 114.829 109.5 H 114.79 V 112 H 114.829 V 109.5 Z M 114.79 109.5 H 114.75 V 112 H 114.79 V 109.5 Z M 114.75 109.5 H 114.711 V 112 H 114.75 V 109.5 Z M 114.711 109.5 H 114.671 V 112 H 114.711 V 109.5 Z M 114.671 109.5 H 114.632 V 112 H 114.671 V 109.5 Z M 114.632 109.5 H 114.593 V 112 H 114.632 V 109.5 Z M 114.593 109.5 H 114.553 V 112 H 114.593 V 109.5 Z M 114.553 109.5 H 114.514 V 112 H 114.553 V 109.5 Z M 114.514 109.5 H 114.475 V 112 H 114.514 V 109.5 Z M 114.475 109.5 H 114.435 V 112 H 114.475 V 109.5 Z M 114.435 109.5 H 114.396 V 112 H 114.435 V 109.5 Z M 114.396 109.5 H 114.357 V 112 H 114.396 V 109.5 Z M 114.357 109.5 H 114.318 V 112 H 114.357 V 109.5 Z M 114.318 109.5 H 114.279 V 112 H 114.318 V 109.5 Z M 114.279 109.5 H 114.239 V 112 H 114.279 V 109.5 Z M 114.239 109.5 H 114.2 V 112 H 114.239 V 109.5 Z M 114.2 109.5 H 114.161 V 112 H 114.2 V 109.5 Z M 114.161 109.5 H 114.122 V 112 H 114.161 V 109.5 Z M 114.122 109.5 H 114.083 V 112 H 114.122 V 109.5 Z M 114.083 109.5 H 114.044 V 112 H 114.083 V 109.5 Z M 114.044 109.5 H 114.005 V 112 H 114.044 V 109.5 Z M 114.005 109.5 H 113.966 V 112 H 114.005 V 109.5 Z M 113.966 109.5 H 113.928 V 112 H 113.966 V 109.5 Z M 113.928 109.5 H 113.889 V 112 H 113.928 V 109.5 Z M 113.889 109.5 H 113.85 V 112 H 113.889 V 109.5 Z M 113.85 109.5 H 113.811 V 112 H 113.85 V 109.5 Z M 113.811 109.5 H 113.772 V 112 H 113.811 V 109.5 Z M 113.772 109.5 H 113.734 V 112 H 113.772 V 109.5 Z M 113.734 109.5 H 113.695 V 112 H 113.734 V 109.5 Z M 113.695 109.5 H 113.656 V 112 H 113.695 V 109.5 Z M 113.656 109.5 H 113.618 V 112 H 113.656 V 109.5 Z M 113.618 109.5 H 113.579 V 112 H 113.618 V 109.5 Z M 113.579 109.5 H 113.541 V 112 H 113.579 V 109.5 Z M 113.541 109.5 H 113.502 V 112 H 113.541 V 109.5 Z M 113.502 109.5 H 113.464 V 112 H 113.502 V 109.5 Z M 113.464 109.5 H 113.425 V 112 H 113.464 V 109.5 Z M 113.425 109.5 H 113.387 V 112 H 113.425 V 109.5 Z M 113.387 109.5 H 113.348 V 112 H 113.387 V 109.5 Z M 113.348 109.5 H 113.31 V 112 H 113.348 V 109.5 Z M 113.31 109.5 H 113.272 V 112 H 113.31 V 109.5 Z M 113.272 109.5 H 113.233 V 112 H 113.272 V 109.5 Z M 113.233 109.5 H 113.195 V 112 H 113.233 V 109.5 Z M 113.195 109.5 H 113.157 V 112 H 113.195 V 109.5 Z M 113.157 109.5 H 113.119 V 112 H 113.157 V 109.5 Z M 113.119 109.5 H 113.081 V 112 H 113.119 V 109.5 Z M 113.081 109.5 H 113.043 V 112 H 113.081 V 109.5 Z M 113.043 109.5 H 113.005 V 112 H 113.043 V 109.5 Z M 113.005 109.5 H 112.967 V 112 H 113.005 V 109.5 Z M 112.967 109.5 H 112.929 V 112 H 112.967 V 109.5 Z M 112.929 109.5 H 112.891 V 112 H 112.929 V 109.5 Z M 112.891 109.5 H 112.853 V 112 H 112.891 V 109.5 Z M 112.853 109.5 H 112.815 V 112 H 112.853 V 109.5 Z M 112.815 109.5 H 112.777 V 112 H 112.815 V 109.5 Z M 112.777 109.5 H 112.739 V 112 H 112.777 V 109.5 Z M 112.739 109.5 H 112.701 V 112 H 112.739 V 109.5 Z M 112.701 109.5 H 112.664 V 112 H 112.701 V 109.5 Z M 112.664 109.5 H 112.626 V 112 H 112.664 V 109.5 Z M 112.626 109.5 H 112.588 V 112 H 112.626 V 109.5 Z M 112.588 109.5 H 112.551 V 112 H 112.588 V 109.5 Z M 112.551 109.5 H 112.513 V 112 H 112.551 V 109.5 Z M 112.513 109.5 H 112.476 V 112 H 112.513 V 109.5 Z M 112.476 109.5 H 112.438 V 112 H 112.476 V 109.5 Z M 112.438 109.5 H 112.401 V 112 H 112.438 V 109.5 Z M 112.401 109.5 H 112.363 V 112 H 112.401 V 109.5 Z M 112.363 109.5 H 112.326 V 112 H 112.363 V 109.5 Z M 112.326 109.5 H 112.289 V 112 H 112.326 V 109.5 Z M 112.289 109.5 H 112.252 V 112 H 112.289 V 109.5 Z M 112.252 109.5 H 112.214 V 112 H 112.252 V 109.5 Z M 112.214 109.5 H 112.177 V 112 H 112.214 V 109.5 Z M 112.177 109.5 H 112.14 V 112 H 112.177 V 109.5 Z M 112.14 109.5 H 112.103 V 112 H 112.14 V 109.5 Z M 112.103 109.5 H 112.066 V 112 H 112.103 V 109.5 Z M 112.066 109.5 H 112.029 V 112 H 112.066 V 109.5 Z M 112.029 109.5 H 111.992 V 112 H 112.029 V 109.5 Z M 111.992 109.5 H 111.955 V 112 H 111.992 V 109.5 Z M 111.955 109.5 H 111.918 V 112 H 111.955 V 109.5 Z M 111.918 109.5 H 111.881 V 112 H 111.918 V 109.5 Z M 111.881 109.5 H 111.844 V 112 H 111.881 V 109.5 Z M 111.844 109.5 H 111.808 V 112 H 111.844 V 109.5 Z M 111.808 109.5 H 111.771 V 112 H 111.808 V 109.5 Z M 111.771 109.5 H 111.734 V 112 H 111.771 V 109.5 Z M 111.734 109.5 H 111.698 V 112 H 111.734 V 109.5 Z M 111.698 109.5 H 111.661 V 112 H 111.698 V 109.5 Z M 111.661 109.5 H 111.624 V 112 H 111.661 V 109.5 Z M 111.624 109.5 H 111.588 V 112 H 111.624 V 109.5 Z M 111.588 109.5 H 111.551 V 112 H 111.588 V 109.5 Z M 111.551 109.5 H 111.515 V 112 H 111.551 V 109.5 Z M 111.515 109.5 H 111.479 V 112 H 111.515 V 109.5 Z M 111.479 109.5 H 111.442 V 112 H 111.479 V 109.5 Z M 111.442 109.5 H 111.406 V 112 H 111.442 V 109.5 Z M 111.406 109.5 H 111.37 V 112 H 111.406 V 109.5 Z M 111.37 109.5 H 111.334 V 112 H 111.37 V 109.5 Z M 111.334 109.5 H 111.298 V 112 H 111.334 V 109.5 Z M 111.298 109.5 H 111.262 V 112 H 111.298 V 109.5 Z M 111.262 109.5 H 111.226 V 112 H 111.262 V 109.5 Z M 111.226 109.5 H 111.19 V 112 H 111.226 V 109.5 Z M 111.19 109.5 H 111.154 V 112 H 111.19 V 109.5 Z M 111.154 109.5 H 111.118 V 112 H 111.154 V 109.5 Z M 111.118 109.5 H 111.082 V 112 H 111.118 V 109.5 Z M 111.082 109.5 H 111.046 V 112 H 111.082 V 109.5 Z M 111.046 109.5 H 111.01 V 112 H 111.046 V 109.5 Z M 111.01 109.5 H 110.975 V 112 H 111.01 V 109.5 Z M 110.975 109.5 H 110.939 V 112 H 110.975 V 109.5 Z M 110.939 109.5 H 110.903 V 112 H 110.939 V 109.5 Z M 110.903 109.5 H 110.868 V 112 H 110.903 V 109.5 Z M 110.868 109.5 H 110.832 V 112 H 110.868 V 109.5 Z M 110.832 109.5 H 110.797 V 112 H 110.832 V 109.5 Z M 110.797 109.5 H 110.762 V 112 H 110.797 V 109.5 Z M 110.762 109.5 H 110.726 V 112 H 110.762 V 109.5 Z M 110.726 109.5 H 110.691 V 112 H 110.726 V 109.5 Z M 110.691 109.5 H 110.656 V 112 H 110.691 V 109.5 Z M 110.656 109.5 H 110.62 V 112 H 110.656 V 109.5 Z M 110.62 109.5 H 110.585 V 112 H 110.62 V 109.5 Z M 110.585 109.5 H 110.55 V 112 H 110.585 V 109.5 Z M 110.55 109.5 H 110.515 V 112 H 110.55 V 109.5 Z M 110.515 109.5 H 110.48 V 112 H 110.515 V 109.5 Z M 110.48 109.5 H 110.445 V 112 H 110.48 V 109.5 Z M 110.445 109.5 H 110.41 V 112 H 110.445 V 109.5 Z M 110.41 109.5 H 110.376 V 112 H 110.41 V 109.5 Z M 110.376 109.5 H 110.341 V 112 H 110.376 V 109.5 Z M 110.341 109.5 H 110.306 V 112 H 110.341 V 109.5 Z M 110.306 109.5 H 110.271 V 112 H 110.306 V 109.5 Z M 110.271 109.5 H 110.237 V 112 H 110.271 V 109.5 Z M 110.237 109.5 H 110.202 V 112 H 110.237 V 109.5 Z M 110.202 109.5 H 110.168 V 112 H 110.202 V 109.5 Z M 110.168 109.5 H 110.133 V 112 H 110.168 V 109.5 Z M 110.133 109.5 H 110.099 V 112 H 110.133 V 109.5 Z M 110.099 109.5 H 110.065 V 112 H 110.099 V 109.5 Z M 110.065 109.5 H 110.03 V 112 H 110.065 V 109.5 Z M 110.03 109.5 H 109.996 V 112 H 110.03 V 109.5 Z M 109.996 109.5 H 109.962 V 112 H 109.996 V 109.5 Z M 109.962 109.5 H 109.928 V 112 H 109.962 V 109.5 Z M 109.928 109.5 H 109.894 V 112 H 109.928 V 109.5 Z M 109.894 109.5 H 109.86 V 112 H 109.894 V 109.5 Z M 109.86 109.5 H 109.826 V 112 H 109.86 V 109.5 Z M 109.826 109.5 H 109.792 V 112 H 109.826 V 109.5 Z M 109.792 109.5 H 109.758 V 112 H 109.792 V 109.5 Z M 109.758 109.5 H 109.724 V 112 H 109.758 V 109.5 Z M 109.724 109.5 H 109.69 V 112 H 109.724 V 109.5 Z M 109.69 109.5 H 109.657 V 112 H 109.69 V 109.5 Z M 109.657 109.5 H 109.623 V 112 H 109.657 V 109.5 Z M 109.623 109.5 H 109.59 V 112 H 109.623 V 109.5 Z M 109.59 109.5 H 109.556 V 112 H 109.59 V 109.5 Z M 109.556 109.5 H 109.523 V 112 H 109.556 V 109.5 Z M 109.523 109.5 H 109.489 V 112 H 109.523 V 109.5 Z M 109.489 109.5 H 109.456 V 112 H 109.489 V 109.5 Z M 109.456 109.5 H 109.423 V 112 H 109.456 V 109.5 Z M 109.423 109.5 H 109.39 V 112 H 109.423 V 109.5 Z M 109.39 109.5 H 109.356 V 112 H 109.39 V 109.5 Z M 109.356 109.5 H 109.323 V 112 H 109.356 V 109.5 Z M 109.323 109.5 H 109.29 V 112 H 109.323 V 109.5 Z M 109.29 109.5 H 109.257 V 112 H 109.29 V 109.5 Z M 109.257 109.5 H 109.224 V 112 H 109.257 V 109.5 Z M 109.224 109.5 H 109.192 V 112 H 109.224 V 109.5 Z M 109.192 109.5 H 109.159 V 112 H 109.192 V 109.5 Z M 109.159 109.5 H 109.126 V 112 H 109.159 V 109.5 Z M 109.126 109.5 H 109.093 V 112 H 109.126 V 109.5 Z M 109.093 109.5 H 109.061 V 112 H 109.093 V 109.5 Z M 109.061 109.5 H 109.028 V 112 H 109.061 V 109.5 Z M 109.028 109.5 H 108.996 V 112 H 109.028 V 109.5 Z M 108.996 109.5 H 108.963 V 112 H 108.996 V 109.5 Z M 108.963 109.5 H 108.931 V 112 H 108.963 V 109.5 Z M 108.931 109.5 H 108.899 V 112 H 108.931 V 109.5 Z M 108.899 109.5 H 108.867 V 112 H 108.899 V 109.5 Z M 108.867 109.5 H 108.834 V 112 H 108.867 V 109.5 Z M 108.834 109.5 H 108.802 V 112 H 108.834 V 109.5 Z M 108.802 109.5 H 108.77 V 112 H 108.802 V 109.5 Z M 108.77 109.5 H 108.738 V 112 H 108.77 V 109.5 Z M 108.738 109.5 H 108.706 V 112 H 108.738 V 109.5 Z M 108.706 109.5 H 108.675 V 112 H 108.706 V 109.5 Z M 108.675 109.5 H 108.643 V 112 H 108.675 V 109.5 Z M 108.643 109.5 H 108.611 V 112 H 108.643 V 109.5 Z M 108.611 109.5 H 108.579 V 112 H 108.611 V 109.5 Z M 108.579 109.5 H 108.548 V 112 H 108.579 V 109.5 Z M 108.548 109.5 H 108.516 V 112 H 108.548 V 109.5 Z M 108.516 109.5 H 108.485 V 112 H 108.516 V 109.5 Z M 108.485 109.5 H 108.454 V 112 H 108.485 V 109.5 Z M 108.454 109.5 H 108.422 V 112 H 108.454 V 109.5 Z M 108.422 109.5 H 108.391 V 112 H 108.422 V 109.5 Z M 108.391 109.5 H 108.36 V 112 H 108.391 V 109.5 Z M 108.36 109.5 H 108.329 V 112 H 108.36 V 109.5 Z M 108.329 109.5 H 108.298 V 112 H 108.329 V 109.5 Z M 108.298 109.5 H 108.267 V 112 H 108.298 V 109.5 Z M 108.267 109.5 H 108.236 V 112 H 108.267 V 109.5 Z M 108.236 109.5 H 108.205 V 112 H 108.236 V 109.5 Z M 108.205 109.5 H 108.174 V 112 H 108.205 V 109.5 Z M 108.174 109.5 H 108.143 V 112 H 108.174 V 109.5 Z M 108.143 109.5 H 108.113 V 112 H 108.143 V 109.5 Z M 108.113 109.5 H 108.082 V 112 H 108.113 V 109.5 Z M 108.082 109.5 H 108.052 V 112 H 108.082 V 109.5 Z M 108.052 109.5 H 108.021 V 112 H 108.052 V 109.5 Z M 108.021 109.5 H 107.991 V 112 H 108.021 V 109.5 Z M 107.991 109.5 H 107.96 V 112 H 107.991 V 109.5 Z M 107.96 109.5 H 107.93 V 112 H 107.96 V 109.5 Z M 107.93 109.5 H 107.9 V 112 H 107.93 V 109.5 Z M 107.9 109.5 H 107.87 V 112 H 107.9 V 109.5 Z M 107.87 109.5 H 107.84 V 112 H 107.87 V 109.5 Z M 107.84 109.5 H 107.81 V 112 H 107.84 V 109.5 Z M 107.81 109.5 H 107.78 V 112 H 107.81 V 109.5 Z M 107.78 109.5 H 107.75 V 112 H 107.78 V 109.5 Z M 107.75 109.5 H 107.721 V 112 H 107.75 V 109.5 Z M 107.721 109.5 H 107.691 V 112 H 107.721 V 109.5 Z M 107.691 109.5 H 107.661 V 112 H 107.691 V 109.5 Z M 107.661 109.5 H 107.632 V 112 H 107.661 V 109.5 Z M 107.632 109.5 H 107.602 V 112 H 107.632 V 109.5 Z M 107.602 109.5 H 107.573 V 112 H 107.602 V 109.5 Z M 107.573 109.5 H 107.544 V 112 H 107.573 V 109.5 Z M 107.544 109.5 H 107.514 V 112 H 107.544 V 109.5 Z M 107.514 109.5 H 107.485 V 112 H 107.514 V 109.5 Z M 107.485 109.5 H 107.456 V 112 H 107.485 V 109.5 Z M 107.456 109.5 H 107.427 V 112 H 107.456 V 109.5 Z M 107.427 109.5 H 107.398 V 112 H 107.427 V 109.5 Z M 107.398 109.5 H 107.369 V 112 H 107.398 V 109.5 Z M 107.369 109.5 H 107.34 V 112 H 107.369 V 109.5 Z M 107.34 109.5 H 107.312 V 112 H 107.34 V 109.5 Z M 107.312 109.5 H 107.283 V 112 H 107.312 V 109.5 Z M 107.283 109.5 H 107.254 V 112 H 107.283 V 109.5 Z M 107.254 109.5 H 107.226 V 112 H 107.254 V 109.5 Z M 107.226 109.5 H 107.197 V 112 H 107.226 V 109.5 Z M 107.197 109.5 H 107.169 V 112 H 107.197 V 109.5 Z M 107.169 109.5 H 107.141 V 112 H 107.169 V 109.5 Z M 107.141 109.5 H 107.113 V 112 H 107.141 V 109.5 Z M 107.113 109.5 H 107.085 V 112 H 107.113 V 109.5 Z M 107.085 109.5 H 107.056 V 112 H 107.085 V 109.5 Z M 107.056 109.5 H 107.028 V 112 H 107.056 V 109.5 Z M 107.028 109.5 H 107.001 V 112 H 107.028 V 109.5 Z M 107.001 109.5 H 106.973 V 112 H 107.001 V 109.5 Z M 106.973 109.5 H 106.945 V 112 H 106.973 V 109.5 Z M 106.945 109.5 H 106.917 V 112 H 106.945 V 109.5 Z M 106.917 109.5 H 106.89 V 112 H 106.917 V 109.5 Z M 106.89 109.5 H 106.862 V 112 H 106.89 V 109.5 Z M 106.862 109.5 H 106.835 V 112 H 106.862 V 109.5 Z M 106.835 109.5 H 106.807 V 112 H 106.835 V 109.5 Z M 106.807 109.5 H 106.78 V 112 H 106.807 V 109.5 Z M 106.78 109.5 H 106.753 V 112 H 106.78 V 109.5 Z M 106.753 109.5 H 106.726 V 112 H 106.753 V 109.5 Z M 106.726 109.5 H 106.699 V 112 H 106.726 V 109.5 Z M 106.699 109.5 H 106.672 V 112 H 106.699 V 109.5 Z M 106.672 109.5 H 106.645 V 112 H 106.672 V 109.5 Z M 106.645 109.5 H 106.618 V 112 H 106.645 V 109.5 Z M 106.618 109.5 H 106.591 V 112 H 106.618 V 109.5 Z M 106.591 109.5 H 106.565 V 112 H 106.591 V 109.5 Z M 106.565 109.5 H 106.538 V 112 H 106.565 V 109.5 Z M 106.538 109.5 H 106.512 V 112 H 106.538 V 109.5 Z M 106.512 109.5 H 106.485 V 112 H 106.512 V 109.5 Z M 106.485 109.5 H 106.459 V 112 H 106.485 V 109.5 Z M 106.459 109.5 H 106.433 V 112 H 106.459 V 109.5 Z M 106.433 109.5 H 106.407 V 112 H 106.433 V 109.5 Z M 106.407 109.5 H 106.381 V 112 H 106.407 V 109.5 Z M 106.381 109.5 H 106.355 V 112 H 106.381 V 109.5 Z M 106.355 109.5 H 106.329 V 112 H 106.355 V 109.5 Z M 106.329 109.5 H 106.303 V 112 H 106.329 V 109.5 Z M 106.303 109.5 H 106.277 V 112 H 106.303 V 109.5 Z M 106.277 109.5 H 106.251 V 112 H 106.277 V 109.5 Z M 106.251 109.5 H 106.226 V 112 H 106.251 V 109.5 Z M 106.226 109.5 H 106.2 V 112 H 106.226 V 109.5 Z M 106.2 109.5 H 106.175 V 112 H 106.2 V 109.5 Z M 106.175 109.5 H 106.149 V 112 H 106.175 V 109.5 Z M 106.149 109.5 H 106.124 V 112 H 106.149 V 109.5 Z M 106.124 109.5 H 106.099 V 112 H 106.124 V 109.5 Z M 106.099 109.5 H 106.074 V 112 H 106.099 V 109.5 Z M 106.074 109.5 H 106.049 V 112 H 106.074 V 109.5 Z M 106.049 109.5 H 106.024 V 112 H 106.049 V 109.5 Z M 106.024 109.5 H 105.999 V 112 H 106.024 V 109.5 Z M 105.999 109.5 H 105.975 V 112 H 105.999 V 109.5 Z M 105.975 109.5 H 105.95 V 112 H 105.975 V 109.5 Z M 105.95 109.5 H 105.925 V 112 H 105.95 V 109.5 Z M 105.925 109.5 H 105.901 V 112 H 105.925 V 109.5 Z M 105.901 109.5 H 105.876 V 112 H 105.901 V 109.5 Z M 105.876 109.5 H 105.852 V 112 H 105.876 V 109.5 Z M 105.852 109.5 H 105.828 V 112 H 105.852 V 109.5 Z M 105.828 109.5 H 105.804 V 112 H 105.828 V 109.5 Z M 105.804 109.5 H 105.78 V 112 H 105.804 V 109.5 Z M 105.78 109.5 H 105.756 V 112 H 105.78 V 109.5 Z M 105.756 109.5 H 105.732 V 112 H 105.756 V 109.5 Z M 105.732 109.5 H 105.708 V 112 H 105.732 V 109.5 Z M 105.708 109.5 H 105.684 V 112 H 105.708 V 109.5 Z M 105.684 109.5 H 105.661 V 112 H 105.684 V 109.5 Z M 105.661 109.5 H 105.637 V 112 H 105.661 V 109.5 Z M 105.637 109.5 H 105.614 V 112 H 105.637 V 109.5 Z M 105.614 109.5 H 105.59 V 112 H 105.614 V 109.5 Z M 105.59 109.5 H 105.567 V 112 H 105.59 V 109.5 Z M 105.567 109.5 H 105.544 V 112 H 105.567 V 109.5 Z M 105.544 109.5 H 105.521 V 112 H 105.544 V 109.5 Z M 105.521 109.5 H 105.498 V 112 H 105.521 V 109.5 Z M 105.498 109.5 H 105.475 V 112 H 105.498 V 109.5 Z M 105.475 109.5 H 105.452 V 112 H 105.475 V 109.5 Z M 105.452 109.5 H 105.429 V 112 H 105.452 V 109.5 Z M 105.429 109.5 H 105.407 V 112 H 105.429 V 109.5 Z M 105.407 109.5 H 105.384 V 112 H 105.407 V 109.5 Z M 105.384 109.5 H 105.362 V 112 H 105.384 V 109.5 Z M 105.362 109.5 H 105.339 V 112 H 105.362 V 109.5 Z M 105.339 109.5 H 105.317 V 112 H 105.339 V 109.5 Z M 105.317 109.5 H 105.295 V 112 H 105.317 V 109.5 Z M 105.295 109.5 H 105.273 V 112 H 105.295 V 109.5 Z M 105.273 109.5 H 105.251 V 112 H 105.273 V 109.5 Z M 105.251 109.5 H 105.229 V 112 H 105.251 V 109.5 Z M 105.229 109.5 H 105.207 V 112 H 105.229 V 109.5 Z M 105.207 109.5 H 105.186 V 112 H 105.207 V 109.5 Z M 105.186 109.5 H 105.164 V 112 H 105.186 V 109.5 Z M 105.164 109.5 H 105.142 V 112 H 105.164 V 109.5 Z M 105.142 109.5 H 105.121 V 112 H 105.142 V 109.5 Z M 105.121 109.5 H 105.1 V 112 H 105.121 V 109.5 Z M 105.1 109.5 H 105.078 V 112 H 105.1 V 109.5 Z M 105.078 109.5 H 105.057 V 112 H 105.078 V 109.5 Z M 105.057 109.5 H 105.036 V 112 H 105.057 V 109.5 Z M 105.036 109.5 H 105.015 V 112 H 105.036 V 109.5 Z M 105.015 109.5 H 104.994 V 112 H 105.015 V 109.5 Z M 104.994 109.5 H 104.974 V 112 H 104.994 V 109.5 Z M 104.974 109.5 H 104.953 V 112 H 104.974 V 109.5 Z M 104.953 109.5 H 104.932 V 112 H 104.953 V 109.5 Z M 104.932 109.5 H 104.912 V 112 H 104.932 V 109.5 Z M 104.912 109.5 H 104.891 V 112 H 104.912 V 109.5 Z M 104.891 109.5 H 104.871 V 112 H 104.891 V 109.5 Z M 104.871 109.5 H 104.851 V 112 H 104.871 V 109.5 Z M 104.851 109.5 H 104.831 V 112 H 104.851 V 109.5 Z M 104.831 109.5 H 104.811 V 112 H 104.831 V 109.5 Z M 104.811 109.5 H 104.791 V 112 H 104.811 V 109.5 Z M 104.791 109.5 H 104.771 V 112 H 104.791 V 109.5 Z M 104.771 109.5 H 104.751 V 112 H 104.771 V 109.5 Z M 104.751 109.5 H 104.732 V 112 H 104.751 V 109.5 Z M 104.732 109.5 H 104.712 V 112 H 104.732 V 109.5 Z M 104.712 109.5 H 104.693 V 112 H 104.712 V 109.5 Z M 104.693 109.5 H 104.673 V 112 H 104.693 V 109.5 Z M 104.673 109.5 H 104.654 V 112 H 104.673 V 109.5 Z M 104.654 109.5 H 104.635 V 112 H 104.654 V 109.5 Z M 104.635 109.5 H 104.616 V 112 H 104.635 V 109.5 Z M 104.616 109.5 H 104.597 V 112 H 104.616 V 109.5 Z M 104.597 109.5 H 104.578 V 112 H 104.597 V 109.5 Z M 104.578 109.5 H 104.56 V 112 H 104.578 V 109.5 Z M 104.56 109.5 H 104.541 V 112 H 104.56 V 109.5 Z M 104.541 109.5 H 104.522 V 112 H 104.541 V 109.5 Z M 104.522 109.5 H 104.504 V 112 H 104.522 V 109.5 Z M 104.504 109.5 H 104.486 V 112 H 104.504 V 109.5 Z M 104.486 109.5 H 104.467 V 112 H 104.486 V 109.5 Z M 104.467 109.5 H 104.449 V 112 H 104.467 V 109.5 Z M 104.449 109.5 H 104.431 V 112 H 104.449 V 109.5 Z M 104.431 109.5 H 104.413 V 112 H 104.431 V 109.5 Z M 104.413 109.5 H 104.395 V 112 H 104.413 V 109.5 Z M 104.395 109.5 H 104.378 V 112 H 104.395 V 109.5 Z M 104.378 109.5 H 104.36 V 112 H 104.378 V 109.5 Z M 104.36 109.5 H 104.343 V 112 H 104.36 V 109.5 Z M 104.343 109.5 H 104.325 V 112 H 104.343 V 109.5 Z M 104.325 109.5 H 104.308 V 112 H 104.325 V 109.5 Z M 104.308 109.5 H 104.291 V 112 H 104.308 V 109.5 Z M 104.291 109.5 H 104.274 V 112 H 104.291 V 109.5 Z M 104.274 109.5 H 104.257 V 112 H 104.274 V 109.5 Z M 104.257 109.5 H 104.24 V 112 H 104.257 V 109.5 Z M 104.24 109.5 H 104.223 V 112 H 104.24 V 109.5 Z M 104.223 109.5 H 104.206 V 112 H 104.223 V 109.5 Z M 104.206 109.5 H 104.19 V 112 H 104.206 V 109.5 Z M 104.19 109.5 H 104.173 V 112 H 104.19 V 109.5 Z M 104.173 109.5 H 104.157 V 112 H 104.173 V 109.5 Z M 104.157 109.5 H 104.14 V 112 H 104.157 V 109.5 Z M 104.14 109.5 H 104.124 V 112 H 104.14 V 109.5 Z M 104.124 109.5 H 104.108 V 112 H 104.124 V 109.5 Z M 104.108 109.5 H 104.092 V 112 H 104.108 V 109.5 Z M 104.092 109.5 H 104.076 V 112 H 104.092 V 109.5 Z M 104.076 109.5 H 104.061 V 112 H 104.076 V 109.5 Z M 104.061 109.5 H 104.045 V 112 H 104.061 V 109.5 Z M 104.045 109.5 H 104.03 V 112 H 104.045 V 109.5 Z M 104.03 109.5 H 104.014 V 112 H 104.03 V 109.5 Z M 104.014 109.5 H 103.999 V 112 H 104.014 V 109.5 Z M 103.999 109.5 H 103.984 V 112 H 103.999 V 109.5 Z M 103.984 109.5 H 103.968 V 112 H 103.984 V 109.5 Z M 103.968 109.5 H 103.953 V 112 H 103.968 V 109.5 Z M 103.953 109.5 H 103.939 V 112 H 103.953 V 109.5 Z M 103.939 109.5 H 103.924 V 112 H 103.939 V 109.5 Z M 103.924 109.5 H 103.909 V 112 H 103.924 V 109.5 Z M 103.909 109.5 H 103.895 V 112 H 103.909 V 109.5 Z M 103.895 109.5 H 103.88 V 112 H 103.895 V 109.5 Z M 103.88 109.5 H 103.866 V 112 H 103.88 V 109.5 Z M 103.866 109.5 H 103.852 V 112 H 103.866 V 109.5 Z M 103.852 109.5 H 103.837 V 112 H 103.852 V 109.5 Z M 103.837 109.5 H 103.823 V 112 H 103.837 V 109.5 Z M 103.823 109.5 H 103.809 V 112 H 103.823 V 109.5 Z M 103.809 109.5 H 103.796 V 112 H 103.809 V 109.5 Z M 103.796 109.5 H 103.782 V 112 H 103.796 V 109.5 Z M 103.782 109.5 H 103.768 V 112 H 103.782 V 109.5 Z M 103.768 109.5 H 103.755 V 112 H 103.768 V 109.5 Z M 103.755 109.5 H 103.742 V 112 H 103.755 V 109.5 Z M 103.742 109.5 H 103.728 V 112 H 103.742 V 109.5 Z M 103.728 109.5 H 103.715 V 112 H 103.728 V 109.5 Z M 103.715 109.5 H 103.702 V 112 H 103.715 V 109.5 Z M 103.702 109.5 H 103.689 V 112 H 103.702 V 109.5 Z M 103.689 109.5 H 103.676 V 112 H 103.689 V 109.5 Z M 103.676 109.5 H 103.664 V 112 H 103.676 V 109.5 Z M 103.664 109.5 H 103.651 V 112 H 103.664 V 109.5 Z M 103.651 109.5 H 103.639 V 112 H 103.651 V 109.5 Z M 103.639 109.5 H 103.626 V 112 H 103.639 V 109.5 Z M 103.626 109.5 H 103.614 V 112 H 103.626 V 109.5 Z M 103.614 109.5 H 103.602 V 112 H 103.614 V 109.5 Z M 103.602 109.5 H 103.59 V 112 H 103.602 V 109.5 Z M 103.59 109.5 H 103.578 V 112 H 103.59 V 109.5 Z M 103.578 109.5 H 103.566 V 112 H 103.578 V 109.5 Z M 103.566 109.5 H 103.555 V 112 H 103.566 V 109.5 Z M 103.555 109.5 H 103.543 V 112 H 103.555 V 109.5 Z M 103.543 109.5 H 103.532 V 112 H 103.543 V 109.5 Z M 103.532 109.5 H 103.52 V 112 H 103.532 V 109.5 Z M 103.52 109.5 H 103.509 V 112 H 103.52 V 109.5 Z M 103.509 109.5 H 103.498 V 112 H 103.509 V 109.5 Z M 103.498 109.5 H 103.487 V 112 H 103.498 V 109.5 Z M 103.487 109.5 H 103.476 V 112 H 103.487 V 109.5 Z M 103.476 109.5 H 103.465 V 112 H 103.476 V 109.5 Z M 103.465 109.5 H 103.455 V 112 H 103.465 V 109.5 Z M 103.455 109.5 H 103.444 V 112 H 103.455 V 109.5 Z M 103.444 109.5 H 103.434 V 112 H 103.444 V 109.5 Z M 103.434 109.5 H 103.424 V 112 H 103.434 V 109.5 Z M 103.424 109.5 H 103.414 V 112 H 103.424 V 109.5 Z M 103.414 109.5 H 103.403 V 112 H 103.414 V 109.5 Z M 103.403 109.5 H 103.394 V 112 H 103.403 V 109.5 Z M 103.394 109.5 H 103.384 V 112 H 103.394 V 109.5 Z M 103.384 109.5 H 103.374 V 112 H 103.384 V 109.5 Z M 103.374 109.5 H 103.364 V 112 H 103.374 V 109.5 Z M 103.364 109.5 H 103.355 V 112 H 103.364 V 109.5 Z M 103.355 109.5 H 103.346 V 112 H 103.355 V 109.5 Z M 103.346 109.5 H 103.336 V 112 H 103.346 V 109.5 Z M 103.336 109.5 H 103.327 V 112 H 103.336 V 109.5 Z M 103.327 109.5 H 103.318 V 112 H 103.327 V 109.5 Z M 103.318 109.5 H 103.31 V 112 H 103.318 V 109.5 Z M 103.31 109.5 H 103.301 V 112 H 103.31 V 109.5 Z M 103.301 109.5 H 103.292 V 112 H 103.301 V 109.5 Z M 103.292 109.5 H 103.284 V 112 H 103.292 V 109.5 Z M 103.284 109.5 H 103.275 V 112 H 103.284 V 109.5 Z M 103.275 109.5 H 103.267 V 112 H 103.275 V 109.5 Z M 103.267 109.5 H 103.259 V 112 H 103.267 V 109.5 Z M 103.259 109.5 H 103.251 V 112 H 103.259 V 109.5 Z M 103.251 109.5 H 103.243 V 112 H 103.251 V 109.5 Z M 103.243 109.5 H 103.235 V 112 H 103.243 V 109.5 Z M 103.235 109.5 H 103.228 V 112 H 103.235 V 109.5 Z M 103.228 109.5 H 103.22 V 112 H 103.228 V 109.5 Z M 103.22 109.5 H 103.213 V 112 H 103.22 V 109.5 Z M 103.213 109.5 H 103.205 V 112 H 103.213 V 109.5 Z M 103.205 109.5 H 103.198 V 112 H 103.205 V 109.5 Z M 103.198 109.5 H 103.191 V 112 H 103.198 V 109.5 Z M 103.191 109.5 H 103.184 V 112 H 103.191 V 109.5 Z M 103.184 109.5 H 103.178 V 112 H 103.184 V 109.5 Z M 103.178 109.5 H 103.171 V 112 H 103.178 V 109.5 Z M 103.171 109.5 H 103.164 V 112 H 103.171 V 109.5 Z M 103.164 109.5 H 103.158 V 112 H 103.164 V 109.5 Z M 103.158 109.5 H 103.152 V 112 H 103.158 V 109.5 Z M 103.152 109.5 H 103.145 V 112 H 103.152 V 109.5 Z M 103.145 109.5 H 103.139 V 112 H 103.145 V 109.5 Z M 103.139 109.5 H 103.133 V 112 H 103.139 V 109.5 Z M 103.133 109.5 H 103.128 V 112 H 103.133 V 109.5 Z M 103.128 109.5 H 103.122 V 112 H 103.128 V 109.5 Z M 103.122 109.5 H 103.116 V 112 H 103.122 V 109.5 Z M 103.116 109.5 H 103.111 V 112 H 103.116 V 109.5 Z M 103.111 109.5 H 103.106 V 112 H 103.111 V 109.5 Z M 103.106 109.5 H 103.101 V 112 H 103.106 V 109.5 Z M 103.101 109.5 H 103.096 V 112 H 103.101 V 109.5 Z M 103.096 109.5 H 103.091 V 112 H 103.096 V 109.5 Z M 103.091 109.5 H 103.086 V 112 H 103.091 V 109.5 Z M 103.086 109.5 H 103.081 V 112 H 103.086 V 109.5 Z M 103.081 109.5 H 103.077 V 112 H 103.081 V 109.5 Z M 103.077 109.5 H 103.072 V 112 H 103.077 V 109.5 Z M 103.072 109.5 H 103.068 V 112 H 103.072 V 109.5 Z M 103.068 109.5 H 103.064 V 112 H 103.068 V 109.5 Z M 103.064 109.5 H 103.06 V 112 H 103.064 V 109.5 Z M 103.06 109.5 H 103.056 V 112 H 103.06 V 109.5 Z M 103.056 109.5 H 103.052 V 112 H 103.056 V 109.5 Z M 103.052 109.5 H 103.049 V 112 H 103.052 V 109.5 Z M 103.049 109.5 H 103.045 V 112 H 103.049 V 109.5 Z M 103.045 109.5 H 103.042 V 112 H 103.045 V 109.5 Z M 103.042 109.5 H 103.038 V 112 H 103.042 V 109.5 Z M 103.038 109.5 H 103.035 V 112 H 103.038 V 109.5 Z M 103.035 109.5 H 103.032 V 112 H 103.035 V 109.5 Z M 103.032 109.5 H 103.029 V 112 H 103.032 V 109.5 Z M 103.029 109.5 H 103.027 V 112 H 103.029 V 109.5 Z M 103.027 109.5 H 103.024 V 112 H 103.027 V 109.5 Z M 103.024 109.5 H 103.022 V 112 H 103.024 V 109.5 Z M 103.022 109.5 H 103.019 V 112 H 103.022 V 109.5 Z M 103.019 109.5 H 103.017 V 112 H 103.019 V 109.5 Z M 103.017 109.5 H 103.015 V 112 H 103.017 V 109.5 Z M 103.015 109.5 H 103.013 V 112 H 103.015 V 109.5 Z M 103.013 109.5 H 103.011 V 112 H 103.013 V 109.5 Z M 103.011 109.5 H 103.01 V 112 H 103.011 V 109.5 Z M 103.01 109.5 H 103.008 V 112 H 103.01 V 109.5 Z M 103.008 109.5 H 103.007 V 112 H 103.008 V 109.5 Z M 103.007 109.5 H 103.005 V 112 H 103.007 V 109.5 Z M 103.005 109.5 H 103.004 V 112 H 103.005 V 109.5 Z M 103.004 109.5 H 103.003 V 112 H 103.004 V 109.5 Z M 103.003 109.5 H 103.002 V 112 H 103.003 V 109.5 Z M 103.002 109.5 H 103.002 V 112 H 103.002 V 109.5 Z M 103.002 109.5 H 103.001 V 112 H 103.002 V 109.5 Z M 103.001 109.5 H 103.001 V 112 H 103.001 V 109.5 Z M 103.001 109.5 H 103 V 112 H 103.001 V 109.5 Z M 103 109.5 H 103 V 112 H 103 V 109.5 Z M 101.75 110.75 L 101.75 112 L 104.25 112 L 104.25 110.75 L 101.75 110.75 Z" stroke-linecap="round" />
</g>
		<g transform="matrix(2.8 0 0 2.8 -88.45 -93.74)"  >
<path style="stroke: none; stroke-width: 1; stroke-dasharray: none; stroke-linecap: butt; stroke-dashoffset: 0; stroke-linejoin: miter; stroke-miterlimit: 4; fill: rgb(245,130,32); fill-rule: nonzero; opacity: 1;"  transform=" translate(-129.05, -63.38)" d="M 103.933 58.471 L 103 59.3027 H 103 L 103.933 58.471 Z M 115.033 70.9241 L 115.966 70.0924 L 115.033 70.9241 Z M 114.931 72.689 L 115.763 73.6221 L 115.763 73.6221 L 114.931 72.689 Z M 113.166 72.5876 L 112.233 73.4193 H 112.233 L 113.166 72.5876 Z M 102.067 60.1345 L 103 59.3027 L 103 59.3027 L 102.067 60.1345 Z M 154.166 58.471 L 153.233 57.6393 L 153.233 57.6393 L 154.166 58.471 Z M 156.033 60.1345 L 156.966 60.9662 V 60.9662 L 156.033 60.1345 Z M 144.933 72.5876 L 145.866 73.4193 L 145.866 73.4193 L 144.933 72.5876 Z M 143.168 72.689 L 142.337 73.6221 L 142.337 73.6221 L 143.168 72.689 Z M 143.067 70.9241 L 142.134 70.0924 V 70.0924 L 143.067 70.9241 Z M 131.6 55 C 131.6 53.6193 130.48 52.5 129.1 52.5 V 55 H 131.6 Z M 131.6 71.7559 V 55 H 129.1 V 71.7559 H 131.6 Z M 129.1 74.2559 C 130.48 74.2559 131.6 73.1366 131.6 71.7559 H 129.1 V 74.2559 Z M 126.6 71.7559 C 126.6 73.1366 127.719 74.2559 129.1 74.2559 V 71.7559 H 126.6 Z M 126.6 55 V 71.7559 H 129.1 V 55 H 126.6 Z M 129.1 52.5 C 127.719 52.5 126.6 53.6193 126.6 55 H 129.1 V 52.5 Z M 104.866 57.6393 C 103.948 56.6086 102.367 56.5178 101.337 57.4365 L 103 59.3027 H 103 L 104.866 57.6393 Z M 115.966 70.0924 L 104.866 57.6393 L 103 59.3027 L 114.1 71.7559 L 115.966 70.0924 Z M 115.763 73.6221 C 116.794 72.7034 116.885 71.1231 115.966 70.0924 L 114.1 71.7559 L 114.1 71.7559 L 115.763 73.6221 Z M 112.233 73.4193 C 113.152 74.45 114.732 74.5408 115.763 73.6221 L 114.1 71.7559 H 114.1 L 112.233 73.4193 Z M 101.134 60.9662 L 112.233 73.4193 L 114.1 71.7559 L 103 59.3027 L 101.134 60.9662 Z M 101.337 57.4365 C 100.306 58.3551 100.215 59.9355 101.134 60.9662 L 103 59.3027 L 103 59.3027 L 101.337 57.4365 Z M 156.763 57.4365 C 155.732 56.5178 154.152 56.6086 153.233 57.6393 L 155.1 59.3027 L 155.1 59.3027 L 156.763 57.4365 Z M 156.966 60.9662 C 157.885 59.9355 157.794 58.3551 156.763 57.4365 L 155.1 59.3027 V 59.3027 L 156.966 60.9662 Z M 145.866 73.4193 L 156.966 60.9662 L 155.1 59.3027 L 144 71.7559 L 145.866 73.4193 Z M 142.337 73.6221 C 143.367 74.5408 144.948 74.45 145.866 73.4193 L 144 71.7559 L 144 71.7559 L 142.337 73.6221 Z M 142.134 70.0924 C 141.215 71.1231 141.306 72.7034 142.337 73.6221 L 144 71.7559 V 71.7559 L 142.134 70.0924 Z M 153.233 57.6393 L 142.134 70.0924 L 144 71.7559 L 155.1 59.3027 L 153.233 57.6393 Z" stroke-linecap="round" />
</g>
</g>
</g>
</svg>